G04 EAGLE Gerber RS-274X export*
G75*
%MOMM*%
%FSLAX34Y34*%
%LPD*%
%INBottom Copper*%
%IPPOS*%
%AMOC8*
5,1,8,0,0,1.08239X$1,22.5*%
G01*
%ADD10C,1.930400*%
%ADD11C,1.508000*%
%ADD12C,1.905000*%
%ADD13C,1.408000*%
%ADD14R,1.508000X1.508000*%
%ADD15C,1.950000*%
%ADD16C,2.250000*%
%ADD17C,1.500000*%
%ADD18C,1.000000*%

G36*
X1308285Y553812D02*
X1308285Y553812D01*
X1308470Y553814D01*
X1308600Y553832D01*
X1308731Y553841D01*
X1308912Y553876D01*
X1309096Y553901D01*
X1309222Y553935D01*
X1309352Y553960D01*
X1309528Y554018D01*
X1309706Y554066D01*
X1309827Y554116D01*
X1309952Y554157D01*
X1310120Y554236D01*
X1310290Y554306D01*
X1310405Y554371D01*
X1310523Y554427D01*
X1310679Y554527D01*
X1310840Y554619D01*
X1310945Y554697D01*
X1311056Y554768D01*
X1311198Y554887D01*
X1311346Y554998D01*
X1311440Y555089D01*
X1311541Y555173D01*
X1311667Y555309D01*
X1311800Y555438D01*
X1311882Y555540D01*
X1311971Y555637D01*
X1312079Y555787D01*
X1312194Y555931D01*
X1312263Y556044D01*
X1312339Y556150D01*
X1312427Y556313D01*
X1312524Y556471D01*
X1312577Y556591D01*
X1312640Y556706D01*
X1312706Y556879D01*
X1312782Y557048D01*
X1312820Y557173D01*
X1312868Y557296D01*
X1312912Y557476D01*
X1312966Y557653D01*
X1312988Y557782D01*
X1313019Y557910D01*
X1313041Y558093D01*
X1313072Y558276D01*
X1313080Y558429D01*
X1313092Y558537D01*
X1313091Y558646D01*
X1313099Y558800D01*
X1313099Y692740D01*
X1313088Y692925D01*
X1313086Y693110D01*
X1313068Y693240D01*
X1313059Y693371D01*
X1313024Y693552D01*
X1312999Y693736D01*
X1312965Y693862D01*
X1312940Y693992D01*
X1312882Y694168D01*
X1312834Y694346D01*
X1312784Y694467D01*
X1312743Y694592D01*
X1312664Y694760D01*
X1312594Y694930D01*
X1312529Y695045D01*
X1312473Y695163D01*
X1312373Y695319D01*
X1312282Y695480D01*
X1312203Y695585D01*
X1312132Y695696D01*
X1312013Y695838D01*
X1311902Y695986D01*
X1311811Y696080D01*
X1311727Y696181D01*
X1311591Y696307D01*
X1311462Y696440D01*
X1311360Y696522D01*
X1311263Y696611D01*
X1311113Y696719D01*
X1310969Y696834D01*
X1310856Y696903D01*
X1310750Y696979D01*
X1310587Y697067D01*
X1310429Y697164D01*
X1310309Y697217D01*
X1310194Y697280D01*
X1310021Y697346D01*
X1309852Y697422D01*
X1309727Y697460D01*
X1309604Y697508D01*
X1309424Y697552D01*
X1309247Y697606D01*
X1309118Y697628D01*
X1308990Y697659D01*
X1308807Y697681D01*
X1308624Y697712D01*
X1308471Y697720D01*
X1308363Y697732D01*
X1308254Y697731D01*
X1308100Y697739D01*
X55826Y697739D01*
X55598Y697725D01*
X55369Y697718D01*
X55282Y697705D01*
X55195Y697699D01*
X54971Y697656D01*
X54744Y697621D01*
X54660Y697597D01*
X54574Y697580D01*
X54357Y697509D01*
X54137Y697445D01*
X54057Y697411D01*
X53974Y697383D01*
X53766Y697285D01*
X53557Y697195D01*
X53482Y697150D01*
X53403Y697113D01*
X53210Y696989D01*
X53013Y696873D01*
X52944Y696819D01*
X52870Y696772D01*
X52695Y696625D01*
X52514Y696485D01*
X52452Y696423D01*
X52385Y696367D01*
X52229Y696199D01*
X52068Y696037D01*
X52015Y695968D01*
X51955Y695903D01*
X51822Y695718D01*
X51682Y695536D01*
X51638Y695461D01*
X51587Y695390D01*
X51478Y695189D01*
X51362Y694991D01*
X51328Y694911D01*
X51286Y694834D01*
X51204Y694620D01*
X51114Y694410D01*
X51090Y694326D01*
X51058Y694244D01*
X51003Y694022D01*
X50941Y693802D01*
X50928Y693715D01*
X50907Y693630D01*
X50880Y693403D01*
X50846Y693177D01*
X50844Y693089D01*
X50834Y693003D01*
X50836Y692774D01*
X50831Y692545D01*
X50839Y692458D01*
X50840Y692370D01*
X50872Y692144D01*
X50895Y691916D01*
X50915Y691831D01*
X50927Y691744D01*
X50987Y691523D01*
X51038Y691301D01*
X51069Y691218D01*
X51092Y691134D01*
X51179Y690923D01*
X51258Y690708D01*
X51303Y690620D01*
X51332Y690550D01*
X51374Y690475D01*
X53101Y684032D01*
X53101Y677408D01*
X51386Y671008D01*
X48074Y665271D01*
X43389Y660586D01*
X37652Y657274D01*
X31252Y655559D01*
X24628Y655559D01*
X18228Y657274D01*
X17660Y657602D01*
X17455Y657704D01*
X17254Y657813D01*
X17172Y657844D01*
X17093Y657883D01*
X16878Y657958D01*
X16664Y658040D01*
X16579Y658062D01*
X16496Y658090D01*
X16272Y658137D01*
X16050Y658192D01*
X15964Y658202D01*
X15878Y658220D01*
X15649Y658239D01*
X15423Y658265D01*
X15335Y658264D01*
X15248Y658271D01*
X15019Y658261D01*
X14790Y658258D01*
X14704Y658246D01*
X14616Y658242D01*
X14391Y658203D01*
X14164Y658172D01*
X14080Y658149D01*
X13994Y658134D01*
X13775Y658067D01*
X13554Y658007D01*
X13473Y657974D01*
X13389Y657948D01*
X13181Y657854D01*
X12970Y657767D01*
X12893Y657723D01*
X12814Y657687D01*
X12619Y657567D01*
X12420Y657454D01*
X12350Y657402D01*
X12275Y657356D01*
X12097Y657212D01*
X11914Y657075D01*
X11851Y657014D01*
X11783Y656959D01*
X11625Y656794D01*
X11460Y656635D01*
X11406Y656567D01*
X11345Y656504D01*
X11209Y656320D01*
X11066Y656141D01*
X11020Y656067D01*
X10968Y655996D01*
X10856Y655797D01*
X10736Y655602D01*
X10701Y655522D01*
X10658Y655446D01*
X10571Y655234D01*
X10478Y655025D01*
X10452Y654941D01*
X10419Y654860D01*
X10361Y654639D01*
X10294Y654420D01*
X10280Y654334D01*
X10257Y654249D01*
X10227Y654023D01*
X10188Y653797D01*
X10183Y653698D01*
X10173Y653623D01*
X10172Y653489D01*
X10161Y653273D01*
X10161Y558800D01*
X10172Y558615D01*
X10174Y558430D01*
X10192Y558300D01*
X10201Y558169D01*
X10236Y557988D01*
X10261Y557804D01*
X10295Y557678D01*
X10320Y557548D01*
X10378Y557372D01*
X10426Y557194D01*
X10476Y557073D01*
X10517Y556948D01*
X10596Y556780D01*
X10666Y556610D01*
X10731Y556495D01*
X10787Y556377D01*
X10887Y556221D01*
X10978Y556060D01*
X11057Y555955D01*
X11128Y555844D01*
X11247Y555702D01*
X11358Y555554D01*
X11449Y555460D01*
X11533Y555359D01*
X11669Y555233D01*
X11798Y555100D01*
X11900Y555018D01*
X11997Y554929D01*
X12147Y554821D01*
X12291Y554706D01*
X12404Y554637D01*
X12510Y554561D01*
X12673Y554473D01*
X12831Y554376D01*
X12951Y554323D01*
X13066Y554260D01*
X13239Y554194D01*
X13408Y554118D01*
X13533Y554080D01*
X13656Y554032D01*
X13836Y553988D01*
X14013Y553934D01*
X14142Y553912D01*
X14270Y553881D01*
X14453Y553859D01*
X14636Y553828D01*
X14789Y553820D01*
X14897Y553808D01*
X15006Y553809D01*
X15160Y553801D01*
X1308100Y553801D01*
X1308285Y553812D01*
G37*
G36*
X1016589Y10177D02*
X1016589Y10177D01*
X1016840Y10186D01*
X1016905Y10197D01*
X1016970Y10201D01*
X1017216Y10248D01*
X1017464Y10289D01*
X1017526Y10307D01*
X1017591Y10320D01*
X1017830Y10398D01*
X1018069Y10470D01*
X1018129Y10496D01*
X1018192Y10517D01*
X1018419Y10624D01*
X1018647Y10725D01*
X1018703Y10759D01*
X1018763Y10787D01*
X1018974Y10922D01*
X1019188Y11052D01*
X1019240Y11093D01*
X1019295Y11128D01*
X1019488Y11289D01*
X1019684Y11444D01*
X1019730Y11491D01*
X1019780Y11533D01*
X1019951Y11717D01*
X1020126Y11896D01*
X1020166Y11948D01*
X1020211Y11997D01*
X1020356Y12200D01*
X1020508Y12400D01*
X1020541Y12457D01*
X1020579Y12510D01*
X1020698Y12730D01*
X1020823Y12948D01*
X1020848Y13009D01*
X1020879Y13066D01*
X1020969Y13300D01*
X1021066Y13531D01*
X1021083Y13595D01*
X1021107Y13656D01*
X1021167Y13899D01*
X1021234Y14141D01*
X1021243Y14206D01*
X1021259Y14270D01*
X1021288Y14518D01*
X1021323Y14766D01*
X1021324Y14832D01*
X1021332Y14897D01*
X1021329Y15147D01*
X1021333Y15398D01*
X1021326Y15464D01*
X1021325Y15530D01*
X1021291Y15777D01*
X1021263Y16027D01*
X1021248Y16091D01*
X1021239Y16156D01*
X1021173Y16397D01*
X1021114Y16641D01*
X1021091Y16703D01*
X1021074Y16766D01*
X1020979Y16998D01*
X1020889Y17232D01*
X1020858Y17290D01*
X1020833Y17350D01*
X1020709Y17569D01*
X1020592Y17789D01*
X1020554Y17843D01*
X1020521Y17900D01*
X1020371Y18101D01*
X1020226Y18305D01*
X1020177Y18359D01*
X1020142Y18406D01*
X1020044Y18506D01*
X1019875Y18695D01*
X983724Y54845D01*
X983659Y54902D01*
X983600Y54965D01*
X983423Y55111D01*
X983250Y55263D01*
X983178Y55312D01*
X983112Y55366D01*
X982917Y55488D01*
X982727Y55618D01*
X982650Y55657D01*
X982576Y55703D01*
X982276Y55846D01*
X982163Y55903D01*
X982135Y55913D01*
X982102Y55929D01*
X981833Y56040D01*
X978943Y58931D01*
X978812Y59046D01*
X978688Y59168D01*
X978575Y59255D01*
X978468Y59349D01*
X978325Y59446D01*
X978186Y59552D01*
X978063Y59624D01*
X977945Y59703D01*
X977790Y59782D01*
X977639Y59869D01*
X977508Y59925D01*
X977381Y59989D01*
X977218Y60047D01*
X977057Y60115D01*
X976920Y60154D01*
X976786Y60201D01*
X976616Y60239D01*
X976448Y60286D01*
X976308Y60306D01*
X976169Y60337D01*
X975995Y60352D01*
X975823Y60378D01*
X975681Y60381D01*
X975539Y60393D01*
X975365Y60387D01*
X975191Y60390D01*
X975050Y60375D01*
X974907Y60370D01*
X974736Y60342D01*
X974563Y60323D01*
X974424Y60290D01*
X974284Y60267D01*
X974117Y60217D01*
X973948Y60177D01*
X973814Y60127D01*
X973678Y60086D01*
X973519Y60016D01*
X973356Y59955D01*
X973230Y59888D01*
X973100Y59831D01*
X972951Y59741D01*
X972797Y59659D01*
X972659Y59564D01*
X972559Y59504D01*
X972479Y59441D01*
X972364Y59362D01*
X972088Y59150D01*
X970704Y58351D01*
X970299Y58183D01*
X970299Y69310D01*
X970288Y69494D01*
X970286Y69679D01*
X970268Y69809D01*
X970259Y69940D01*
X970225Y70122D01*
X970199Y70305D01*
X970165Y70432D01*
X970140Y70561D01*
X970083Y70737D01*
X970034Y70916D01*
X969985Y71037D01*
X969944Y71162D01*
X969864Y71329D01*
X969794Y71500D01*
X969729Y71614D01*
X969673Y71733D01*
X969573Y71889D01*
X969482Y72050D01*
X969403Y72155D01*
X969332Y72265D01*
X969213Y72408D01*
X969102Y72555D01*
X969011Y72650D01*
X968927Y72751D01*
X968791Y72876D01*
X968663Y73009D01*
X968560Y73091D01*
X968464Y73181D01*
X968313Y73288D01*
X968169Y73404D01*
X968056Y73473D01*
X967950Y73549D01*
X967787Y73637D01*
X967629Y73733D01*
X967509Y73787D01*
X967394Y73849D01*
X967221Y73916D01*
X967052Y73992D01*
X966927Y74030D01*
X966804Y74077D01*
X966625Y74122D01*
X966448Y74175D01*
X966318Y74197D01*
X966191Y74229D01*
X966007Y74250D01*
X965824Y74281D01*
X965671Y74289D01*
X965563Y74302D01*
X965562Y74302D01*
X965454Y74301D01*
X965300Y74309D01*
X965115Y74297D01*
X964930Y74295D01*
X964800Y74277D01*
X964669Y74269D01*
X964487Y74234D01*
X964304Y74209D01*
X964177Y74175D01*
X964048Y74150D01*
X963872Y74092D01*
X963694Y74044D01*
X963573Y73994D01*
X963448Y73953D01*
X963280Y73874D01*
X963109Y73803D01*
X962995Y73739D01*
X962876Y73682D01*
X962720Y73582D01*
X962560Y73491D01*
X962455Y73412D01*
X962344Y73342D01*
X962202Y73223D01*
X962054Y73112D01*
X961960Y73021D01*
X961859Y72936D01*
X961733Y72801D01*
X961600Y72672D01*
X961518Y72569D01*
X961429Y72473D01*
X961321Y72323D01*
X961206Y72178D01*
X961137Y72066D01*
X961061Y71959D01*
X960973Y71797D01*
X960876Y71639D01*
X960822Y71519D01*
X960760Y71403D01*
X960693Y71231D01*
X960618Y71062D01*
X960580Y70936D01*
X960532Y70814D01*
X960488Y70634D01*
X960434Y70457D01*
X960412Y70327D01*
X960381Y70200D01*
X960359Y70017D01*
X960328Y69834D01*
X960320Y69680D01*
X960307Y69572D01*
X960309Y69463D01*
X960301Y69310D01*
X960301Y58183D01*
X959896Y58351D01*
X958511Y59150D01*
X958236Y59362D01*
X958091Y59459D01*
X957952Y59564D01*
X957829Y59635D01*
X957711Y59714D01*
X957556Y59792D01*
X957404Y59879D01*
X957273Y59934D01*
X957146Y59998D01*
X956982Y60055D01*
X956821Y60122D01*
X956684Y60160D01*
X956550Y60207D01*
X956380Y60244D01*
X956212Y60290D01*
X956071Y60310D01*
X955932Y60340D01*
X955758Y60355D01*
X955586Y60380D01*
X955444Y60382D01*
X955302Y60394D01*
X955128Y60387D01*
X954954Y60389D01*
X954813Y60374D01*
X954670Y60368D01*
X954499Y60339D01*
X954326Y60319D01*
X954187Y60286D01*
X954047Y60262D01*
X953881Y60212D01*
X953711Y60171D01*
X953578Y60120D01*
X953442Y60079D01*
X953283Y60008D01*
X953121Y59946D01*
X952995Y59879D01*
X952865Y59821D01*
X952717Y59730D01*
X952563Y59648D01*
X952447Y59566D01*
X952326Y59492D01*
X952189Y59383D01*
X952048Y59282D01*
X951923Y59170D01*
X951832Y59097D01*
X951761Y59024D01*
X951657Y58931D01*
X948767Y56040D01*
X943014Y53657D01*
X936786Y53657D01*
X931033Y56040D01*
X930735Y56339D01*
X930596Y56461D01*
X930464Y56590D01*
X930359Y56670D01*
X930261Y56756D01*
X930108Y56860D01*
X929960Y56972D01*
X929846Y57038D01*
X929738Y57111D01*
X929573Y57195D01*
X929412Y57287D01*
X929291Y57338D01*
X929174Y57397D01*
X928999Y57459D01*
X928829Y57530D01*
X928702Y57565D01*
X928578Y57609D01*
X928398Y57649D01*
X928219Y57698D01*
X928089Y57717D01*
X927961Y57745D01*
X927777Y57761D01*
X927594Y57787D01*
X927462Y57789D01*
X927331Y57801D01*
X927147Y57794D01*
X926962Y57797D01*
X926831Y57783D01*
X926700Y57778D01*
X926517Y57748D01*
X926333Y57727D01*
X926206Y57696D01*
X926076Y57675D01*
X925899Y57622D01*
X925719Y57579D01*
X925596Y57532D01*
X925470Y57494D01*
X925301Y57419D01*
X925128Y57353D01*
X925012Y57292D01*
X924892Y57238D01*
X924734Y57143D01*
X924571Y57056D01*
X924464Y56980D01*
X924351Y56912D01*
X924206Y56797D01*
X924055Y56690D01*
X923941Y56587D01*
X923856Y56519D01*
X923779Y56441D01*
X923665Y56339D01*
X923367Y56040D01*
X917614Y53657D01*
X911386Y53657D01*
X905633Y56040D01*
X905335Y56339D01*
X905196Y56461D01*
X905064Y56590D01*
X904959Y56670D01*
X904861Y56756D01*
X904708Y56860D01*
X904560Y56972D01*
X904446Y57038D01*
X904338Y57111D01*
X904173Y57195D01*
X904012Y57287D01*
X903891Y57338D01*
X903774Y57397D01*
X903599Y57459D01*
X903429Y57530D01*
X903302Y57565D01*
X903178Y57609D01*
X902998Y57649D01*
X902819Y57698D01*
X902689Y57717D01*
X902561Y57745D01*
X902377Y57761D01*
X902194Y57787D01*
X902062Y57789D01*
X901931Y57801D01*
X901747Y57794D01*
X901562Y57797D01*
X901431Y57783D01*
X901300Y57778D01*
X901117Y57748D01*
X900933Y57727D01*
X900806Y57696D01*
X900676Y57675D01*
X900499Y57622D01*
X900319Y57579D01*
X900196Y57532D01*
X900070Y57494D01*
X899901Y57419D01*
X899728Y57353D01*
X899612Y57292D01*
X899492Y57238D01*
X899334Y57143D01*
X899171Y57056D01*
X899064Y56980D01*
X898951Y56912D01*
X898806Y56797D01*
X898655Y56690D01*
X898541Y56587D01*
X898456Y56519D01*
X898379Y56441D01*
X898265Y56339D01*
X897967Y56040D01*
X892214Y53657D01*
X885986Y53657D01*
X880233Y56040D01*
X879935Y56339D01*
X879796Y56461D01*
X879664Y56590D01*
X879559Y56670D01*
X879461Y56756D01*
X879308Y56860D01*
X879160Y56972D01*
X879046Y57038D01*
X878938Y57111D01*
X878773Y57195D01*
X878612Y57287D01*
X878491Y57338D01*
X878374Y57397D01*
X878199Y57459D01*
X878029Y57530D01*
X877902Y57565D01*
X877778Y57609D01*
X877598Y57649D01*
X877419Y57698D01*
X877289Y57717D01*
X877161Y57745D01*
X876977Y57761D01*
X876794Y57787D01*
X876662Y57789D01*
X876531Y57801D01*
X876347Y57794D01*
X876162Y57797D01*
X876031Y57783D01*
X875900Y57778D01*
X875717Y57748D01*
X875533Y57727D01*
X875406Y57696D01*
X875276Y57675D01*
X875099Y57622D01*
X874919Y57579D01*
X874796Y57532D01*
X874670Y57494D01*
X874501Y57419D01*
X874328Y57353D01*
X874212Y57292D01*
X874092Y57238D01*
X873934Y57143D01*
X873771Y57056D01*
X873664Y56980D01*
X873551Y56912D01*
X873406Y56797D01*
X873255Y56690D01*
X873141Y56587D01*
X873056Y56519D01*
X872979Y56441D01*
X872865Y56339D01*
X872567Y56040D01*
X866814Y53657D01*
X860587Y53657D01*
X860373Y53746D01*
X860167Y53816D01*
X859964Y53895D01*
X859868Y53918D01*
X859775Y53950D01*
X859561Y53994D01*
X859350Y54046D01*
X859253Y54058D01*
X859156Y54078D01*
X858939Y54094D01*
X858723Y54119D01*
X858624Y54118D01*
X858526Y54126D01*
X858308Y54115D01*
X858090Y54113D01*
X857993Y54099D01*
X857894Y54094D01*
X857680Y54056D01*
X857464Y54026D01*
X857369Y54000D01*
X857272Y53983D01*
X857064Y53918D01*
X856854Y53861D01*
X856763Y53824D01*
X856669Y53794D01*
X856471Y53704D01*
X856270Y53621D01*
X856184Y53572D01*
X856094Y53531D01*
X855910Y53416D01*
X855720Y53308D01*
X855641Y53249D01*
X855557Y53197D01*
X855389Y53060D01*
X855214Y52929D01*
X855143Y52861D01*
X855067Y52799D01*
X854917Y52641D01*
X854760Y52489D01*
X854699Y52412D01*
X854631Y52341D01*
X854502Y52166D01*
X854366Y51996D01*
X854314Y51912D01*
X854256Y51832D01*
X854150Y51642D01*
X854036Y51456D01*
X853996Y51366D01*
X853948Y51280D01*
X853867Y51078D01*
X853778Y50879D01*
X853749Y50785D01*
X853713Y50694D01*
X853657Y50483D01*
X853594Y50274D01*
X853578Y50177D01*
X853553Y50082D01*
X853525Y49866D01*
X853488Y49651D01*
X853482Y49539D01*
X853472Y49455D01*
X853471Y49326D01*
X853461Y49127D01*
X853461Y47884D01*
X851153Y42312D01*
X831868Y23027D01*
X826296Y20719D01*
X373983Y20719D01*
X368411Y23027D01*
X288837Y102602D01*
X286529Y108174D01*
X286529Y355505D01*
X288837Y361077D01*
X293102Y365342D01*
X298674Y367650D01*
X302420Y367650D01*
X302605Y367662D01*
X302790Y367664D01*
X302920Y367682D01*
X303051Y367690D01*
X303232Y367725D01*
X303416Y367750D01*
X303542Y367785D01*
X303672Y367809D01*
X303848Y367867D01*
X304026Y367915D01*
X304147Y367965D01*
X304272Y368006D01*
X304440Y368085D01*
X304610Y368156D01*
X304725Y368220D01*
X304843Y368277D01*
X304999Y368377D01*
X305160Y368468D01*
X305265Y368547D01*
X305376Y368618D01*
X305518Y368736D01*
X305666Y368847D01*
X305760Y368939D01*
X305861Y369023D01*
X305987Y369158D01*
X306120Y369287D01*
X306202Y369390D01*
X306291Y369486D01*
X306399Y369636D01*
X306514Y369781D01*
X306583Y369893D01*
X306659Y370000D01*
X306747Y370162D01*
X306844Y370320D01*
X306897Y370440D01*
X306960Y370556D01*
X307026Y370728D01*
X307102Y370897D01*
X307140Y371023D01*
X307188Y371145D01*
X307232Y371325D01*
X307286Y371502D01*
X307308Y371632D01*
X307339Y371759D01*
X307361Y371942D01*
X307392Y372125D01*
X307400Y372279D01*
X307412Y372387D01*
X307411Y372496D01*
X307419Y372649D01*
X307419Y380269D01*
X307412Y380388D01*
X307414Y380508D01*
X307392Y380704D01*
X307379Y380900D01*
X307357Y381017D01*
X307344Y381136D01*
X307297Y381328D01*
X307260Y381521D01*
X307223Y381635D01*
X307195Y381750D01*
X307125Y381934D01*
X307063Y382122D01*
X307012Y382230D01*
X306970Y382341D01*
X306877Y382515D01*
X306793Y382693D01*
X306728Y382794D01*
X306672Y382899D01*
X306558Y383059D01*
X306452Y383225D01*
X306375Y383317D01*
X306306Y383414D01*
X306136Y383603D01*
X306047Y383710D01*
X306004Y383750D01*
X305955Y383804D01*
X299984Y389775D01*
X299895Y389854D01*
X299812Y389940D01*
X299658Y390063D01*
X299510Y390193D01*
X299411Y390260D01*
X299318Y390334D01*
X299150Y390437D01*
X298987Y390547D01*
X298880Y390601D01*
X298779Y390664D01*
X298599Y390744D01*
X298423Y390833D01*
X298311Y390873D01*
X298202Y390922D01*
X298013Y390979D01*
X297828Y391046D01*
X297711Y391071D01*
X297597Y391106D01*
X297402Y391139D01*
X297210Y391181D01*
X297092Y391192D01*
X296974Y391212D01*
X296720Y391225D01*
X296581Y391238D01*
X296523Y391235D01*
X296449Y391239D01*
X212884Y391239D01*
X207312Y393547D01*
X182727Y418132D01*
X180419Y423704D01*
X180419Y472864D01*
X180405Y473081D01*
X180400Y473299D01*
X180386Y473397D01*
X180379Y473495D01*
X180338Y473709D01*
X180306Y473924D01*
X180279Y474019D01*
X180260Y474116D01*
X180192Y474323D01*
X180133Y474532D01*
X180094Y474623D01*
X180063Y474716D01*
X179970Y474913D01*
X179885Y475113D01*
X179835Y475198D01*
X179793Y475288D01*
X179675Y475471D01*
X179565Y475659D01*
X179505Y475737D01*
X179452Y475820D01*
X179312Y475987D01*
X179179Y476160D01*
X179110Y476229D01*
X179047Y476305D01*
X178887Y476453D01*
X178733Y476608D01*
X178656Y476668D01*
X178583Y476735D01*
X178406Y476862D01*
X178235Y476996D01*
X178150Y477046D01*
X178070Y477103D01*
X177878Y477207D01*
X177691Y477318D01*
X177600Y477357D01*
X177514Y477404D01*
X177310Y477482D01*
X177111Y477569D01*
X177016Y477596D01*
X176924Y477632D01*
X176713Y477684D01*
X176503Y477745D01*
X176406Y477760D01*
X176310Y477783D01*
X176094Y477809D01*
X175879Y477842D01*
X175780Y477845D01*
X175683Y477856D01*
X175465Y477854D01*
X175247Y477860D01*
X175149Y477851D01*
X175050Y477850D01*
X174835Y477820D01*
X174618Y477799D01*
X174522Y477777D01*
X174424Y477763D01*
X174214Y477706D01*
X174002Y477658D01*
X173896Y477620D01*
X173814Y477598D01*
X173695Y477549D01*
X173507Y477483D01*
X172774Y477179D01*
X167586Y477179D01*
X162793Y479165D01*
X161015Y480943D01*
X160876Y481065D01*
X160744Y481194D01*
X160639Y481274D01*
X160541Y481360D01*
X160388Y481464D01*
X160240Y481576D01*
X160126Y481641D01*
X160017Y481715D01*
X159853Y481799D01*
X159692Y481891D01*
X159571Y481941D01*
X159454Y482001D01*
X159280Y482063D01*
X159109Y482134D01*
X158982Y482169D01*
X158858Y482213D01*
X158678Y482253D01*
X158499Y482302D01*
X158369Y482320D01*
X158241Y482349D01*
X158057Y482365D01*
X157874Y482391D01*
X157742Y482393D01*
X157611Y482405D01*
X157427Y482398D01*
X157242Y482401D01*
X157111Y482387D01*
X156980Y482382D01*
X156797Y482352D01*
X156613Y482331D01*
X156485Y482300D01*
X156356Y482279D01*
X156179Y482226D01*
X155999Y482182D01*
X155876Y482136D01*
X155750Y482098D01*
X155581Y482023D01*
X155408Y481957D01*
X155293Y481896D01*
X155172Y481842D01*
X155014Y481747D01*
X154851Y481660D01*
X154744Y481584D01*
X154631Y481516D01*
X154486Y481401D01*
X154335Y481294D01*
X154221Y481191D01*
X154136Y481123D01*
X154059Y481045D01*
X153945Y480943D01*
X152167Y479165D01*
X147374Y477179D01*
X142186Y477179D01*
X137393Y479165D01*
X135615Y480943D01*
X135476Y481065D01*
X135344Y481194D01*
X135239Y481274D01*
X135141Y481360D01*
X134988Y481464D01*
X134840Y481576D01*
X134726Y481641D01*
X134617Y481715D01*
X134453Y481799D01*
X134292Y481891D01*
X134171Y481941D01*
X134054Y482001D01*
X133880Y482063D01*
X133709Y482134D01*
X133582Y482169D01*
X133458Y482213D01*
X133278Y482253D01*
X133099Y482302D01*
X132969Y482320D01*
X132841Y482349D01*
X132657Y482365D01*
X132474Y482391D01*
X132342Y482393D01*
X132211Y482405D01*
X132027Y482398D01*
X131842Y482401D01*
X131711Y482387D01*
X131580Y482382D01*
X131397Y482352D01*
X131213Y482331D01*
X131085Y482300D01*
X130956Y482279D01*
X130779Y482226D01*
X130599Y482182D01*
X130476Y482136D01*
X130350Y482098D01*
X130181Y482023D01*
X130008Y481957D01*
X129893Y481896D01*
X129772Y481842D01*
X129614Y481747D01*
X129451Y481660D01*
X129344Y481584D01*
X129231Y481516D01*
X129086Y481401D01*
X128935Y481294D01*
X128821Y481191D01*
X128736Y481123D01*
X128659Y481045D01*
X128545Y480943D01*
X126767Y479165D01*
X121974Y477179D01*
X116786Y477179D01*
X111993Y479165D01*
X110215Y480943D01*
X110076Y481065D01*
X109944Y481194D01*
X109839Y481274D01*
X109741Y481360D01*
X109588Y481464D01*
X109440Y481576D01*
X109326Y481641D01*
X109217Y481715D01*
X109053Y481799D01*
X108892Y481891D01*
X108771Y481941D01*
X108654Y482001D01*
X108480Y482063D01*
X108309Y482134D01*
X108182Y482169D01*
X108058Y482213D01*
X107878Y482253D01*
X107699Y482302D01*
X107569Y482320D01*
X107441Y482349D01*
X107257Y482365D01*
X107074Y482391D01*
X106942Y482393D01*
X106811Y482405D01*
X106627Y482398D01*
X106442Y482401D01*
X106311Y482387D01*
X106180Y482382D01*
X105997Y482352D01*
X105813Y482331D01*
X105685Y482300D01*
X105556Y482279D01*
X105379Y482226D01*
X105199Y482182D01*
X105076Y482136D01*
X104950Y482098D01*
X104781Y482023D01*
X104608Y481957D01*
X104493Y481896D01*
X104372Y481842D01*
X104214Y481747D01*
X104051Y481660D01*
X103944Y481584D01*
X103831Y481516D01*
X103686Y481401D01*
X103535Y481294D01*
X103421Y481191D01*
X103336Y481123D01*
X103259Y481045D01*
X103145Y480943D01*
X101367Y479165D01*
X96574Y477179D01*
X91386Y477179D01*
X86593Y479165D01*
X84815Y480943D01*
X84676Y481065D01*
X84544Y481194D01*
X84439Y481274D01*
X84341Y481360D01*
X84188Y481464D01*
X84040Y481576D01*
X83926Y481641D01*
X83817Y481715D01*
X83653Y481799D01*
X83492Y481891D01*
X83371Y481941D01*
X83254Y482001D01*
X83080Y482063D01*
X82909Y482134D01*
X82782Y482169D01*
X82658Y482213D01*
X82478Y482253D01*
X82299Y482302D01*
X82169Y482320D01*
X82041Y482349D01*
X81857Y482365D01*
X81674Y482391D01*
X81542Y482393D01*
X81411Y482405D01*
X81227Y482398D01*
X81042Y482401D01*
X80911Y482387D01*
X80780Y482382D01*
X80597Y482352D01*
X80413Y482331D01*
X80285Y482300D01*
X80156Y482279D01*
X79979Y482226D01*
X79799Y482182D01*
X79676Y482136D01*
X79550Y482098D01*
X79381Y482023D01*
X79208Y481957D01*
X79093Y481896D01*
X78972Y481842D01*
X78814Y481747D01*
X78651Y481660D01*
X78544Y481584D01*
X78431Y481516D01*
X78286Y481401D01*
X78135Y481294D01*
X78021Y481191D01*
X77936Y481123D01*
X77859Y481045D01*
X77745Y480943D01*
X75967Y479165D01*
X71174Y477179D01*
X65986Y477179D01*
X61193Y479165D01*
X59415Y480943D01*
X59276Y481065D01*
X59144Y481194D01*
X59039Y481274D01*
X58941Y481360D01*
X58788Y481464D01*
X58640Y481576D01*
X58526Y481641D01*
X58417Y481715D01*
X58253Y481799D01*
X58092Y481891D01*
X57971Y481941D01*
X57854Y482001D01*
X57680Y482063D01*
X57509Y482134D01*
X57382Y482169D01*
X57258Y482213D01*
X57078Y482253D01*
X56899Y482302D01*
X56769Y482320D01*
X56641Y482349D01*
X56457Y482365D01*
X56274Y482391D01*
X56142Y482393D01*
X56011Y482405D01*
X55827Y482398D01*
X55642Y482401D01*
X55511Y482387D01*
X55380Y482382D01*
X55197Y482352D01*
X55013Y482331D01*
X54885Y482300D01*
X54756Y482279D01*
X54579Y482226D01*
X54399Y482182D01*
X54276Y482136D01*
X54150Y482098D01*
X53981Y482023D01*
X53808Y481957D01*
X53693Y481896D01*
X53572Y481842D01*
X53414Y481747D01*
X53251Y481660D01*
X53144Y481584D01*
X53031Y481516D01*
X52886Y481401D01*
X52735Y481294D01*
X52621Y481191D01*
X52536Y481123D01*
X52459Y481045D01*
X52345Y480943D01*
X50567Y479165D01*
X45774Y477179D01*
X40586Y477179D01*
X35793Y479165D01*
X32125Y482833D01*
X30139Y487626D01*
X30139Y492814D01*
X32125Y497607D01*
X35793Y501275D01*
X40586Y503261D01*
X45774Y503261D01*
X50567Y501275D01*
X52345Y499497D01*
X52484Y499375D01*
X52616Y499246D01*
X52721Y499166D01*
X52819Y499080D01*
X52973Y498976D01*
X53120Y498864D01*
X53234Y498799D01*
X53343Y498725D01*
X53508Y498641D01*
X53668Y498549D01*
X53789Y498499D01*
X53906Y498439D01*
X54081Y498377D01*
X54251Y498306D01*
X54378Y498271D01*
X54502Y498227D01*
X54682Y498187D01*
X54861Y498138D01*
X54991Y498120D01*
X55119Y498091D01*
X55303Y498075D01*
X55486Y498049D01*
X55618Y498047D01*
X55749Y498035D01*
X55934Y498042D01*
X56119Y498039D01*
X56249Y498053D01*
X56380Y498058D01*
X56563Y498088D01*
X56747Y498109D01*
X56875Y498140D01*
X57004Y498161D01*
X57181Y498214D01*
X57361Y498258D01*
X57484Y498304D01*
X57610Y498342D01*
X57779Y498417D01*
X57952Y498483D01*
X58068Y498545D01*
X58188Y498598D01*
X58346Y498693D01*
X58509Y498780D01*
X58616Y498856D01*
X58729Y498924D01*
X58874Y499039D01*
X59025Y499146D01*
X59139Y499249D01*
X59225Y499317D01*
X59301Y499395D01*
X59415Y499497D01*
X61193Y501275D01*
X65986Y503261D01*
X71174Y503261D01*
X75967Y501275D01*
X77745Y499497D01*
X77884Y499375D01*
X78016Y499246D01*
X78121Y499166D01*
X78219Y499080D01*
X78373Y498976D01*
X78520Y498864D01*
X78634Y498799D01*
X78743Y498725D01*
X78908Y498641D01*
X79068Y498549D01*
X79189Y498499D01*
X79306Y498439D01*
X79481Y498377D01*
X79651Y498306D01*
X79778Y498271D01*
X79902Y498227D01*
X80082Y498187D01*
X80261Y498138D01*
X80391Y498120D01*
X80519Y498091D01*
X80703Y498075D01*
X80886Y498049D01*
X81018Y498047D01*
X81149Y498035D01*
X81334Y498042D01*
X81519Y498039D01*
X81649Y498053D01*
X81780Y498058D01*
X81963Y498088D01*
X82147Y498109D01*
X82275Y498140D01*
X82404Y498161D01*
X82581Y498214D01*
X82761Y498258D01*
X82884Y498304D01*
X83010Y498342D01*
X83179Y498417D01*
X83352Y498483D01*
X83468Y498545D01*
X83588Y498598D01*
X83746Y498693D01*
X83909Y498780D01*
X84016Y498856D01*
X84129Y498924D01*
X84274Y499039D01*
X84425Y499146D01*
X84539Y499249D01*
X84625Y499317D01*
X84701Y499395D01*
X84815Y499497D01*
X86593Y501275D01*
X91386Y503261D01*
X96574Y503261D01*
X101367Y501275D01*
X103145Y499497D01*
X103284Y499375D01*
X103416Y499246D01*
X103521Y499166D01*
X103619Y499080D01*
X103773Y498976D01*
X103920Y498864D01*
X104034Y498799D01*
X104143Y498725D01*
X104308Y498641D01*
X104468Y498549D01*
X104589Y498499D01*
X104706Y498439D01*
X104881Y498377D01*
X105051Y498306D01*
X105178Y498271D01*
X105302Y498227D01*
X105482Y498187D01*
X105661Y498138D01*
X105791Y498120D01*
X105919Y498091D01*
X106103Y498075D01*
X106286Y498049D01*
X106418Y498047D01*
X106549Y498035D01*
X106734Y498042D01*
X106919Y498039D01*
X107049Y498053D01*
X107180Y498058D01*
X107363Y498088D01*
X107547Y498109D01*
X107675Y498140D01*
X107804Y498161D01*
X107981Y498214D01*
X108161Y498258D01*
X108284Y498304D01*
X108410Y498342D01*
X108579Y498417D01*
X108752Y498483D01*
X108868Y498545D01*
X108988Y498598D01*
X109146Y498693D01*
X109309Y498780D01*
X109416Y498856D01*
X109529Y498924D01*
X109674Y499039D01*
X109825Y499146D01*
X109939Y499249D01*
X110025Y499317D01*
X110101Y499395D01*
X110215Y499497D01*
X111993Y501275D01*
X116786Y503261D01*
X121974Y503261D01*
X126767Y501275D01*
X128545Y499497D01*
X128684Y499375D01*
X128816Y499246D01*
X128921Y499166D01*
X129019Y499080D01*
X129173Y498976D01*
X129320Y498864D01*
X129434Y498799D01*
X129543Y498725D01*
X129708Y498641D01*
X129868Y498549D01*
X129989Y498499D01*
X130106Y498439D01*
X130281Y498377D01*
X130451Y498306D01*
X130578Y498271D01*
X130702Y498227D01*
X130882Y498187D01*
X131061Y498138D01*
X131191Y498120D01*
X131319Y498091D01*
X131503Y498075D01*
X131686Y498049D01*
X131818Y498047D01*
X131949Y498035D01*
X132134Y498042D01*
X132319Y498039D01*
X132449Y498053D01*
X132580Y498058D01*
X132763Y498088D01*
X132947Y498109D01*
X133075Y498140D01*
X133204Y498161D01*
X133381Y498214D01*
X133561Y498258D01*
X133684Y498304D01*
X133810Y498342D01*
X133979Y498417D01*
X134152Y498483D01*
X134268Y498545D01*
X134388Y498598D01*
X134546Y498693D01*
X134709Y498780D01*
X134816Y498856D01*
X134929Y498924D01*
X135074Y499039D01*
X135225Y499146D01*
X135339Y499249D01*
X135425Y499317D01*
X135501Y499395D01*
X135615Y499497D01*
X137393Y501275D01*
X142186Y503261D01*
X147374Y503261D01*
X152167Y501275D01*
X153945Y499497D01*
X154084Y499375D01*
X154216Y499246D01*
X154321Y499166D01*
X154419Y499080D01*
X154573Y498976D01*
X154720Y498864D01*
X154834Y498799D01*
X154943Y498725D01*
X155108Y498641D01*
X155268Y498549D01*
X155389Y498499D01*
X155506Y498439D01*
X155681Y498377D01*
X155851Y498306D01*
X155978Y498271D01*
X156102Y498227D01*
X156282Y498187D01*
X156461Y498138D01*
X156591Y498120D01*
X156719Y498091D01*
X156903Y498075D01*
X157086Y498049D01*
X157218Y498047D01*
X157349Y498035D01*
X157534Y498042D01*
X157719Y498039D01*
X157849Y498053D01*
X157980Y498058D01*
X158163Y498088D01*
X158347Y498109D01*
X158475Y498140D01*
X158604Y498161D01*
X158781Y498214D01*
X158961Y498258D01*
X159084Y498304D01*
X159210Y498342D01*
X159379Y498417D01*
X159552Y498483D01*
X159668Y498545D01*
X159788Y498598D01*
X159946Y498693D01*
X160109Y498780D01*
X160216Y498856D01*
X160329Y498924D01*
X160474Y499039D01*
X160625Y499146D01*
X160739Y499249D01*
X160825Y499317D01*
X160901Y499395D01*
X161015Y499497D01*
X162793Y501275D01*
X167586Y503261D01*
X172774Y503261D01*
X177567Y501275D01*
X177846Y500996D01*
X177985Y500874D01*
X178117Y500745D01*
X178222Y500666D01*
X178320Y500579D01*
X178474Y500475D01*
X178621Y500363D01*
X178735Y500298D01*
X178844Y500224D01*
X179009Y500140D01*
X179169Y500048D01*
X179290Y499998D01*
X179407Y499938D01*
X179582Y499876D01*
X179752Y499805D01*
X179879Y499770D01*
X180003Y499726D01*
X180183Y499686D01*
X180362Y499637D01*
X180492Y499619D01*
X180620Y499590D01*
X180804Y499574D01*
X180987Y499548D01*
X181119Y499546D01*
X181250Y499534D01*
X181434Y499541D01*
X181619Y499538D01*
X181750Y499552D01*
X181881Y499557D01*
X182064Y499587D01*
X182248Y499608D01*
X182376Y499639D01*
X182505Y499660D01*
X182682Y499713D01*
X182862Y499757D01*
X182985Y499803D01*
X183111Y499841D01*
X183280Y499916D01*
X183453Y499982D01*
X183569Y500044D01*
X183689Y500097D01*
X183847Y500192D01*
X184010Y500279D01*
X184117Y500355D01*
X184230Y500423D01*
X184375Y500538D01*
X184526Y500645D01*
X184640Y500748D01*
X184725Y500816D01*
X184802Y500894D01*
X184916Y500996D01*
X186992Y503073D01*
X192564Y505381D01*
X198596Y505381D01*
X204203Y503058D01*
X204347Y503009D01*
X204488Y502950D01*
X204646Y502907D01*
X204801Y502854D01*
X204950Y502823D01*
X205097Y502782D01*
X205260Y502759D01*
X205420Y502726D01*
X205572Y502715D01*
X205723Y502693D01*
X205887Y502690D01*
X206051Y502678D01*
X206202Y502686D01*
X206355Y502683D01*
X206518Y502701D01*
X206682Y502710D01*
X206832Y502736D01*
X206983Y502753D01*
X207143Y502792D01*
X207304Y502821D01*
X207449Y502866D01*
X207597Y502902D01*
X207751Y502960D01*
X207907Y503009D01*
X208046Y503073D01*
X208188Y503127D01*
X208333Y503204D01*
X208482Y503273D01*
X208611Y503353D01*
X208745Y503425D01*
X208879Y503520D01*
X209019Y503606D01*
X209137Y503702D01*
X209261Y503790D01*
X209409Y503924D01*
X209509Y504005D01*
X209568Y504066D01*
X209651Y504142D01*
X213095Y507586D01*
X213096Y507586D01*
X239062Y533553D01*
X239807Y533861D01*
X240061Y533986D01*
X240318Y534107D01*
X240345Y534125D01*
X240375Y534140D01*
X240611Y534295D01*
X240850Y534448D01*
X240875Y534469D01*
X240903Y534487D01*
X241118Y534672D01*
X241335Y534853D01*
X241357Y534877D01*
X241382Y534899D01*
X241573Y535109D01*
X241765Y535317D01*
X241784Y535343D01*
X241806Y535368D01*
X241969Y535601D01*
X242133Y535830D01*
X242149Y535859D01*
X242168Y535886D01*
X242300Y536139D01*
X242434Y536386D01*
X242446Y536417D01*
X242461Y536446D01*
X242560Y536712D01*
X242662Y536976D01*
X242670Y537008D01*
X242681Y537039D01*
X242746Y537315D01*
X242813Y537590D01*
X242817Y537622D01*
X242825Y537654D01*
X242854Y537937D01*
X242887Y538217D01*
X242886Y538250D01*
X242890Y538283D01*
X242883Y538567D01*
X242880Y538850D01*
X242875Y538882D01*
X242874Y538915D01*
X242832Y539195D01*
X242793Y539476D01*
X242785Y539507D01*
X242780Y539540D01*
X242702Y539813D01*
X242628Y540086D01*
X242616Y540116D01*
X242607Y540148D01*
X242496Y540409D01*
X242388Y540670D01*
X242372Y540699D01*
X242359Y540729D01*
X242216Y540974D01*
X242076Y541220D01*
X242056Y541246D01*
X242039Y541275D01*
X241867Y541499D01*
X241696Y541726D01*
X241674Y541749D01*
X241654Y541775D01*
X241454Y541975D01*
X241257Y542180D01*
X241231Y542200D01*
X241208Y542223D01*
X240985Y542397D01*
X240763Y542574D01*
X240735Y542592D01*
X240709Y542612D01*
X240466Y542756D01*
X240223Y542904D01*
X240193Y542917D01*
X240165Y542934D01*
X239904Y543046D01*
X239646Y543162D01*
X239615Y543172D01*
X239585Y543185D01*
X239312Y543264D01*
X239042Y543346D01*
X239009Y543351D01*
X238978Y543360D01*
X238698Y543404D01*
X238418Y543452D01*
X238382Y543454D01*
X238353Y543458D01*
X238227Y543462D01*
X237894Y543479D01*
X15160Y543479D01*
X14975Y543468D01*
X14790Y543466D01*
X14660Y543448D01*
X14529Y543439D01*
X14348Y543404D01*
X14164Y543379D01*
X14038Y543345D01*
X13908Y543320D01*
X13732Y543262D01*
X13554Y543214D01*
X13433Y543164D01*
X13308Y543123D01*
X13140Y543044D01*
X12970Y542974D01*
X12855Y542909D01*
X12737Y542853D01*
X12581Y542753D01*
X12420Y542662D01*
X12315Y542583D01*
X12204Y542512D01*
X12062Y542393D01*
X11914Y542282D01*
X11820Y542191D01*
X11719Y542107D01*
X11593Y541971D01*
X11460Y541842D01*
X11378Y541740D01*
X11289Y541643D01*
X11181Y541493D01*
X11066Y541349D01*
X10997Y541236D01*
X10921Y541130D01*
X10833Y540967D01*
X10736Y540809D01*
X10683Y540689D01*
X10620Y540574D01*
X10554Y540401D01*
X10478Y540232D01*
X10440Y540107D01*
X10392Y539984D01*
X10348Y539804D01*
X10294Y539627D01*
X10272Y539498D01*
X10241Y539370D01*
X10219Y539187D01*
X10188Y539004D01*
X10180Y538851D01*
X10168Y538743D01*
X10169Y538634D01*
X10161Y538480D01*
X10161Y53880D01*
X10174Y53674D01*
X10178Y53467D01*
X10194Y53358D01*
X10201Y53249D01*
X10240Y53046D01*
X10270Y52842D01*
X10299Y52736D01*
X10320Y52629D01*
X10384Y52432D01*
X10440Y52233D01*
X10482Y52132D01*
X10517Y52028D01*
X10605Y51841D01*
X10686Y51650D01*
X10740Y51556D01*
X10787Y51457D01*
X10899Y51283D01*
X11003Y51104D01*
X11069Y51017D01*
X11128Y50924D01*
X11261Y50765D01*
X11386Y50601D01*
X11463Y50523D01*
X11533Y50439D01*
X11685Y50299D01*
X11830Y50151D01*
X11916Y50083D01*
X11997Y50009D01*
X12165Y49889D01*
X12327Y49761D01*
X12421Y49705D01*
X12510Y49641D01*
X12692Y49543D01*
X12870Y49436D01*
X12970Y49392D01*
X13066Y49340D01*
X13260Y49266D01*
X13449Y49183D01*
X13554Y49152D01*
X13656Y49112D01*
X13857Y49063D01*
X14055Y49004D01*
X14163Y48987D01*
X14270Y48961D01*
X14475Y48937D01*
X14679Y48904D01*
X14789Y48900D01*
X14897Y48888D01*
X15104Y48890D01*
X15311Y48883D01*
X15420Y48893D01*
X15530Y48895D01*
X15734Y48923D01*
X15940Y48942D01*
X16063Y48968D01*
X16156Y48981D01*
X16274Y49013D01*
X16454Y49051D01*
X22088Y50561D01*
X28712Y50561D01*
X35112Y48846D01*
X40849Y45534D01*
X45534Y40849D01*
X48846Y35112D01*
X50561Y28712D01*
X50561Y22088D01*
X49051Y16454D01*
X49010Y16251D01*
X48961Y16050D01*
X48948Y15942D01*
X48927Y15834D01*
X48912Y15628D01*
X48888Y15423D01*
X48889Y15313D01*
X48881Y15204D01*
X48892Y14997D01*
X48895Y14790D01*
X48910Y14682D01*
X48915Y14573D01*
X48953Y14369D01*
X48981Y14164D01*
X49010Y14059D01*
X49029Y13951D01*
X49092Y13754D01*
X49146Y13554D01*
X49187Y13453D01*
X49221Y13348D01*
X49308Y13161D01*
X49386Y12970D01*
X49440Y12874D01*
X49486Y12775D01*
X49596Y12600D01*
X49699Y12420D01*
X49764Y12332D01*
X49823Y12240D01*
X49954Y12080D01*
X50078Y11914D01*
X50154Y11836D01*
X50223Y11751D01*
X50374Y11609D01*
X50518Y11460D01*
X50603Y11392D01*
X50683Y11317D01*
X50850Y11195D01*
X51011Y11066D01*
X51105Y11009D01*
X51193Y10944D01*
X51374Y10844D01*
X51551Y10736D01*
X51651Y10692D01*
X51747Y10639D01*
X51939Y10563D01*
X52128Y10478D01*
X52233Y10446D01*
X52334Y10406D01*
X52535Y10354D01*
X52733Y10294D01*
X52841Y10276D01*
X52947Y10249D01*
X53152Y10223D01*
X53356Y10188D01*
X53481Y10182D01*
X53574Y10170D01*
X53697Y10170D01*
X53880Y10161D01*
X1016340Y10161D01*
X1016589Y10177D01*
G37*
G36*
X1444926Y10174D02*
X1444926Y10174D01*
X1445133Y10178D01*
X1445242Y10194D01*
X1445351Y10201D01*
X1445554Y10240D01*
X1445758Y10270D01*
X1445864Y10299D01*
X1445971Y10320D01*
X1446168Y10384D01*
X1446367Y10440D01*
X1446468Y10482D01*
X1446572Y10517D01*
X1446759Y10605D01*
X1446950Y10686D01*
X1447044Y10740D01*
X1447143Y10787D01*
X1447317Y10899D01*
X1447496Y11003D01*
X1447583Y11069D01*
X1447676Y11128D01*
X1447835Y11261D01*
X1447999Y11386D01*
X1448077Y11463D01*
X1448161Y11533D01*
X1448301Y11685D01*
X1448449Y11830D01*
X1448517Y11916D01*
X1448591Y11997D01*
X1448711Y12165D01*
X1448839Y12327D01*
X1448895Y12421D01*
X1448959Y12510D01*
X1449057Y12692D01*
X1449164Y12870D01*
X1449208Y12970D01*
X1449260Y13066D01*
X1449334Y13259D01*
X1449417Y13449D01*
X1449448Y13554D01*
X1449488Y13656D01*
X1449537Y13857D01*
X1449596Y14055D01*
X1449613Y14163D01*
X1449639Y14270D01*
X1449663Y14475D01*
X1449696Y14679D01*
X1449700Y14789D01*
X1449712Y14897D01*
X1449710Y15104D01*
X1449717Y15311D01*
X1449707Y15420D01*
X1449705Y15530D01*
X1449677Y15734D01*
X1449658Y15940D01*
X1449632Y16063D01*
X1449619Y16156D01*
X1449587Y16274D01*
X1449549Y16454D01*
X1448039Y22088D01*
X1448039Y28712D01*
X1449754Y35112D01*
X1453066Y40849D01*
X1457751Y45534D01*
X1463488Y48846D01*
X1469888Y50561D01*
X1476512Y50561D01*
X1481946Y49105D01*
X1482149Y49064D01*
X1482350Y49014D01*
X1482458Y49002D01*
X1482566Y48980D01*
X1482772Y48965D01*
X1482977Y48941D01*
X1483087Y48943D01*
X1483196Y48935D01*
X1483403Y48946D01*
X1483610Y48948D01*
X1483718Y48963D01*
X1483827Y48969D01*
X1484031Y49006D01*
X1484236Y49035D01*
X1484342Y49063D01*
X1484449Y49083D01*
X1484646Y49145D01*
X1484846Y49199D01*
X1484947Y49241D01*
X1485052Y49274D01*
X1485239Y49361D01*
X1485430Y49440D01*
X1485526Y49494D01*
X1485625Y49540D01*
X1485800Y49650D01*
X1485980Y49752D01*
X1486068Y49818D01*
X1486160Y49876D01*
X1486320Y50007D01*
X1486486Y50131D01*
X1486564Y50208D01*
X1486649Y50277D01*
X1486791Y50427D01*
X1486940Y50571D01*
X1487008Y50657D01*
X1487083Y50736D01*
X1487205Y50903D01*
X1487334Y51065D01*
X1487392Y51159D01*
X1487456Y51247D01*
X1487556Y51428D01*
X1487664Y51605D01*
X1487708Y51705D01*
X1487761Y51800D01*
X1487838Y51993D01*
X1487922Y52181D01*
X1487954Y52286D01*
X1487994Y52388D01*
X1488046Y52588D01*
X1488106Y52786D01*
X1488124Y52894D01*
X1488151Y53000D01*
X1488177Y53206D01*
X1488212Y53409D01*
X1488218Y53535D01*
X1488230Y53627D01*
X1488230Y53751D01*
X1488239Y53934D01*
X1488239Y655894D01*
X1488225Y656122D01*
X1488218Y656351D01*
X1488205Y656437D01*
X1488199Y656525D01*
X1488156Y656749D01*
X1488121Y656975D01*
X1488097Y657059D01*
X1488080Y657145D01*
X1488009Y657363D01*
X1487945Y657582D01*
X1487911Y657663D01*
X1487883Y657746D01*
X1487785Y657953D01*
X1487695Y658163D01*
X1487650Y658238D01*
X1487613Y658317D01*
X1487489Y658510D01*
X1487373Y658707D01*
X1487319Y658776D01*
X1487272Y658850D01*
X1487125Y659025D01*
X1486985Y659206D01*
X1486923Y659268D01*
X1486867Y659335D01*
X1486699Y659490D01*
X1486537Y659652D01*
X1486468Y659705D01*
X1486403Y659765D01*
X1486218Y659898D01*
X1486036Y660038D01*
X1485961Y660082D01*
X1485890Y660133D01*
X1485689Y660242D01*
X1485491Y660358D01*
X1485411Y660392D01*
X1485334Y660434D01*
X1485120Y660516D01*
X1484910Y660606D01*
X1484826Y660630D01*
X1484744Y660661D01*
X1484522Y660716D01*
X1484302Y660779D01*
X1484216Y660792D01*
X1484130Y660813D01*
X1483903Y660840D01*
X1483677Y660874D01*
X1483590Y660876D01*
X1483503Y660886D01*
X1483274Y660884D01*
X1483045Y660889D01*
X1482958Y660880D01*
X1482870Y660879D01*
X1482644Y660848D01*
X1482416Y660825D01*
X1482331Y660805D01*
X1482244Y660793D01*
X1482024Y660733D01*
X1481801Y660681D01*
X1481718Y660651D01*
X1481634Y660628D01*
X1481423Y660541D01*
X1481208Y660462D01*
X1481120Y660417D01*
X1481050Y660388D01*
X1480933Y660321D01*
X1480740Y660223D01*
X1477832Y658544D01*
X1471432Y656829D01*
X1464808Y656829D01*
X1458408Y658544D01*
X1452671Y661856D01*
X1447986Y666541D01*
X1444674Y672278D01*
X1442959Y678678D01*
X1442959Y685302D01*
X1444605Y691446D01*
X1444646Y691649D01*
X1444696Y691850D01*
X1444709Y691958D01*
X1444730Y692066D01*
X1444745Y692272D01*
X1444769Y692477D01*
X1444768Y692587D01*
X1444776Y692696D01*
X1444764Y692903D01*
X1444762Y693110D01*
X1444747Y693218D01*
X1444741Y693327D01*
X1444704Y693531D01*
X1444676Y693736D01*
X1444647Y693841D01*
X1444627Y693949D01*
X1444565Y694146D01*
X1444511Y694346D01*
X1444469Y694447D01*
X1444436Y694552D01*
X1444349Y694739D01*
X1444270Y694930D01*
X1444216Y695026D01*
X1444170Y695125D01*
X1444060Y695300D01*
X1443958Y695480D01*
X1443892Y695568D01*
X1443834Y695660D01*
X1443703Y695820D01*
X1443579Y695986D01*
X1443503Y696064D01*
X1443433Y696149D01*
X1443283Y696291D01*
X1443139Y696440D01*
X1443053Y696508D01*
X1442974Y696583D01*
X1442807Y696705D01*
X1442645Y696834D01*
X1442552Y696891D01*
X1442463Y696956D01*
X1442282Y697056D01*
X1442106Y697164D01*
X1442006Y697208D01*
X1441910Y697261D01*
X1441718Y697337D01*
X1441529Y697422D01*
X1441424Y697454D01*
X1441322Y697494D01*
X1441122Y697546D01*
X1440924Y697606D01*
X1440816Y697624D01*
X1440710Y697651D01*
X1440505Y697677D01*
X1440301Y697712D01*
X1440175Y697718D01*
X1440083Y697730D01*
X1439960Y697730D01*
X1439777Y697739D01*
X1333500Y697739D01*
X1333315Y697728D01*
X1333130Y697726D01*
X1333000Y697708D01*
X1332869Y697699D01*
X1332688Y697664D01*
X1332504Y697639D01*
X1332378Y697605D01*
X1332248Y697580D01*
X1332072Y697522D01*
X1331894Y697474D01*
X1331773Y697424D01*
X1331648Y697383D01*
X1331480Y697304D01*
X1331310Y697234D01*
X1331195Y697169D01*
X1331077Y697113D01*
X1330921Y697013D01*
X1330760Y696922D01*
X1330655Y696843D01*
X1330544Y696772D01*
X1330402Y696653D01*
X1330254Y696542D01*
X1330160Y696451D01*
X1330059Y696367D01*
X1329933Y696231D01*
X1329800Y696102D01*
X1329718Y696000D01*
X1329629Y695903D01*
X1329521Y695753D01*
X1329406Y695609D01*
X1329337Y695496D01*
X1329261Y695390D01*
X1329173Y695227D01*
X1329076Y695069D01*
X1329023Y694949D01*
X1328960Y694834D01*
X1328894Y694661D01*
X1328818Y694492D01*
X1328780Y694367D01*
X1328732Y694244D01*
X1328688Y694064D01*
X1328634Y693887D01*
X1328612Y693758D01*
X1328581Y693630D01*
X1328559Y693447D01*
X1328528Y693264D01*
X1328520Y693111D01*
X1328508Y693003D01*
X1328509Y692894D01*
X1328501Y692740D01*
X1328501Y543479D01*
X720956Y543479D01*
X720674Y543461D01*
X720390Y543447D01*
X720358Y543441D01*
X720325Y543439D01*
X720047Y543386D01*
X719768Y543336D01*
X719737Y543326D01*
X719704Y543320D01*
X719435Y543232D01*
X719165Y543147D01*
X719135Y543134D01*
X719104Y543123D01*
X718847Y543002D01*
X718590Y542884D01*
X718562Y542867D01*
X718532Y542853D01*
X718293Y542699D01*
X718053Y542550D01*
X718028Y542530D01*
X718000Y542512D01*
X717783Y542330D01*
X717563Y542152D01*
X717540Y542128D01*
X717515Y542107D01*
X717322Y541899D01*
X717127Y541694D01*
X717107Y541668D01*
X717085Y541643D01*
X716920Y541414D01*
X716752Y541185D01*
X716736Y541156D01*
X716717Y541130D01*
X716582Y540881D01*
X716444Y540633D01*
X716432Y540602D01*
X716416Y540574D01*
X716314Y540309D01*
X716208Y540047D01*
X716200Y540015D01*
X716188Y539984D01*
X716120Y539708D01*
X716049Y539435D01*
X716044Y539402D01*
X716037Y539370D01*
X716004Y539089D01*
X715967Y538808D01*
X715967Y538775D01*
X715963Y538743D01*
X715967Y538460D01*
X715966Y538176D01*
X715970Y538143D01*
X715970Y538110D01*
X716009Y537830D01*
X716044Y537549D01*
X716052Y537517D01*
X716057Y537484D01*
X716131Y537211D01*
X716201Y536936D01*
X716213Y536906D01*
X716222Y536874D01*
X716329Y536612D01*
X716434Y536349D01*
X716449Y536320D01*
X716462Y536290D01*
X716602Y536043D01*
X716739Y535795D01*
X716758Y535769D01*
X716774Y535740D01*
X716945Y535513D01*
X717111Y535284D01*
X717134Y535261D01*
X717154Y535234D01*
X717351Y535031D01*
X717545Y534825D01*
X717571Y534804D01*
X717593Y534780D01*
X717816Y534603D01*
X718034Y534424D01*
X718061Y534406D01*
X718087Y534386D01*
X718330Y534237D01*
X718569Y534087D01*
X718601Y534072D01*
X718627Y534056D01*
X718743Y534004D01*
X719043Y533861D01*
X719788Y533553D01*
X762153Y491188D01*
X764461Y485616D01*
X764461Y403384D01*
X762153Y397812D01*
X757888Y393547D01*
X756756Y393079D01*
X756503Y392954D01*
X756246Y392833D01*
X756218Y392815D01*
X756189Y392800D01*
X755953Y392645D01*
X755714Y392492D01*
X755688Y392471D01*
X755661Y392453D01*
X755446Y392268D01*
X755229Y392087D01*
X755206Y392063D01*
X755181Y392041D01*
X754991Y391830D01*
X754798Y391623D01*
X754779Y391597D01*
X754757Y391572D01*
X754594Y391339D01*
X754430Y391110D01*
X754415Y391081D01*
X754396Y391054D01*
X754264Y390802D01*
X754130Y390554D01*
X754118Y390523D01*
X754103Y390494D01*
X754004Y390229D01*
X753902Y389964D01*
X753894Y389932D01*
X753883Y389901D01*
X753818Y389625D01*
X753750Y389350D01*
X753746Y389318D01*
X753739Y389286D01*
X753710Y389003D01*
X753677Y388723D01*
X753677Y388690D01*
X753674Y388657D01*
X753681Y388371D01*
X753684Y388090D01*
X753688Y388058D01*
X753689Y388025D01*
X753732Y387745D01*
X753770Y387464D01*
X753779Y387433D01*
X753784Y387400D01*
X753861Y387127D01*
X753935Y386854D01*
X753948Y386824D01*
X753957Y386792D01*
X754068Y386531D01*
X754176Y386270D01*
X754192Y386241D01*
X754205Y386211D01*
X754348Y385967D01*
X754488Y385720D01*
X754508Y385694D01*
X754524Y385665D01*
X754697Y385441D01*
X754867Y385214D01*
X754890Y385191D01*
X754910Y385165D01*
X755110Y384963D01*
X755307Y384760D01*
X755333Y384740D01*
X755356Y384717D01*
X755579Y384543D01*
X755801Y384366D01*
X755829Y384349D01*
X755855Y384328D01*
X756098Y384184D01*
X756340Y384036D01*
X756370Y384023D01*
X756399Y384006D01*
X756659Y383894D01*
X756917Y383778D01*
X756949Y383768D01*
X756979Y383755D01*
X757250Y383677D01*
X757522Y383594D01*
X757555Y383589D01*
X757586Y383580D01*
X757865Y383536D01*
X758145Y383488D01*
X758182Y383486D01*
X758210Y383482D01*
X758336Y383478D01*
X758669Y383461D01*
X777716Y383461D01*
X783288Y381153D01*
X800353Y364088D01*
X802661Y358516D01*
X802661Y337193D01*
X802675Y336976D01*
X802680Y336758D01*
X802694Y336661D01*
X802701Y336562D01*
X802742Y336348D01*
X802774Y336133D01*
X802801Y336038D01*
X802820Y335941D01*
X802888Y335734D01*
X802947Y335525D01*
X802986Y335434D01*
X803017Y335341D01*
X803110Y335144D01*
X803195Y334944D01*
X803245Y334859D01*
X803287Y334770D01*
X803405Y334586D01*
X803515Y334398D01*
X803575Y334320D01*
X803628Y334237D01*
X803768Y334070D01*
X803901Y333898D01*
X803970Y333828D01*
X804033Y333752D01*
X804193Y333604D01*
X804347Y333450D01*
X804424Y333389D01*
X804497Y333322D01*
X804673Y333195D01*
X804845Y333061D01*
X804930Y333011D01*
X805010Y332954D01*
X805201Y332851D01*
X805389Y332739D01*
X805480Y332700D01*
X805566Y332653D01*
X805770Y332575D01*
X805969Y332488D01*
X806064Y332461D01*
X806156Y332425D01*
X806368Y332373D01*
X806577Y332313D01*
X806674Y332297D01*
X806770Y332274D01*
X806986Y332249D01*
X807201Y332215D01*
X807300Y332212D01*
X807397Y332201D01*
X807615Y332203D01*
X807833Y332197D01*
X807931Y332206D01*
X808030Y332207D01*
X808245Y332237D01*
X808462Y332259D01*
X808558Y332280D01*
X808656Y332294D01*
X808866Y332351D01*
X809078Y332399D01*
X809184Y332437D01*
X809266Y332459D01*
X809385Y332508D01*
X809573Y332574D01*
X809787Y332663D01*
X816013Y332663D01*
X816227Y332574D01*
X816433Y332504D01*
X816636Y332425D01*
X816732Y332402D01*
X816825Y332370D01*
X817039Y332326D01*
X817250Y332274D01*
X817347Y332262D01*
X817444Y332242D01*
X817661Y332226D01*
X817877Y332201D01*
X817976Y332202D01*
X818074Y332194D01*
X818292Y332205D01*
X818510Y332207D01*
X818607Y332221D01*
X818706Y332226D01*
X818920Y332264D01*
X819136Y332294D01*
X819231Y332320D01*
X819328Y332337D01*
X819536Y332402D01*
X819746Y332459D01*
X819837Y332496D01*
X819931Y332526D01*
X820129Y332616D01*
X820330Y332699D01*
X820416Y332748D01*
X820506Y332789D01*
X820690Y332904D01*
X820880Y333012D01*
X820959Y333071D01*
X821043Y333123D01*
X821211Y333260D01*
X821386Y333391D01*
X821457Y333459D01*
X821533Y333521D01*
X821683Y333679D01*
X821840Y333831D01*
X821901Y333908D01*
X821969Y333979D01*
X822098Y334154D01*
X822234Y334324D01*
X822286Y334408D01*
X822344Y334488D01*
X822450Y334678D01*
X822564Y334864D01*
X822604Y334954D01*
X822652Y335040D01*
X822733Y335242D01*
X822822Y335441D01*
X822851Y335535D01*
X822887Y335626D01*
X822943Y335837D01*
X823006Y336046D01*
X823022Y336143D01*
X823047Y336238D01*
X823075Y336454D01*
X823112Y336669D01*
X823118Y336781D01*
X823128Y336865D01*
X823129Y336994D01*
X823139Y337193D01*
X823139Y364347D01*
X825447Y369919D01*
X925581Y470053D01*
X931153Y472361D01*
X1337849Y472361D01*
X1337968Y472368D01*
X1338088Y472366D01*
X1338284Y472388D01*
X1338480Y472401D01*
X1338597Y472423D01*
X1338716Y472436D01*
X1338908Y472483D01*
X1339101Y472520D01*
X1339215Y472557D01*
X1339330Y472585D01*
X1339514Y472655D01*
X1339702Y472717D01*
X1339810Y472768D01*
X1339921Y472810D01*
X1340095Y472903D01*
X1340273Y472987D01*
X1340374Y473052D01*
X1340479Y473108D01*
X1340639Y473222D01*
X1340805Y473328D01*
X1340897Y473405D01*
X1340994Y473474D01*
X1341183Y473644D01*
X1341290Y473733D01*
X1341330Y473776D01*
X1341384Y473825D01*
X1342275Y474716D01*
X1342354Y474805D01*
X1342440Y474888D01*
X1342563Y475042D01*
X1342693Y475190D01*
X1342760Y475289D01*
X1342834Y475382D01*
X1342937Y475550D01*
X1343047Y475713D01*
X1343101Y475820D01*
X1343164Y475921D01*
X1343244Y476101D01*
X1343333Y476277D01*
X1343373Y476389D01*
X1343422Y476498D01*
X1343479Y476687D01*
X1343546Y476872D01*
X1343571Y476989D01*
X1343606Y477103D01*
X1343639Y477298D01*
X1343681Y477490D01*
X1343692Y477608D01*
X1343712Y477726D01*
X1343725Y477980D01*
X1343738Y478119D01*
X1343735Y478177D01*
X1343739Y478251D01*
X1343739Y498316D01*
X1346047Y503888D01*
X1363012Y520853D01*
X1368584Y523161D01*
X1374616Y523161D01*
X1375966Y522601D01*
X1376141Y522541D01*
X1376313Y522472D01*
X1376440Y522439D01*
X1376565Y522397D01*
X1376746Y522359D01*
X1376925Y522313D01*
X1377055Y522296D01*
X1377184Y522269D01*
X1377368Y522255D01*
X1377552Y522231D01*
X1377683Y522231D01*
X1377814Y522221D01*
X1377999Y522230D01*
X1378184Y522230D01*
X1378314Y522246D01*
X1378445Y522253D01*
X1378627Y522285D01*
X1378811Y522308D01*
X1378938Y522341D01*
X1379068Y522364D01*
X1379244Y522419D01*
X1379423Y522465D01*
X1379545Y522513D01*
X1379671Y522553D01*
X1379839Y522630D01*
X1380011Y522698D01*
X1380126Y522761D01*
X1380245Y522816D01*
X1380402Y522913D01*
X1380565Y523003D01*
X1380671Y523080D01*
X1380782Y523150D01*
X1380926Y523266D01*
X1381075Y523375D01*
X1381170Y523465D01*
X1381273Y523548D01*
X1381400Y523682D01*
X1381535Y523809D01*
X1381618Y523911D01*
X1381709Y524006D01*
X1381819Y524155D01*
X1381936Y524298D01*
X1382006Y524409D01*
X1382084Y524515D01*
X1382174Y524676D01*
X1382272Y524833D01*
X1382338Y524972D01*
X1382392Y525067D01*
X1382432Y525168D01*
X1382498Y525307D01*
X1384147Y529288D01*
X1413812Y558953D01*
X1415933Y559831D01*
X1416070Y559898D01*
X1416210Y559956D01*
X1416353Y560037D01*
X1416501Y560110D01*
X1416628Y560193D01*
X1416760Y560268D01*
X1416891Y560367D01*
X1417029Y560457D01*
X1417144Y560556D01*
X1417266Y560648D01*
X1417384Y560762D01*
X1417508Y560869D01*
X1417610Y560981D01*
X1417720Y561088D01*
X1417822Y561216D01*
X1417932Y561338D01*
X1418019Y561462D01*
X1418114Y561581D01*
X1418200Y561722D01*
X1418294Y561856D01*
X1418364Y561991D01*
X1418444Y562121D01*
X1418511Y562271D01*
X1418587Y562416D01*
X1418640Y562559D01*
X1418702Y562698D01*
X1418750Y562855D01*
X1418807Y563009D01*
X1418842Y563157D01*
X1418886Y563302D01*
X1418913Y563464D01*
X1418951Y563624D01*
X1418966Y563776D01*
X1418992Y563926D01*
X1419002Y564125D01*
X1419015Y564253D01*
X1419013Y564338D01*
X1419019Y564450D01*
X1419019Y580234D01*
X1419870Y582287D01*
X1419908Y582400D01*
X1419956Y582509D01*
X1420010Y582698D01*
X1420074Y582885D01*
X1420098Y583002D01*
X1420132Y583117D01*
X1420162Y583311D01*
X1420202Y583504D01*
X1420211Y583623D01*
X1420229Y583741D01*
X1420235Y583938D01*
X1420250Y584134D01*
X1420244Y584254D01*
X1420247Y584373D01*
X1420228Y584569D01*
X1420218Y584766D01*
X1420197Y584883D01*
X1420186Y585002D01*
X1420142Y585194D01*
X1420107Y585388D01*
X1420072Y585502D01*
X1420045Y585618D01*
X1419960Y585858D01*
X1419918Y585991D01*
X1419894Y586044D01*
X1419870Y586113D01*
X1419019Y588166D01*
X1419019Y588979D01*
X1419014Y589065D01*
X1419016Y589152D01*
X1418994Y589380D01*
X1418979Y589610D01*
X1418963Y589695D01*
X1418955Y589781D01*
X1418903Y590005D01*
X1418860Y590230D01*
X1418833Y590313D01*
X1418814Y590397D01*
X1418703Y590711D01*
X1418663Y590831D01*
X1418651Y590858D01*
X1418639Y590892D01*
X1417399Y593884D01*
X1417399Y599916D01*
X1418639Y602908D01*
X1418667Y602990D01*
X1418702Y603069D01*
X1418769Y603289D01*
X1418843Y603506D01*
X1418861Y603591D01*
X1418886Y603674D01*
X1418924Y603901D01*
X1418971Y604125D01*
X1418977Y604211D01*
X1418992Y604297D01*
X1419009Y604630D01*
X1419019Y604755D01*
X1419017Y604785D01*
X1419019Y604821D01*
X1419019Y605634D01*
X1419933Y607839D01*
X1421274Y609180D01*
X1421468Y609400D01*
X1421664Y609619D01*
X1421677Y609638D01*
X1421692Y609655D01*
X1421857Y609898D01*
X1422023Y610139D01*
X1422034Y610159D01*
X1422046Y610178D01*
X1422179Y610440D01*
X1422314Y610701D01*
X1422322Y610722D01*
X1422332Y610742D01*
X1422431Y611019D01*
X1422532Y611294D01*
X1422537Y611316D01*
X1422545Y611337D01*
X1422608Y611625D01*
X1422673Y611910D01*
X1422675Y611932D01*
X1422680Y611954D01*
X1422706Y612247D01*
X1422735Y612539D01*
X1422735Y612562D01*
X1422737Y612584D01*
X1422726Y612878D01*
X1422717Y613171D01*
X1422714Y613195D01*
X1422713Y613216D01*
X1422695Y613324D01*
X1422642Y613691D01*
X1422479Y614510D01*
X1422479Y617301D01*
X1432560Y617301D01*
X1442641Y617301D01*
X1442641Y617060D01*
X1442652Y616875D01*
X1442654Y616690D01*
X1442672Y616560D01*
X1442681Y616429D01*
X1442716Y616248D01*
X1442741Y616064D01*
X1442775Y615938D01*
X1442800Y615808D01*
X1442858Y615632D01*
X1442906Y615454D01*
X1442956Y615333D01*
X1442997Y615208D01*
X1443076Y615040D01*
X1443146Y614870D01*
X1443211Y614755D01*
X1443267Y614637D01*
X1443367Y614481D01*
X1443458Y614320D01*
X1443537Y614215D01*
X1443608Y614104D01*
X1443727Y613962D01*
X1443838Y613814D01*
X1443929Y613720D01*
X1444013Y613619D01*
X1444149Y613493D01*
X1444278Y613360D01*
X1444380Y613278D01*
X1444477Y613189D01*
X1444627Y613081D01*
X1444771Y612966D01*
X1444884Y612897D01*
X1444990Y612821D01*
X1445153Y612733D01*
X1445311Y612636D01*
X1445431Y612583D01*
X1445546Y612520D01*
X1445719Y612454D01*
X1445888Y612378D01*
X1446013Y612340D01*
X1446136Y612292D01*
X1446316Y612248D01*
X1446493Y612194D01*
X1446622Y612172D01*
X1446750Y612141D01*
X1446933Y612119D01*
X1447116Y612088D01*
X1447269Y612080D01*
X1447377Y612068D01*
X1447486Y612069D01*
X1447640Y612061D01*
X1450816Y612061D01*
X1456388Y609753D01*
X1473353Y592788D01*
X1475661Y587216D01*
X1475661Y403384D01*
X1473353Y397812D01*
X1453554Y378014D01*
X1453367Y377801D01*
X1453177Y377591D01*
X1453158Y377564D01*
X1453137Y377540D01*
X1452977Y377305D01*
X1452816Y377073D01*
X1452800Y377044D01*
X1452782Y377016D01*
X1452653Y376762D01*
X1452523Y376513D01*
X1452511Y376482D01*
X1452496Y376453D01*
X1452401Y376184D01*
X1452302Y375920D01*
X1452295Y375888D01*
X1452284Y375857D01*
X1452223Y375579D01*
X1452159Y375305D01*
X1452155Y375272D01*
X1452148Y375240D01*
X1452123Y374958D01*
X1452094Y374676D01*
X1452095Y374643D01*
X1452092Y374610D01*
X1452102Y374326D01*
X1452109Y374044D01*
X1452114Y374011D01*
X1452115Y373979D01*
X1452161Y373699D01*
X1452204Y373419D01*
X1452213Y373387D01*
X1452218Y373355D01*
X1452299Y373084D01*
X1452377Y372811D01*
X1452390Y372781D01*
X1452399Y372749D01*
X1452513Y372491D01*
X1452625Y372230D01*
X1452641Y372201D01*
X1452655Y372171D01*
X1452801Y371929D01*
X1452944Y371684D01*
X1452964Y371658D01*
X1452981Y371630D01*
X1453157Y371408D01*
X1453330Y371183D01*
X1453353Y371160D01*
X1453374Y371134D01*
X1453576Y370936D01*
X1453776Y370735D01*
X1453802Y370715D01*
X1453825Y370692D01*
X1454051Y370521D01*
X1454275Y370347D01*
X1454303Y370331D01*
X1454329Y370311D01*
X1454575Y370169D01*
X1454819Y370025D01*
X1454849Y370012D01*
X1454877Y369996D01*
X1455139Y369887D01*
X1455399Y369774D01*
X1455430Y369765D01*
X1455461Y369752D01*
X1455735Y369677D01*
X1456006Y369598D01*
X1456038Y369593D01*
X1456070Y369585D01*
X1456351Y369544D01*
X1456630Y369501D01*
X1456663Y369500D01*
X1456696Y369495D01*
X1456980Y369491D01*
X1457262Y369483D01*
X1457295Y369486D01*
X1457328Y369485D01*
X1457610Y369517D01*
X1457891Y369544D01*
X1457923Y369552D01*
X1457956Y369555D01*
X1458231Y369622D01*
X1458508Y369685D01*
X1458542Y369697D01*
X1458570Y369704D01*
X1458688Y369749D01*
X1458990Y369856D01*
X1465168Y369856D01*
X1470875Y367492D01*
X1475242Y363125D01*
X1477606Y357418D01*
X1477606Y351242D01*
X1475242Y345535D01*
X1470875Y341168D01*
X1465168Y338804D01*
X1458992Y338804D01*
X1453285Y341168D01*
X1450447Y344006D01*
X1450308Y344129D01*
X1450176Y344258D01*
X1450071Y344337D01*
X1449973Y344424D01*
X1449820Y344528D01*
X1449672Y344640D01*
X1449558Y344705D01*
X1449449Y344779D01*
X1449285Y344862D01*
X1449124Y344955D01*
X1449003Y345005D01*
X1448886Y345065D01*
X1448712Y345127D01*
X1448541Y345198D01*
X1448414Y345233D01*
X1448290Y345277D01*
X1448110Y345316D01*
X1447931Y345366D01*
X1447801Y345384D01*
X1447673Y345412D01*
X1447489Y345429D01*
X1447305Y345455D01*
X1447174Y345457D01*
X1447043Y345469D01*
X1446858Y345462D01*
X1446673Y345465D01*
X1446543Y345450D01*
X1446412Y345446D01*
X1446229Y345415D01*
X1446045Y345395D01*
X1445917Y345364D01*
X1445788Y345343D01*
X1445611Y345290D01*
X1445431Y345246D01*
X1445308Y345200D01*
X1445182Y345162D01*
X1445013Y345087D01*
X1444840Y345021D01*
X1444725Y344959D01*
X1444604Y344906D01*
X1444446Y344810D01*
X1444283Y344723D01*
X1444176Y344647D01*
X1444063Y344579D01*
X1443918Y344465D01*
X1443767Y344358D01*
X1443653Y344255D01*
X1443567Y344187D01*
X1443491Y344109D01*
X1443377Y344006D01*
X1426325Y326954D01*
X1426246Y326865D01*
X1426160Y326782D01*
X1426037Y326628D01*
X1425907Y326480D01*
X1425840Y326381D01*
X1425766Y326288D01*
X1425663Y326120D01*
X1425553Y325957D01*
X1425499Y325850D01*
X1425436Y325749D01*
X1425356Y325569D01*
X1425267Y325393D01*
X1425227Y325281D01*
X1425178Y325172D01*
X1425121Y324983D01*
X1425054Y324798D01*
X1425029Y324681D01*
X1424994Y324567D01*
X1424961Y324372D01*
X1424919Y324180D01*
X1424908Y324062D01*
X1424888Y323944D01*
X1424875Y323690D01*
X1424862Y323551D01*
X1424865Y323493D01*
X1424861Y323419D01*
X1424861Y123984D01*
X1422553Y118412D01*
X1417585Y113444D01*
X1322835Y18695D01*
X1322670Y18507D01*
X1322499Y18323D01*
X1322461Y18270D01*
X1322418Y18221D01*
X1322277Y18013D01*
X1322131Y17810D01*
X1322100Y17752D01*
X1322063Y17697D01*
X1321950Y17473D01*
X1321831Y17254D01*
X1321807Y17192D01*
X1321777Y17134D01*
X1321693Y16898D01*
X1321603Y16664D01*
X1321587Y16600D01*
X1321565Y16538D01*
X1321511Y16294D01*
X1321451Y16050D01*
X1321444Y15985D01*
X1321429Y15921D01*
X1321407Y15671D01*
X1321378Y15423D01*
X1321379Y15357D01*
X1321373Y15291D01*
X1321382Y15040D01*
X1321385Y14790D01*
X1321394Y14726D01*
X1321396Y14660D01*
X1321437Y14412D01*
X1321471Y14164D01*
X1321489Y14101D01*
X1321499Y14036D01*
X1321571Y13796D01*
X1321636Y13554D01*
X1321661Y13493D01*
X1321680Y13430D01*
X1321781Y13201D01*
X1321877Y12970D01*
X1321909Y12912D01*
X1321936Y12852D01*
X1322065Y12638D01*
X1322189Y12420D01*
X1322228Y12367D01*
X1322262Y12311D01*
X1322418Y12114D01*
X1322568Y11914D01*
X1322614Y11867D01*
X1322655Y11815D01*
X1322834Y11640D01*
X1323008Y11460D01*
X1323060Y11419D01*
X1323106Y11373D01*
X1323306Y11222D01*
X1323502Y11066D01*
X1323558Y11031D01*
X1323610Y10992D01*
X1323828Y10867D01*
X1324041Y10736D01*
X1324101Y10710D01*
X1324158Y10677D01*
X1324390Y10580D01*
X1324618Y10478D01*
X1324681Y10459D01*
X1324742Y10433D01*
X1324984Y10367D01*
X1325223Y10294D01*
X1325288Y10283D01*
X1325351Y10266D01*
X1325599Y10230D01*
X1325846Y10188D01*
X1325920Y10184D01*
X1325977Y10176D01*
X1326117Y10174D01*
X1326370Y10161D01*
X1444720Y10161D01*
X1444926Y10174D01*
G37*
G36*
X1298058Y38758D02*
X1298058Y38758D01*
X1298178Y38756D01*
X1298374Y38778D01*
X1298570Y38791D01*
X1298687Y38813D01*
X1298806Y38826D01*
X1298998Y38873D01*
X1299191Y38910D01*
X1299305Y38947D01*
X1299420Y38975D01*
X1299604Y39045D01*
X1299792Y39107D01*
X1299900Y39158D01*
X1300011Y39200D01*
X1300185Y39293D01*
X1300363Y39377D01*
X1300464Y39442D01*
X1300569Y39498D01*
X1300729Y39612D01*
X1300895Y39718D01*
X1300987Y39795D01*
X1301084Y39864D01*
X1301273Y40034D01*
X1301380Y40123D01*
X1301420Y40166D01*
X1301474Y40215D01*
X1393075Y131816D01*
X1393154Y131905D01*
X1393240Y131988D01*
X1393363Y132142D01*
X1393493Y132290D01*
X1393560Y132389D01*
X1393634Y132482D01*
X1393737Y132650D01*
X1393847Y132813D01*
X1393901Y132920D01*
X1393964Y133021D01*
X1394044Y133201D01*
X1394133Y133377D01*
X1394173Y133489D01*
X1394222Y133598D01*
X1394279Y133787D01*
X1394346Y133972D01*
X1394371Y134089D01*
X1394406Y134203D01*
X1394439Y134398D01*
X1394481Y134590D01*
X1394492Y134708D01*
X1394512Y134826D01*
X1394525Y135080D01*
X1394538Y135219D01*
X1394535Y135277D01*
X1394539Y135351D01*
X1394539Y334786D01*
X1394861Y335564D01*
X1394911Y335708D01*
X1394969Y335848D01*
X1395013Y336006D01*
X1395066Y336162D01*
X1395097Y336311D01*
X1395137Y336457D01*
X1395160Y336620D01*
X1395193Y336781D01*
X1395205Y336932D01*
X1395227Y337083D01*
X1395229Y337248D01*
X1395242Y337411D01*
X1395234Y337563D01*
X1395236Y337715D01*
X1395218Y337878D01*
X1395210Y338042D01*
X1395183Y338192D01*
X1395166Y338343D01*
X1395128Y338503D01*
X1395099Y338665D01*
X1395053Y338810D01*
X1395018Y338958D01*
X1394959Y339111D01*
X1394910Y339268D01*
X1394847Y339406D01*
X1394793Y339548D01*
X1394715Y339693D01*
X1394647Y339842D01*
X1394566Y339972D01*
X1394495Y340106D01*
X1394400Y340240D01*
X1394313Y340379D01*
X1394217Y340497D01*
X1394129Y340621D01*
X1393995Y340770D01*
X1393914Y340870D01*
X1393853Y340928D01*
X1393778Y341012D01*
X1389469Y345320D01*
X1389331Y345442D01*
X1389198Y345572D01*
X1389094Y345651D01*
X1388995Y345738D01*
X1388842Y345842D01*
X1388695Y345953D01*
X1388581Y346019D01*
X1388472Y346092D01*
X1388307Y346176D01*
X1388147Y346268D01*
X1388025Y346319D01*
X1387908Y346378D01*
X1387734Y346440D01*
X1387563Y346511D01*
X1387436Y346546D01*
X1387313Y346590D01*
X1387132Y346630D01*
X1386954Y346679D01*
X1386823Y346698D01*
X1386695Y346726D01*
X1386511Y346742D01*
X1386328Y346769D01*
X1386197Y346771D01*
X1386066Y346783D01*
X1385881Y346776D01*
X1385696Y346779D01*
X1385565Y346764D01*
X1385434Y346759D01*
X1385252Y346729D01*
X1385068Y346709D01*
X1384940Y346678D01*
X1384810Y346656D01*
X1384633Y346603D01*
X1384453Y346560D01*
X1384331Y346513D01*
X1384205Y346475D01*
X1384036Y346401D01*
X1383863Y346335D01*
X1383747Y346273D01*
X1383627Y346220D01*
X1383468Y346124D01*
X1383305Y346037D01*
X1383198Y345961D01*
X1383086Y345893D01*
X1382941Y345778D01*
X1382790Y345671D01*
X1382675Y345568D01*
X1382590Y345501D01*
X1382514Y345423D01*
X1382399Y345320D01*
X1379750Y342671D01*
X1374773Y340609D01*
X1369387Y340609D01*
X1364410Y342671D01*
X1361929Y345152D01*
X1361790Y345274D01*
X1361658Y345404D01*
X1361553Y345483D01*
X1361454Y345570D01*
X1361301Y345673D01*
X1361154Y345785D01*
X1361040Y345851D01*
X1360931Y345924D01*
X1360766Y346008D01*
X1360606Y346100D01*
X1360484Y346151D01*
X1360367Y346210D01*
X1360193Y346272D01*
X1360022Y346343D01*
X1359896Y346378D01*
X1359772Y346422D01*
X1359591Y346462D01*
X1359413Y346511D01*
X1359283Y346530D01*
X1359154Y346558D01*
X1358971Y346574D01*
X1358787Y346601D01*
X1358656Y346603D01*
X1358525Y346614D01*
X1358340Y346608D01*
X1358155Y346610D01*
X1358025Y346596D01*
X1357893Y346591D01*
X1357711Y346561D01*
X1357527Y346540D01*
X1357399Y346510D01*
X1357270Y346488D01*
X1357092Y346435D01*
X1356913Y346392D01*
X1356790Y346345D01*
X1356664Y346307D01*
X1356494Y346232D01*
X1356322Y346167D01*
X1356206Y346105D01*
X1356086Y346052D01*
X1355927Y345956D01*
X1355764Y345869D01*
X1355657Y345793D01*
X1355545Y345725D01*
X1355400Y345610D01*
X1355249Y345503D01*
X1355135Y345400D01*
X1355049Y345333D01*
X1354973Y345255D01*
X1354859Y345152D01*
X1350875Y341168D01*
X1345168Y338804D01*
X1338992Y338804D01*
X1333285Y341168D01*
X1328918Y345535D01*
X1326554Y351242D01*
X1326554Y357418D01*
X1327179Y358927D01*
X1327250Y359133D01*
X1327328Y359336D01*
X1327352Y359432D01*
X1327384Y359525D01*
X1327428Y359738D01*
X1327480Y359950D01*
X1327491Y360047D01*
X1327511Y360144D01*
X1327528Y360361D01*
X1327553Y360577D01*
X1327552Y360676D01*
X1327559Y360774D01*
X1327548Y360992D01*
X1327546Y361210D01*
X1327533Y361307D01*
X1327528Y361406D01*
X1327489Y361620D01*
X1327460Y361836D01*
X1327434Y361931D01*
X1327417Y362028D01*
X1327351Y362236D01*
X1327295Y362446D01*
X1327257Y362537D01*
X1327228Y362631D01*
X1327137Y362829D01*
X1327054Y363030D01*
X1327006Y363116D01*
X1326965Y363206D01*
X1326850Y363391D01*
X1326742Y363580D01*
X1326683Y363659D01*
X1326631Y363743D01*
X1326493Y363912D01*
X1326363Y364086D01*
X1326294Y364157D01*
X1326232Y364233D01*
X1326075Y364383D01*
X1325923Y364540D01*
X1325846Y364601D01*
X1325775Y364669D01*
X1325599Y364798D01*
X1325429Y364934D01*
X1325345Y364986D01*
X1325266Y365044D01*
X1325076Y365150D01*
X1324890Y365264D01*
X1324799Y365304D01*
X1324714Y365352D01*
X1324512Y365433D01*
X1324313Y365522D01*
X1324218Y365551D01*
X1324127Y365587D01*
X1323916Y365642D01*
X1323708Y365706D01*
X1323611Y365722D01*
X1323515Y365747D01*
X1323300Y365775D01*
X1323085Y365812D01*
X1322973Y365818D01*
X1322889Y365828D01*
X1322760Y365829D01*
X1322560Y365839D01*
X1312838Y365839D01*
X1312816Y365838D01*
X1312795Y365839D01*
X1312500Y365818D01*
X1312207Y365799D01*
X1312186Y365795D01*
X1312164Y365794D01*
X1311875Y365735D01*
X1311586Y365680D01*
X1311566Y365673D01*
X1311545Y365669D01*
X1311265Y365575D01*
X1310985Y365483D01*
X1310966Y365474D01*
X1310946Y365467D01*
X1310681Y365339D01*
X1310414Y365213D01*
X1310396Y365201D01*
X1310377Y365192D01*
X1310132Y365032D01*
X1309882Y364872D01*
X1309865Y364858D01*
X1309847Y364846D01*
X1309623Y364656D01*
X1309397Y364467D01*
X1309382Y364451D01*
X1309366Y364437D01*
X1309167Y364219D01*
X1308967Y364003D01*
X1308954Y363986D01*
X1308940Y363970D01*
X1308770Y363729D01*
X1308598Y363490D01*
X1308588Y363471D01*
X1308576Y363453D01*
X1308437Y363192D01*
X1308298Y362934D01*
X1308290Y362914D01*
X1308280Y362895D01*
X1308176Y362618D01*
X1308070Y362344D01*
X1308065Y362323D01*
X1308057Y362303D01*
X1307989Y362016D01*
X1307918Y361730D01*
X1307916Y361709D01*
X1307911Y361688D01*
X1307879Y361394D01*
X1307845Y361103D01*
X1307846Y361081D01*
X1307843Y361060D01*
X1307849Y360762D01*
X1307851Y360599D01*
X1299210Y360599D01*
X1299026Y360588D01*
X1298841Y360586D01*
X1298711Y360568D01*
X1298580Y360559D01*
X1298398Y360525D01*
X1298215Y360499D01*
X1298088Y360465D01*
X1297959Y360440D01*
X1297783Y360383D01*
X1297604Y360334D01*
X1297483Y360285D01*
X1297358Y360244D01*
X1297191Y360164D01*
X1297020Y360094D01*
X1296906Y360029D01*
X1296787Y359973D01*
X1296631Y359873D01*
X1296470Y359782D01*
X1296365Y359703D01*
X1296255Y359632D01*
X1296112Y359513D01*
X1295965Y359402D01*
X1295964Y359402D01*
X1295870Y359311D01*
X1295769Y359227D01*
X1295769Y359226D01*
X1295643Y359091D01*
X1295510Y358962D01*
X1295428Y358859D01*
X1295339Y358763D01*
X1295231Y358613D01*
X1295116Y358468D01*
X1295047Y358356D01*
X1294971Y358249D01*
X1294883Y358087D01*
X1294786Y357929D01*
X1294732Y357809D01*
X1294670Y357693D01*
X1294603Y357521D01*
X1294528Y357352D01*
X1294490Y357226D01*
X1294442Y357104D01*
X1294398Y356924D01*
X1294344Y356747D01*
X1294322Y356617D01*
X1294291Y356490D01*
X1294269Y356307D01*
X1294238Y356124D01*
X1294230Y355970D01*
X1294217Y355862D01*
X1294219Y355753D01*
X1294211Y355600D01*
X1294211Y347395D01*
X1294189Y347406D01*
X1293512Y347897D01*
X1293420Y347956D01*
X1293334Y348021D01*
X1293154Y348125D01*
X1292978Y348236D01*
X1292880Y348282D01*
X1292786Y348336D01*
X1292594Y348416D01*
X1292406Y348504D01*
X1292303Y348538D01*
X1292202Y348579D01*
X1292002Y348635D01*
X1291804Y348698D01*
X1291698Y348718D01*
X1291593Y348747D01*
X1291387Y348777D01*
X1291183Y348815D01*
X1291075Y348821D01*
X1290967Y348837D01*
X1290759Y348840D01*
X1290552Y348852D01*
X1290444Y348845D01*
X1290335Y348847D01*
X1290128Y348823D01*
X1289921Y348809D01*
X1289815Y348789D01*
X1289707Y348777D01*
X1289505Y348728D01*
X1289301Y348688D01*
X1289198Y348653D01*
X1289092Y348628D01*
X1288899Y348554D01*
X1288701Y348488D01*
X1288603Y348441D01*
X1288502Y348403D01*
X1288319Y348305D01*
X1288131Y348215D01*
X1288040Y348156D01*
X1287944Y348105D01*
X1287775Y347985D01*
X1287600Y347872D01*
X1287517Y347802D01*
X1287429Y347739D01*
X1287224Y347555D01*
X1287117Y347465D01*
X1287084Y347429D01*
X1287038Y347388D01*
X1282398Y342747D01*
X1276826Y340439D01*
X1270794Y340439D01*
X1265222Y342747D01*
X1260957Y347012D01*
X1258649Y352584D01*
X1258649Y375126D01*
X1260957Y380698D01*
X1274112Y393853D01*
X1279684Y396161D01*
X1400016Y396161D01*
X1405588Y393853D01*
X1412515Y386926D01*
X1412654Y386803D01*
X1412786Y386674D01*
X1412891Y386595D01*
X1412989Y386508D01*
X1413142Y386404D01*
X1413290Y386292D01*
X1413404Y386227D01*
X1413513Y386153D01*
X1413678Y386069D01*
X1413838Y385977D01*
X1413959Y385927D01*
X1414076Y385867D01*
X1414251Y385805D01*
X1414421Y385734D01*
X1414548Y385699D01*
X1414672Y385655D01*
X1414852Y385615D01*
X1415031Y385566D01*
X1415161Y385548D01*
X1415289Y385520D01*
X1415473Y385503D01*
X1415656Y385477D01*
X1415788Y385475D01*
X1415919Y385463D01*
X1416104Y385470D01*
X1416288Y385467D01*
X1416419Y385481D01*
X1416550Y385486D01*
X1416733Y385516D01*
X1416917Y385537D01*
X1417044Y385568D01*
X1417174Y385589D01*
X1417351Y385642D01*
X1417531Y385686D01*
X1417654Y385733D01*
X1417780Y385770D01*
X1417949Y385845D01*
X1418122Y385911D01*
X1418238Y385973D01*
X1418358Y386026D01*
X1418516Y386121D01*
X1418679Y386209D01*
X1418786Y386284D01*
X1418899Y386352D01*
X1419044Y386467D01*
X1419195Y386574D01*
X1419309Y386677D01*
X1419395Y386745D01*
X1419471Y386823D01*
X1419585Y386926D01*
X1443875Y411216D01*
X1443954Y411305D01*
X1444040Y411388D01*
X1444163Y411542D01*
X1444293Y411690D01*
X1444360Y411789D01*
X1444434Y411882D01*
X1444537Y412050D01*
X1444647Y412213D01*
X1444701Y412320D01*
X1444764Y412421D01*
X1444844Y412601D01*
X1444933Y412777D01*
X1444973Y412889D01*
X1445022Y412998D01*
X1445079Y413187D01*
X1445146Y413372D01*
X1445171Y413489D01*
X1445206Y413603D01*
X1445239Y413798D01*
X1445281Y413990D01*
X1445292Y414108D01*
X1445312Y414226D01*
X1445325Y414480D01*
X1445338Y414619D01*
X1445335Y414677D01*
X1445339Y414751D01*
X1445339Y451360D01*
X1445328Y451545D01*
X1445326Y451730D01*
X1445308Y451860D01*
X1445299Y451991D01*
X1445264Y452172D01*
X1445239Y452356D01*
X1445205Y452482D01*
X1445180Y452612D01*
X1445122Y452788D01*
X1445074Y452966D01*
X1445024Y453087D01*
X1444983Y453212D01*
X1444904Y453380D01*
X1444834Y453550D01*
X1444769Y453665D01*
X1444713Y453783D01*
X1444613Y453939D01*
X1444522Y454100D01*
X1444443Y454205D01*
X1444372Y454316D01*
X1444253Y454458D01*
X1444142Y454606D01*
X1444051Y454700D01*
X1443967Y454801D01*
X1443831Y454927D01*
X1443702Y455060D01*
X1443600Y455142D01*
X1443503Y455231D01*
X1443353Y455339D01*
X1443209Y455454D01*
X1443096Y455523D01*
X1442990Y455599D01*
X1442827Y455687D01*
X1442669Y455784D01*
X1442549Y455837D01*
X1442434Y455900D01*
X1442261Y455966D01*
X1442092Y456042D01*
X1441967Y456080D01*
X1441844Y456128D01*
X1441664Y456172D01*
X1441487Y456226D01*
X1441358Y456248D01*
X1441230Y456279D01*
X1441047Y456301D01*
X1440864Y456332D01*
X1440711Y456340D01*
X1440603Y456352D01*
X1440494Y456351D01*
X1440340Y456359D01*
X1423826Y456359D01*
X1421621Y457273D01*
X1420695Y458199D01*
X1420507Y458364D01*
X1420323Y458535D01*
X1420270Y458573D01*
X1420221Y458617D01*
X1420013Y458757D01*
X1419810Y458903D01*
X1419752Y458934D01*
X1419697Y458971D01*
X1419474Y459084D01*
X1419254Y459203D01*
X1419192Y459227D01*
X1419134Y459257D01*
X1418898Y459341D01*
X1418664Y459431D01*
X1418600Y459447D01*
X1418538Y459469D01*
X1418293Y459523D01*
X1418050Y459583D01*
X1417985Y459591D01*
X1417921Y459605D01*
X1417671Y459627D01*
X1417423Y459656D01*
X1417357Y459655D01*
X1417291Y459661D01*
X1417040Y459652D01*
X1416790Y459649D01*
X1416725Y459640D01*
X1416660Y459638D01*
X1416412Y459597D01*
X1416164Y459563D01*
X1416101Y459546D01*
X1416036Y459535D01*
X1415796Y459463D01*
X1415554Y459398D01*
X1415493Y459373D01*
X1415430Y459354D01*
X1415201Y459253D01*
X1414970Y459158D01*
X1414912Y459125D01*
X1414852Y459098D01*
X1414638Y458969D01*
X1414420Y458845D01*
X1414367Y458806D01*
X1414311Y458772D01*
X1414115Y458617D01*
X1413914Y458466D01*
X1413867Y458420D01*
X1413816Y458380D01*
X1413640Y458201D01*
X1413460Y458026D01*
X1413419Y457975D01*
X1413373Y457928D01*
X1413222Y457728D01*
X1413066Y457532D01*
X1413031Y457476D01*
X1412992Y457424D01*
X1412867Y457207D01*
X1412736Y456993D01*
X1412710Y456933D01*
X1412677Y456876D01*
X1412580Y456644D01*
X1412478Y456416D01*
X1412459Y456353D01*
X1412433Y456292D01*
X1412367Y456051D01*
X1412294Y455811D01*
X1412283Y455746D01*
X1412266Y455683D01*
X1412230Y455436D01*
X1412188Y455188D01*
X1412184Y455114D01*
X1412176Y455057D01*
X1412174Y454918D01*
X1412161Y454664D01*
X1412161Y454184D01*
X1409853Y448612D01*
X1380188Y418947D01*
X1374616Y416639D01*
X945630Y416639D01*
X945511Y416632D01*
X945392Y416634D01*
X945196Y416612D01*
X944999Y416599D01*
X944882Y416577D01*
X944763Y416564D01*
X944572Y416517D01*
X944378Y416480D01*
X944265Y416443D01*
X944149Y416415D01*
X943965Y416345D01*
X943778Y416283D01*
X943670Y416232D01*
X943558Y416190D01*
X943385Y416097D01*
X943207Y416013D01*
X943106Y415948D01*
X943001Y415892D01*
X942840Y415778D01*
X942674Y415672D01*
X942582Y415595D01*
X942485Y415526D01*
X942297Y415356D01*
X942189Y415267D01*
X942150Y415224D01*
X942095Y415175D01*
X878965Y352045D01*
X878886Y351955D01*
X878800Y351872D01*
X878677Y351718D01*
X878547Y351570D01*
X878480Y351472D01*
X878405Y351378D01*
X878303Y351210D01*
X878192Y351047D01*
X878138Y350941D01*
X878076Y350839D01*
X877996Y350659D01*
X877907Y350483D01*
X877866Y350371D01*
X877818Y350262D01*
X877760Y350073D01*
X877694Y349888D01*
X877669Y349772D01*
X877634Y349657D01*
X877601Y349463D01*
X877559Y349271D01*
X877548Y349152D01*
X877528Y349034D01*
X877515Y348780D01*
X877502Y348641D01*
X877504Y348583D01*
X877500Y348510D01*
X877500Y336630D01*
X877514Y336412D01*
X877519Y336195D01*
X877534Y336097D01*
X877540Y335999D01*
X877581Y335785D01*
X877614Y335570D01*
X877641Y335475D01*
X877660Y335378D01*
X877727Y335171D01*
X877787Y334962D01*
X877826Y334871D01*
X877856Y334777D01*
X877950Y334580D01*
X878035Y334380D01*
X878085Y334295D01*
X878127Y334206D01*
X878245Y334023D01*
X878355Y333835D01*
X878415Y333757D01*
X878468Y333674D01*
X878607Y333507D01*
X878740Y333334D01*
X878810Y333264D01*
X878873Y333189D01*
X879033Y333041D01*
X879186Y332886D01*
X879264Y332826D01*
X879336Y332759D01*
X879513Y332632D01*
X879685Y332498D01*
X879770Y332448D01*
X879850Y332390D01*
X880041Y332287D01*
X880229Y332176D01*
X880320Y332137D01*
X880406Y332090D01*
X880609Y332011D01*
X880809Y331925D01*
X880904Y331897D01*
X880996Y331862D01*
X881207Y331810D01*
X881416Y331749D01*
X881514Y331734D01*
X881609Y331710D01*
X881826Y331685D01*
X882041Y331651D01*
X882139Y331649D01*
X882237Y331637D01*
X882455Y331640D01*
X882673Y331633D01*
X882771Y331643D01*
X882869Y331644D01*
X883085Y331674D01*
X883302Y331695D01*
X883398Y331717D01*
X883495Y331731D01*
X883706Y331787D01*
X883918Y331836D01*
X884024Y331873D01*
X884106Y331895D01*
X884225Y331944D01*
X884413Y332011D01*
X885986Y332663D01*
X892214Y332663D01*
X897967Y330280D01*
X898265Y329981D01*
X898404Y329859D01*
X898536Y329730D01*
X898641Y329650D01*
X898739Y329564D01*
X898893Y329460D01*
X899040Y329348D01*
X899154Y329283D01*
X899263Y329209D01*
X899428Y329125D01*
X899588Y329033D01*
X899709Y328983D01*
X899826Y328923D01*
X900001Y328861D01*
X900171Y328790D01*
X900298Y328755D01*
X900422Y328711D01*
X900602Y328671D01*
X900781Y328622D01*
X900911Y328603D01*
X901039Y328575D01*
X901223Y328559D01*
X901407Y328533D01*
X901538Y328531D01*
X901669Y328519D01*
X901854Y328526D01*
X902039Y328523D01*
X902169Y328537D01*
X902300Y328542D01*
X902483Y328572D01*
X902667Y328593D01*
X902794Y328624D01*
X902924Y328645D01*
X903101Y328698D01*
X903281Y328742D01*
X903404Y328788D01*
X903530Y328826D01*
X903699Y328901D01*
X903872Y328967D01*
X903988Y329028D01*
X904108Y329082D01*
X904266Y329177D01*
X904429Y329264D01*
X904536Y329340D01*
X904649Y329408D01*
X904794Y329523D01*
X904945Y329630D01*
X905059Y329733D01*
X905145Y329801D01*
X905221Y329879D01*
X905335Y329981D01*
X905633Y330280D01*
X911386Y332663D01*
X917614Y332663D01*
X923367Y330280D01*
X923665Y329981D01*
X923804Y329859D01*
X923936Y329730D01*
X924041Y329650D01*
X924139Y329564D01*
X924293Y329460D01*
X924440Y329348D01*
X924554Y329283D01*
X924663Y329209D01*
X924828Y329125D01*
X924988Y329033D01*
X925109Y328983D01*
X925226Y328923D01*
X925401Y328861D01*
X925571Y328790D01*
X925698Y328755D01*
X925822Y328711D01*
X926002Y328671D01*
X926181Y328622D01*
X926311Y328603D01*
X926439Y328575D01*
X926623Y328559D01*
X926807Y328533D01*
X926938Y328531D01*
X927069Y328519D01*
X927254Y328526D01*
X927439Y328523D01*
X927569Y328537D01*
X927700Y328542D01*
X927883Y328572D01*
X928067Y328593D01*
X928194Y328624D01*
X928324Y328645D01*
X928501Y328698D01*
X928681Y328742D01*
X928804Y328788D01*
X928930Y328826D01*
X929099Y328901D01*
X929272Y328967D01*
X929388Y329028D01*
X929508Y329082D01*
X929666Y329177D01*
X929829Y329264D01*
X929936Y329340D01*
X930049Y329408D01*
X930194Y329523D01*
X930345Y329630D01*
X930459Y329733D01*
X930545Y329801D01*
X930621Y329879D01*
X930735Y329981D01*
X931033Y330280D01*
X936786Y332663D01*
X943014Y332663D01*
X948767Y330280D01*
X951657Y327389D01*
X951788Y327274D01*
X951912Y327152D01*
X952025Y327065D01*
X952132Y326971D01*
X952276Y326873D01*
X952414Y326768D01*
X952537Y326697D01*
X952655Y326617D01*
X952810Y326538D01*
X952961Y326451D01*
X953092Y326395D01*
X953219Y326331D01*
X953383Y326272D01*
X953543Y326205D01*
X953680Y326166D01*
X953814Y326119D01*
X953984Y326081D01*
X954152Y326034D01*
X954292Y326014D01*
X954431Y325983D01*
X954605Y325967D01*
X954777Y325942D01*
X954919Y325939D01*
X955061Y325927D01*
X955235Y325933D01*
X955409Y325930D01*
X955551Y325945D01*
X955693Y325950D01*
X955864Y325978D01*
X956038Y325997D01*
X956176Y326030D01*
X956316Y326053D01*
X956483Y326103D01*
X956653Y326143D01*
X956786Y326193D01*
X956922Y326234D01*
X957081Y326304D01*
X957244Y326365D01*
X957370Y326432D01*
X957500Y326489D01*
X957649Y326579D01*
X957803Y326661D01*
X957941Y326756D01*
X958041Y326816D01*
X958121Y326879D01*
X958236Y326958D01*
X958511Y327170D01*
X959896Y327969D01*
X960301Y328137D01*
X960301Y317010D01*
X960301Y305608D01*
X960213Y305607D01*
X960104Y305615D01*
X959897Y305603D01*
X959690Y305601D01*
X959582Y305586D01*
X959473Y305580D01*
X959269Y305543D01*
X959064Y305515D01*
X958959Y305486D01*
X958851Y305466D01*
X958653Y305404D01*
X958454Y305350D01*
X958353Y305308D01*
X958248Y305275D01*
X958061Y305188D01*
X957870Y305109D01*
X957774Y305055D01*
X957675Y305009D01*
X957500Y304899D01*
X957320Y304797D01*
X957232Y304731D01*
X957140Y304673D01*
X956980Y304542D01*
X956814Y304418D01*
X956736Y304342D01*
X956651Y304272D01*
X956509Y304122D01*
X956360Y303978D01*
X956292Y303892D01*
X956217Y303813D01*
X956095Y303646D01*
X955966Y303484D01*
X955909Y303391D01*
X955844Y303302D01*
X955744Y303121D01*
X955636Y302945D01*
X955592Y302845D01*
X955539Y302749D01*
X955462Y302557D01*
X955378Y302368D01*
X955346Y302263D01*
X955306Y302161D01*
X955254Y301961D01*
X955194Y301763D01*
X955176Y301655D01*
X955149Y301549D01*
X955123Y301344D01*
X955088Y301140D01*
X955082Y301014D01*
X955070Y300922D01*
X955070Y300799D01*
X955061Y300616D01*
X955061Y203761D01*
X955068Y203642D01*
X955066Y203522D01*
X955088Y203326D01*
X955101Y203130D01*
X955123Y203013D01*
X955136Y202894D01*
X955183Y202702D01*
X955220Y202509D01*
X955257Y202395D01*
X955285Y202280D01*
X955355Y202096D01*
X955417Y201908D01*
X955468Y201800D01*
X955510Y201689D01*
X955603Y201515D01*
X955687Y201337D01*
X955752Y201236D01*
X955808Y201131D01*
X955922Y200971D01*
X956028Y200805D01*
X956105Y200713D01*
X956174Y200616D01*
X956344Y200427D01*
X956433Y200320D01*
X956476Y200280D01*
X956525Y200226D01*
X967476Y189275D01*
X967565Y189196D01*
X967648Y189110D01*
X967802Y188987D01*
X967950Y188857D01*
X968049Y188790D01*
X968142Y188716D01*
X968310Y188613D01*
X968473Y188503D01*
X968580Y188449D01*
X968681Y188386D01*
X968861Y188306D01*
X969037Y188217D01*
X969149Y188177D01*
X969258Y188128D01*
X969447Y188071D01*
X969632Y188004D01*
X969749Y187979D01*
X969863Y187944D01*
X970058Y187911D01*
X970250Y187869D01*
X970368Y187858D01*
X970486Y187838D01*
X970740Y187825D01*
X970879Y187812D01*
X970937Y187815D01*
X971011Y187811D01*
X1049878Y187811D01*
X1055450Y185503D01*
X1071772Y169181D01*
X1071861Y169102D01*
X1071944Y169017D01*
X1072098Y168893D01*
X1072246Y168763D01*
X1072345Y168696D01*
X1072438Y168622D01*
X1072606Y168519D01*
X1072769Y168409D01*
X1072876Y168355D01*
X1072978Y168293D01*
X1073157Y168212D01*
X1073333Y168123D01*
X1073446Y168083D01*
X1073554Y168034D01*
X1073743Y167977D01*
X1073928Y167911D01*
X1074045Y167885D01*
X1074159Y167850D01*
X1074354Y167817D01*
X1074546Y167775D01*
X1074665Y167764D01*
X1074782Y167744D01*
X1075036Y167731D01*
X1075175Y167719D01*
X1075233Y167721D01*
X1075307Y167717D01*
X1106999Y167717D01*
X1107216Y167731D01*
X1107434Y167736D01*
X1107531Y167751D01*
X1107629Y167757D01*
X1107843Y167798D01*
X1108059Y167831D01*
X1108153Y167857D01*
X1108250Y167876D01*
X1108458Y167944D01*
X1108667Y168003D01*
X1108757Y168042D01*
X1108851Y168073D01*
X1109048Y168166D01*
X1109248Y168251D01*
X1109333Y168301D01*
X1109422Y168344D01*
X1109605Y168461D01*
X1109793Y168571D01*
X1109871Y168631D01*
X1109954Y168684D01*
X1110122Y168824D01*
X1110294Y168957D01*
X1110364Y169026D01*
X1110439Y169089D01*
X1110588Y169249D01*
X1110742Y169403D01*
X1110803Y169480D01*
X1110870Y169553D01*
X1110996Y169729D01*
X1111130Y169902D01*
X1111181Y169987D01*
X1111238Y170066D01*
X1111341Y170258D01*
X1111452Y170445D01*
X1111491Y170536D01*
X1111538Y170623D01*
X1111617Y170825D01*
X1111703Y171026D01*
X1111731Y171120D01*
X1111766Y171212D01*
X1111818Y171424D01*
X1111879Y171633D01*
X1111894Y171730D01*
X1111918Y171826D01*
X1111943Y172042D01*
X1111977Y172257D01*
X1111979Y172356D01*
X1111991Y172454D01*
X1111989Y172671D01*
X1111995Y172889D01*
X1111985Y172987D01*
X1111984Y173086D01*
X1111954Y173301D01*
X1111933Y173518D01*
X1111911Y173614D01*
X1111898Y173712D01*
X1111841Y173922D01*
X1111792Y174134D01*
X1111755Y174240D01*
X1111733Y174322D01*
X1111684Y174441D01*
X1111617Y174629D01*
X1111329Y175324D01*
X1111329Y181356D01*
X1113637Y186928D01*
X1114214Y187505D01*
X1114337Y187644D01*
X1114466Y187776D01*
X1114545Y187881D01*
X1114632Y187979D01*
X1114736Y188132D01*
X1114848Y188280D01*
X1114913Y188394D01*
X1114987Y188502D01*
X1115071Y188668D01*
X1115163Y188828D01*
X1115213Y188949D01*
X1115273Y189066D01*
X1115335Y189241D01*
X1115406Y189411D01*
X1115441Y189538D01*
X1115485Y189662D01*
X1115525Y189842D01*
X1115574Y190021D01*
X1115592Y190151D01*
X1115620Y190279D01*
X1115637Y190463D01*
X1115663Y190646D01*
X1115665Y190778D01*
X1115677Y190909D01*
X1115670Y191093D01*
X1115673Y191278D01*
X1115658Y191409D01*
X1115654Y191540D01*
X1115624Y191723D01*
X1115603Y191907D01*
X1115572Y192035D01*
X1115551Y192164D01*
X1115498Y192341D01*
X1115454Y192521D01*
X1115408Y192644D01*
X1115370Y192770D01*
X1115295Y192939D01*
X1115229Y193112D01*
X1115167Y193228D01*
X1115114Y193348D01*
X1115019Y193506D01*
X1114931Y193669D01*
X1114856Y193776D01*
X1114788Y193889D01*
X1114673Y194034D01*
X1114566Y194185D01*
X1114463Y194299D01*
X1114395Y194384D01*
X1114317Y194461D01*
X1114214Y194575D01*
X1109514Y199275D01*
X1109425Y199354D01*
X1109342Y199440D01*
X1109188Y199563D01*
X1109040Y199693D01*
X1108941Y199760D01*
X1108848Y199834D01*
X1108680Y199937D01*
X1108517Y200047D01*
X1108410Y200101D01*
X1108309Y200164D01*
X1108129Y200244D01*
X1107953Y200333D01*
X1107841Y200373D01*
X1107732Y200422D01*
X1107543Y200479D01*
X1107358Y200546D01*
X1107241Y200571D01*
X1107127Y200606D01*
X1106932Y200639D01*
X1106740Y200681D01*
X1106622Y200692D01*
X1106504Y200712D01*
X1106250Y200725D01*
X1106111Y200738D01*
X1106053Y200735D01*
X1105979Y200739D01*
X1063784Y200739D01*
X1058212Y203047D01*
X1053244Y208015D01*
X1046215Y215044D01*
X1041247Y220012D01*
X1038939Y225584D01*
X1038939Y258349D01*
X1038932Y258468D01*
X1038934Y258588D01*
X1038912Y258784D01*
X1038899Y258980D01*
X1038877Y259097D01*
X1038864Y259216D01*
X1038817Y259408D01*
X1038780Y259601D01*
X1038743Y259715D01*
X1038715Y259830D01*
X1038645Y260014D01*
X1038583Y260202D01*
X1038532Y260310D01*
X1038490Y260421D01*
X1038397Y260595D01*
X1038313Y260773D01*
X1038248Y260874D01*
X1038192Y260979D01*
X1038078Y261139D01*
X1037972Y261305D01*
X1037895Y261397D01*
X1037826Y261494D01*
X1037656Y261683D01*
X1037567Y261790D01*
X1037524Y261830D01*
X1037475Y261884D01*
X1036584Y262775D01*
X1036495Y262854D01*
X1036412Y262940D01*
X1036258Y263063D01*
X1036110Y263193D01*
X1036011Y263260D01*
X1035918Y263334D01*
X1035750Y263437D01*
X1035587Y263547D01*
X1035480Y263601D01*
X1035379Y263664D01*
X1035199Y263744D01*
X1035023Y263833D01*
X1034911Y263873D01*
X1034802Y263922D01*
X1034613Y263979D01*
X1034428Y264046D01*
X1034311Y264071D01*
X1034197Y264106D01*
X1034002Y264139D01*
X1033810Y264181D01*
X1033692Y264192D01*
X1033574Y264212D01*
X1033320Y264225D01*
X1033181Y264238D01*
X1033123Y264235D01*
X1033049Y264239D01*
X1000284Y264239D01*
X994712Y266547D01*
X990447Y270812D01*
X988139Y276384D01*
X988139Y282416D01*
X990447Y287988D01*
X995283Y292823D01*
X995448Y293011D01*
X995619Y293195D01*
X995657Y293248D01*
X995700Y293297D01*
X995841Y293505D01*
X995987Y293708D01*
X996018Y293766D01*
X996055Y293821D01*
X996168Y294044D01*
X996287Y294264D01*
X996311Y294326D01*
X996341Y294384D01*
X996425Y294620D01*
X996515Y294854D01*
X996531Y294918D01*
X996553Y294980D01*
X996607Y295224D01*
X996667Y295468D01*
X996674Y295533D01*
X996689Y295597D01*
X996711Y295847D01*
X996740Y296095D01*
X996739Y296161D01*
X996745Y296227D01*
X996736Y296478D01*
X996733Y296728D01*
X996724Y296792D01*
X996722Y296858D01*
X996681Y297106D01*
X996647Y297354D01*
X996629Y297417D01*
X996619Y297482D01*
X996547Y297722D01*
X996482Y297964D01*
X996457Y298025D01*
X996438Y298088D01*
X996337Y298317D01*
X996241Y298548D01*
X996209Y298606D01*
X996182Y298666D01*
X996053Y298880D01*
X995929Y299098D01*
X995890Y299151D01*
X995856Y299207D01*
X995700Y299403D01*
X995550Y299604D01*
X995504Y299651D01*
X995463Y299703D01*
X995284Y299878D01*
X995110Y300058D01*
X995058Y300099D01*
X995012Y300145D01*
X994812Y300295D01*
X994616Y300452D01*
X994560Y300487D01*
X994508Y300526D01*
X994291Y300651D01*
X994077Y300782D01*
X994017Y300809D01*
X993960Y300841D01*
X993729Y300938D01*
X993500Y301040D01*
X993437Y301059D01*
X993376Y301085D01*
X993134Y301151D01*
X992895Y301224D01*
X992830Y301235D01*
X992767Y301252D01*
X992519Y301288D01*
X992272Y301330D01*
X992198Y301334D01*
X992141Y301342D01*
X992002Y301344D01*
X991748Y301357D01*
X987586Y301357D01*
X981833Y303740D01*
X978943Y306631D01*
X978812Y306746D01*
X978688Y306868D01*
X978575Y306955D01*
X978468Y307049D01*
X978325Y307146D01*
X978186Y307252D01*
X978063Y307324D01*
X977945Y307403D01*
X977790Y307482D01*
X977639Y307569D01*
X977508Y307625D01*
X977381Y307689D01*
X977218Y307747D01*
X977057Y307815D01*
X976920Y307854D01*
X976786Y307901D01*
X976616Y307939D01*
X976448Y307986D01*
X976308Y308006D01*
X976169Y308037D01*
X975995Y308052D01*
X975823Y308078D01*
X975681Y308081D01*
X975539Y308093D01*
X975365Y308087D01*
X975191Y308090D01*
X975050Y308075D01*
X974907Y308070D01*
X974736Y308042D01*
X974563Y308023D01*
X974424Y307990D01*
X974284Y307967D01*
X974117Y307917D01*
X973948Y307877D01*
X973814Y307827D01*
X973678Y307786D01*
X973519Y307716D01*
X973356Y307655D01*
X973230Y307588D01*
X973100Y307531D01*
X972951Y307441D01*
X972797Y307359D01*
X972659Y307264D01*
X972559Y307204D01*
X972479Y307141D01*
X972364Y307062D01*
X972088Y306850D01*
X970704Y306051D01*
X970299Y305883D01*
X970299Y317010D01*
X970299Y328137D01*
X970704Y327969D01*
X972088Y327170D01*
X972364Y326958D01*
X972509Y326861D01*
X972648Y326756D01*
X972771Y326685D01*
X972889Y326606D01*
X973045Y326528D01*
X973196Y326441D01*
X973327Y326386D01*
X973454Y326322D01*
X973619Y326264D01*
X973779Y326198D01*
X973916Y326160D01*
X974051Y326113D01*
X974221Y326076D01*
X974389Y326030D01*
X974530Y326010D01*
X974669Y325980D01*
X974842Y325965D01*
X975014Y325940D01*
X975157Y325938D01*
X975298Y325926D01*
X975472Y325933D01*
X975646Y325931D01*
X975788Y325946D01*
X975930Y325952D01*
X976101Y325981D01*
X976274Y326001D01*
X976413Y326034D01*
X976553Y326058D01*
X976719Y326108D01*
X976889Y326149D01*
X977022Y326200D01*
X977158Y326241D01*
X977317Y326312D01*
X977479Y326374D01*
X977605Y326441D01*
X977735Y326499D01*
X977884Y326590D01*
X978037Y326672D01*
X978153Y326754D01*
X978275Y326828D01*
X978411Y326937D01*
X978553Y327038D01*
X978678Y327150D01*
X978768Y327223D01*
X978839Y327296D01*
X978943Y327389D01*
X981833Y330280D01*
X987586Y332663D01*
X993814Y332663D01*
X999567Y330280D01*
X1003970Y325877D01*
X1006353Y320124D01*
X1006353Y313896D01*
X1003970Y308143D01*
X998921Y303095D01*
X998756Y302907D01*
X998585Y302723D01*
X998547Y302670D01*
X998503Y302621D01*
X998363Y302413D01*
X998217Y302210D01*
X998186Y302152D01*
X998149Y302097D01*
X998036Y301874D01*
X997917Y301654D01*
X997893Y301592D01*
X997863Y301534D01*
X997779Y301298D01*
X997689Y301064D01*
X997673Y301000D01*
X997651Y300938D01*
X997597Y300694D01*
X997537Y300450D01*
X997529Y300385D01*
X997515Y300321D01*
X997493Y300071D01*
X997464Y299823D01*
X997465Y299757D01*
X997459Y299691D01*
X997468Y299440D01*
X997471Y299190D01*
X997480Y299126D01*
X997482Y299060D01*
X997523Y298812D01*
X997557Y298564D01*
X997574Y298501D01*
X997585Y298436D01*
X997657Y298196D01*
X997722Y297954D01*
X997747Y297893D01*
X997766Y297830D01*
X997867Y297601D01*
X997962Y297370D01*
X997995Y297312D01*
X998022Y297252D01*
X998151Y297038D01*
X998275Y296820D01*
X998314Y296767D01*
X998348Y296711D01*
X998504Y296515D01*
X998654Y296314D01*
X998700Y296267D01*
X998741Y296215D01*
X998919Y296040D01*
X999094Y295860D01*
X999145Y295819D01*
X999192Y295773D01*
X999391Y295623D01*
X999588Y295466D01*
X999644Y295431D01*
X999696Y295392D01*
X999913Y295267D01*
X1000127Y295136D01*
X1000187Y295109D01*
X1000244Y295077D01*
X1000475Y294980D01*
X1000704Y294878D01*
X1000767Y294859D01*
X1000828Y294833D01*
X1001069Y294767D01*
X1001309Y294694D01*
X1001374Y294683D01*
X1001437Y294666D01*
X1001685Y294630D01*
X1001932Y294588D01*
X1002006Y294584D01*
X1002063Y294576D01*
X1002202Y294574D01*
X1002456Y294561D01*
X1033049Y294561D01*
X1033168Y294568D01*
X1033288Y294566D01*
X1033484Y294588D01*
X1033680Y294601D01*
X1033797Y294623D01*
X1033916Y294636D01*
X1034108Y294683D01*
X1034301Y294720D01*
X1034415Y294757D01*
X1034530Y294785D01*
X1034714Y294855D01*
X1034902Y294917D01*
X1035010Y294968D01*
X1035121Y295010D01*
X1035295Y295103D01*
X1035473Y295187D01*
X1035574Y295252D01*
X1035679Y295308D01*
X1035839Y295422D01*
X1036005Y295528D01*
X1036097Y295605D01*
X1036194Y295674D01*
X1036383Y295844D01*
X1036490Y295933D01*
X1036530Y295976D01*
X1036584Y296025D01*
X1045512Y304953D01*
X1051084Y307261D01*
X1096549Y307261D01*
X1096668Y307268D01*
X1096788Y307266D01*
X1096984Y307288D01*
X1097180Y307301D01*
X1097297Y307323D01*
X1097416Y307336D01*
X1097608Y307383D01*
X1097801Y307420D01*
X1097915Y307457D01*
X1098030Y307485D01*
X1098214Y307555D01*
X1098402Y307617D01*
X1098510Y307668D01*
X1098621Y307710D01*
X1098795Y307803D01*
X1098973Y307887D01*
X1099074Y307952D01*
X1099179Y308008D01*
X1099339Y308122D01*
X1099505Y308228D01*
X1099597Y308305D01*
X1099694Y308374D01*
X1099883Y308544D01*
X1099990Y308633D01*
X1100030Y308676D01*
X1100084Y308725D01*
X1100975Y309616D01*
X1101054Y309705D01*
X1101140Y309788D01*
X1101263Y309942D01*
X1101393Y310090D01*
X1101460Y310189D01*
X1101534Y310282D01*
X1101637Y310450D01*
X1101747Y310613D01*
X1101801Y310720D01*
X1101864Y310821D01*
X1101944Y311001D01*
X1102033Y311177D01*
X1102073Y311289D01*
X1102122Y311398D01*
X1102179Y311587D01*
X1102246Y311772D01*
X1102271Y311889D01*
X1102306Y312003D01*
X1102339Y312198D01*
X1102381Y312390D01*
X1102392Y312508D01*
X1102412Y312626D01*
X1102425Y312880D01*
X1102438Y313019D01*
X1102435Y313077D01*
X1102439Y313151D01*
X1102439Y335949D01*
X1102425Y336167D01*
X1102420Y336385D01*
X1102406Y336482D01*
X1102399Y336580D01*
X1102358Y336794D01*
X1102326Y337009D01*
X1102299Y337104D01*
X1102280Y337201D01*
X1102212Y337408D01*
X1102153Y337617D01*
X1102114Y337708D01*
X1102083Y337802D01*
X1101990Y337999D01*
X1101905Y338199D01*
X1101855Y338284D01*
X1101813Y338373D01*
X1101695Y338557D01*
X1101585Y338744D01*
X1101525Y338822D01*
X1101472Y338905D01*
X1101332Y339072D01*
X1101199Y339245D01*
X1101130Y339315D01*
X1101067Y339390D01*
X1100907Y339539D01*
X1100753Y339693D01*
X1100676Y339753D01*
X1100603Y339821D01*
X1100427Y339947D01*
X1100255Y340081D01*
X1100170Y340131D01*
X1100090Y340189D01*
X1099898Y340292D01*
X1099711Y340403D01*
X1099620Y340442D01*
X1099534Y340489D01*
X1099330Y340568D01*
X1099131Y340654D01*
X1099036Y340682D01*
X1098944Y340717D01*
X1098733Y340769D01*
X1098523Y340830D01*
X1098426Y340845D01*
X1098330Y340869D01*
X1098114Y340894D01*
X1097899Y340928D01*
X1097801Y340930D01*
X1097703Y340942D01*
X1097485Y340939D01*
X1097267Y340946D01*
X1097169Y340936D01*
X1097070Y340935D01*
X1096855Y340905D01*
X1096638Y340884D01*
X1096542Y340862D01*
X1096444Y340849D01*
X1096234Y340792D01*
X1096022Y340743D01*
X1095916Y340706D01*
X1095834Y340684D01*
X1095715Y340635D01*
X1095527Y340568D01*
X1095216Y340439D01*
X1089184Y340439D01*
X1083612Y342747D01*
X1079347Y347012D01*
X1077039Y352584D01*
X1077039Y371316D01*
X1079347Y376888D01*
X1096312Y393853D01*
X1101884Y396161D01*
X1133316Y396161D01*
X1138888Y393853D01*
X1155853Y376888D01*
X1155876Y376832D01*
X1155972Y376636D01*
X1156060Y376437D01*
X1156111Y376353D01*
X1156154Y376264D01*
X1156274Y376083D01*
X1156386Y375896D01*
X1156448Y375819D01*
X1156502Y375737D01*
X1156643Y375571D01*
X1156779Y375401D01*
X1156849Y375332D01*
X1156913Y375257D01*
X1157075Y375111D01*
X1157230Y374958D01*
X1157309Y374899D01*
X1157382Y374833D01*
X1157561Y374708D01*
X1157734Y374577D01*
X1157820Y374528D01*
X1157901Y374471D01*
X1158094Y374370D01*
X1158282Y374262D01*
X1158373Y374224D01*
X1158461Y374178D01*
X1158665Y374102D01*
X1158866Y374019D01*
X1158961Y373992D01*
X1159053Y373958D01*
X1159265Y373909D01*
X1159475Y373851D01*
X1159573Y373837D01*
X1159669Y373814D01*
X1159885Y373792D01*
X1160101Y373761D01*
X1160200Y373760D01*
X1160298Y373750D01*
X1160515Y373755D01*
X1160733Y373751D01*
X1160831Y373762D01*
X1160929Y373765D01*
X1161144Y373797D01*
X1161361Y373821D01*
X1161457Y373845D01*
X1161554Y373859D01*
X1161764Y373919D01*
X1161976Y373970D01*
X1162068Y374005D01*
X1162162Y374032D01*
X1162363Y374118D01*
X1162566Y374195D01*
X1162653Y374242D01*
X1162744Y374280D01*
X1162932Y374391D01*
X1163124Y374493D01*
X1163204Y374550D01*
X1163289Y374600D01*
X1163462Y374733D01*
X1163639Y374859D01*
X1163723Y374934D01*
X1163790Y374986D01*
X1163881Y375077D01*
X1164030Y375210D01*
X1182672Y393853D01*
X1188244Y396161D01*
X1209516Y396161D01*
X1215088Y393853D01*
X1244753Y364188D01*
X1247061Y358616D01*
X1247061Y60484D01*
X1244753Y54912D01*
X1239785Y49944D01*
X1237126Y47285D01*
X1236960Y47097D01*
X1236789Y46913D01*
X1236751Y46860D01*
X1236708Y46811D01*
X1236567Y46603D01*
X1236421Y46400D01*
X1236390Y46342D01*
X1236353Y46287D01*
X1236240Y46064D01*
X1236121Y45844D01*
X1236097Y45782D01*
X1236067Y45724D01*
X1235983Y45488D01*
X1235893Y45254D01*
X1235877Y45190D01*
X1235855Y45128D01*
X1235801Y44884D01*
X1235741Y44640D01*
X1235734Y44575D01*
X1235719Y44511D01*
X1235697Y44261D01*
X1235668Y44013D01*
X1235669Y43947D01*
X1235663Y43881D01*
X1235672Y43630D01*
X1235675Y43380D01*
X1235684Y43315D01*
X1235686Y43250D01*
X1235727Y43002D01*
X1235761Y42754D01*
X1235779Y42691D01*
X1235789Y42626D01*
X1235861Y42386D01*
X1235926Y42144D01*
X1235951Y42083D01*
X1235970Y42020D01*
X1236072Y41791D01*
X1236167Y41560D01*
X1236199Y41502D01*
X1236226Y41442D01*
X1236355Y41228D01*
X1236479Y41010D01*
X1236518Y40957D01*
X1236552Y40901D01*
X1236708Y40705D01*
X1236858Y40504D01*
X1236904Y40457D01*
X1236945Y40406D01*
X1237124Y40230D01*
X1237298Y40050D01*
X1237349Y40009D01*
X1237396Y39963D01*
X1237596Y39812D01*
X1237792Y39656D01*
X1237848Y39621D01*
X1237900Y39582D01*
X1238117Y39457D01*
X1238331Y39326D01*
X1238391Y39299D01*
X1238448Y39267D01*
X1238680Y39170D01*
X1238908Y39068D01*
X1238971Y39049D01*
X1239032Y39023D01*
X1239273Y38957D01*
X1239513Y38884D01*
X1239578Y38873D01*
X1239641Y38856D01*
X1239889Y38820D01*
X1240136Y38778D01*
X1240210Y38774D01*
X1240267Y38766D01*
X1240406Y38764D01*
X1240660Y38751D01*
X1297939Y38751D01*
X1298058Y38758D01*
G37*
G36*
X496118Y71208D02*
X496118Y71208D01*
X496238Y71206D01*
X496434Y71228D01*
X496630Y71241D01*
X496747Y71263D01*
X496866Y71276D01*
X497058Y71323D01*
X497251Y71360D01*
X497365Y71397D01*
X497480Y71425D01*
X497664Y71495D01*
X497852Y71557D01*
X497960Y71608D01*
X498071Y71650D01*
X498245Y71743D01*
X498423Y71827D01*
X498524Y71892D01*
X498629Y71948D01*
X498789Y72062D01*
X498955Y72168D01*
X499047Y72245D01*
X499144Y72314D01*
X499333Y72484D01*
X499440Y72573D01*
X499480Y72616D01*
X499534Y72665D01*
X542175Y115306D01*
X542254Y115395D01*
X542340Y115478D01*
X542463Y115632D01*
X542593Y115780D01*
X542660Y115879D01*
X542734Y115972D01*
X542837Y116140D01*
X542947Y116303D01*
X543001Y116410D01*
X543064Y116511D01*
X543144Y116691D01*
X543233Y116867D01*
X543273Y116979D01*
X543322Y117088D01*
X543379Y117277D01*
X543446Y117462D01*
X543471Y117579D01*
X543506Y117693D01*
X543539Y117888D01*
X543581Y118080D01*
X543592Y118198D01*
X543612Y118316D01*
X543625Y118570D01*
X543638Y118709D01*
X543635Y118767D01*
X543639Y118841D01*
X543639Y179930D01*
X543623Y180179D01*
X543614Y180430D01*
X543603Y180495D01*
X543599Y180560D01*
X543552Y180806D01*
X543511Y181054D01*
X543492Y181116D01*
X543480Y181181D01*
X543402Y181420D01*
X543330Y181659D01*
X543304Y181719D01*
X543283Y181782D01*
X543176Y182009D01*
X543075Y182237D01*
X543041Y182293D01*
X543013Y182353D01*
X542877Y182565D01*
X542748Y182778D01*
X542707Y182830D01*
X542672Y182885D01*
X542511Y183078D01*
X542356Y183274D01*
X542309Y183320D01*
X542267Y183370D01*
X542083Y183541D01*
X541904Y183716D01*
X541852Y183756D01*
X541803Y183801D01*
X541600Y183946D01*
X541400Y184098D01*
X541343Y184131D01*
X541290Y184169D01*
X541070Y184288D01*
X540852Y184413D01*
X540791Y184438D01*
X540734Y184469D01*
X540500Y184559D01*
X540269Y184656D01*
X540205Y184673D01*
X540144Y184697D01*
X539901Y184757D01*
X539659Y184824D01*
X539594Y184833D01*
X539530Y184849D01*
X539282Y184878D01*
X539034Y184913D01*
X538968Y184914D01*
X538903Y184922D01*
X538653Y184919D01*
X538402Y184923D01*
X538336Y184916D01*
X538270Y184915D01*
X538023Y184881D01*
X537773Y184853D01*
X537709Y184838D01*
X537644Y184829D01*
X537403Y184763D01*
X537159Y184704D01*
X537097Y184681D01*
X537034Y184664D01*
X536803Y184569D01*
X536568Y184479D01*
X536510Y184448D01*
X536450Y184423D01*
X536231Y184299D01*
X536011Y184182D01*
X535957Y184144D01*
X535900Y184111D01*
X535699Y183961D01*
X535495Y183816D01*
X535441Y183767D01*
X535394Y183732D01*
X535294Y183634D01*
X535105Y183465D01*
X509128Y157487D01*
X503556Y155179D01*
X434724Y155179D01*
X434507Y155165D01*
X434289Y155160D01*
X434192Y155146D01*
X434093Y155139D01*
X433879Y155098D01*
X433664Y155066D01*
X433570Y155039D01*
X433473Y155020D01*
X433265Y154952D01*
X433056Y154893D01*
X432966Y154854D01*
X432872Y154823D01*
X432675Y154730D01*
X432475Y154645D01*
X432390Y154595D01*
X432301Y154553D01*
X432117Y154435D01*
X431929Y154325D01*
X431851Y154265D01*
X431768Y154212D01*
X431601Y154072D01*
X431429Y153939D01*
X431359Y153870D01*
X431283Y153807D01*
X431135Y153647D01*
X430981Y153493D01*
X430920Y153416D01*
X430853Y153343D01*
X430726Y153167D01*
X430592Y152995D01*
X430542Y152910D01*
X430485Y152830D01*
X430382Y152639D01*
X430270Y152451D01*
X430231Y152360D01*
X430184Y152274D01*
X430106Y152070D01*
X430019Y151871D01*
X429992Y151776D01*
X429956Y151684D01*
X429904Y151472D01*
X429844Y151263D01*
X429828Y151166D01*
X429805Y151070D01*
X429780Y150854D01*
X429746Y150639D01*
X429743Y150540D01*
X429732Y150443D01*
X429734Y150225D01*
X429728Y150007D01*
X429738Y149909D01*
X429739Y149810D01*
X429768Y149595D01*
X429790Y149378D01*
X429812Y149282D01*
X429825Y149184D01*
X429882Y148974D01*
X429930Y148762D01*
X429968Y148656D01*
X429990Y148574D01*
X430039Y148455D01*
X430105Y148267D01*
X430331Y147723D01*
X430331Y141457D01*
X427933Y135668D01*
X427290Y135025D01*
X427168Y134886D01*
X427038Y134754D01*
X426959Y134649D01*
X426872Y134551D01*
X426768Y134398D01*
X426657Y134250D01*
X426591Y134136D01*
X426517Y134028D01*
X426434Y133862D01*
X426342Y133702D01*
X426291Y133581D01*
X426232Y133464D01*
X426170Y133289D01*
X426098Y133119D01*
X426064Y132992D01*
X426019Y132868D01*
X425980Y132688D01*
X425931Y132509D01*
X425912Y132379D01*
X425884Y132251D01*
X425867Y132067D01*
X425841Y131884D01*
X425839Y131752D01*
X425827Y131621D01*
X425834Y131437D01*
X425831Y131252D01*
X425846Y131121D01*
X425851Y130990D01*
X425881Y130807D01*
X425901Y130623D01*
X425932Y130495D01*
X425954Y130366D01*
X426006Y130189D01*
X426050Y130009D01*
X426097Y129886D01*
X426134Y129760D01*
X426209Y129591D01*
X426275Y129418D01*
X426337Y129302D01*
X426390Y129182D01*
X426486Y129024D01*
X426573Y128861D01*
X426649Y128754D01*
X426717Y128641D01*
X426832Y128496D01*
X426939Y128345D01*
X427041Y128231D01*
X427109Y128146D01*
X427187Y128069D01*
X427290Y127955D01*
X427933Y127312D01*
X430331Y121523D01*
X430331Y115257D01*
X427933Y109468D01*
X423502Y105037D01*
X417713Y102639D01*
X411447Y102639D01*
X405658Y105037D01*
X401227Y109468D01*
X398829Y115257D01*
X398829Y121541D01*
X398864Y121643D01*
X398943Y121846D01*
X398966Y121942D01*
X398998Y122035D01*
X399042Y122248D01*
X399094Y122460D01*
X399106Y122557D01*
X399125Y122654D01*
X399142Y122871D01*
X399167Y123087D01*
X399166Y123186D01*
X399174Y123284D01*
X399163Y123502D01*
X399160Y123720D01*
X399147Y123817D01*
X399142Y123916D01*
X399104Y124130D01*
X399074Y124346D01*
X399048Y124441D01*
X399031Y124538D01*
X398966Y124746D01*
X398909Y124956D01*
X398872Y125047D01*
X398842Y125141D01*
X398752Y125339D01*
X398669Y125540D01*
X398620Y125626D01*
X398579Y125716D01*
X398464Y125900D01*
X398356Y126090D01*
X398297Y126169D01*
X398245Y126253D01*
X398108Y126421D01*
X397977Y126596D01*
X397909Y126667D01*
X397846Y126743D01*
X397689Y126893D01*
X397537Y127050D01*
X397460Y127111D01*
X397389Y127179D01*
X397214Y127308D01*
X397044Y127444D01*
X396960Y127496D01*
X396880Y127554D01*
X396690Y127660D01*
X396504Y127774D01*
X396414Y127814D01*
X396328Y127862D01*
X396126Y127943D01*
X395927Y128032D01*
X395833Y128061D01*
X395741Y128097D01*
X395531Y128153D01*
X395322Y128216D01*
X395225Y128232D01*
X395130Y128257D01*
X394914Y128285D01*
X394699Y128322D01*
X394587Y128328D01*
X394503Y128338D01*
X394374Y128339D01*
X394175Y128349D01*
X386874Y128349D01*
X381302Y130657D01*
X368147Y143812D01*
X365839Y149384D01*
X365839Y320516D01*
X368147Y326088D01*
X373115Y331056D01*
X418244Y376185D01*
X423212Y381153D01*
X428784Y383461D01*
X739931Y383461D01*
X740213Y383479D01*
X740496Y383493D01*
X740529Y383499D01*
X740561Y383501D01*
X740839Y383554D01*
X741118Y383604D01*
X741150Y383614D01*
X741182Y383620D01*
X741452Y383708D01*
X741722Y383793D01*
X741752Y383806D01*
X741783Y383817D01*
X742040Y383938D01*
X742296Y384056D01*
X742324Y384073D01*
X742354Y384087D01*
X742594Y384241D01*
X742833Y384390D01*
X742859Y384410D01*
X742886Y384428D01*
X743105Y384611D01*
X743324Y384789D01*
X743346Y384812D01*
X743371Y384833D01*
X743564Y385041D01*
X743760Y385246D01*
X743779Y385273D01*
X743802Y385297D01*
X743966Y385526D01*
X744135Y385755D01*
X744151Y385784D01*
X744170Y385810D01*
X744304Y386059D01*
X744442Y386307D01*
X744455Y386337D01*
X744470Y386366D01*
X744573Y386631D01*
X744678Y386894D01*
X744686Y386925D01*
X744698Y386956D01*
X744766Y387231D01*
X744838Y387505D01*
X744842Y387538D01*
X744850Y387570D01*
X744882Y387850D01*
X744919Y388132D01*
X744919Y388165D01*
X744923Y388197D01*
X744920Y388480D01*
X744921Y388764D01*
X744916Y388797D01*
X744916Y388830D01*
X744878Y389108D01*
X744842Y389391D01*
X744834Y389423D01*
X744830Y389456D01*
X744756Y389728D01*
X744685Y390004D01*
X744673Y390034D01*
X744665Y390066D01*
X744558Y390326D01*
X744453Y390591D01*
X744437Y390620D01*
X744424Y390650D01*
X744285Y390896D01*
X744148Y391145D01*
X744128Y391171D01*
X744112Y391200D01*
X743942Y391426D01*
X743775Y391656D01*
X743753Y391679D01*
X743733Y391706D01*
X743536Y391909D01*
X743341Y392115D01*
X743316Y392136D01*
X743293Y392160D01*
X743072Y392336D01*
X742853Y392516D01*
X742825Y392534D01*
X742799Y392554D01*
X742557Y392702D01*
X742317Y392853D01*
X742285Y392868D01*
X742260Y392884D01*
X742144Y392936D01*
X741844Y393079D01*
X740712Y393547D01*
X736447Y397812D01*
X734139Y403384D01*
X734139Y474249D01*
X734132Y474368D01*
X734134Y474488D01*
X734112Y474684D01*
X734099Y474880D01*
X734077Y474997D01*
X734064Y475116D01*
X734017Y475308D01*
X733980Y475501D01*
X733943Y475615D01*
X733915Y475730D01*
X733845Y475914D01*
X733783Y476102D01*
X733732Y476210D01*
X733690Y476321D01*
X733597Y476495D01*
X733513Y476673D01*
X733448Y476774D01*
X733392Y476879D01*
X733278Y477039D01*
X733172Y477205D01*
X733095Y477297D01*
X733026Y477394D01*
X732856Y477583D01*
X732767Y477690D01*
X732724Y477730D01*
X732675Y477784D01*
X706384Y504075D01*
X706295Y504154D01*
X706212Y504240D01*
X706058Y504363D01*
X705910Y504493D01*
X705811Y504560D01*
X705718Y504634D01*
X705550Y504737D01*
X705387Y504847D01*
X705280Y504901D01*
X705179Y504964D01*
X704999Y505044D01*
X704823Y505133D01*
X704711Y505173D01*
X704602Y505222D01*
X704413Y505279D01*
X704228Y505346D01*
X704111Y505371D01*
X703997Y505406D01*
X703802Y505439D01*
X703610Y505481D01*
X703492Y505492D01*
X703374Y505512D01*
X703120Y505525D01*
X702981Y505538D01*
X702923Y505535D01*
X702849Y505539D01*
X527596Y505539D01*
X527314Y505521D01*
X527030Y505507D01*
X526997Y505501D01*
X526965Y505499D01*
X526687Y505446D01*
X526408Y505396D01*
X526376Y505386D01*
X526344Y505380D01*
X526074Y505292D01*
X525805Y505207D01*
X525775Y505194D01*
X525743Y505183D01*
X525487Y505062D01*
X525230Y504944D01*
X525202Y504927D01*
X525172Y504913D01*
X524933Y504759D01*
X524693Y504610D01*
X524668Y504590D01*
X524640Y504572D01*
X524422Y504389D01*
X524203Y504211D01*
X524180Y504188D01*
X524155Y504167D01*
X523962Y503960D01*
X523767Y503754D01*
X523747Y503727D01*
X523725Y503703D01*
X523561Y503475D01*
X523392Y503245D01*
X523375Y503216D01*
X523356Y503190D01*
X523222Y502941D01*
X523084Y502693D01*
X523072Y502663D01*
X523056Y502634D01*
X522954Y502369D01*
X522848Y502106D01*
X522840Y502075D01*
X522828Y502044D01*
X522760Y501769D01*
X522689Y501495D01*
X522684Y501462D01*
X522676Y501430D01*
X522644Y501150D01*
X522607Y500868D01*
X522607Y500835D01*
X522603Y500803D01*
X522606Y500520D01*
X522606Y500236D01*
X522610Y500203D01*
X522610Y500170D01*
X522649Y499891D01*
X522684Y499609D01*
X522692Y499577D01*
X522697Y499544D01*
X522770Y499272D01*
X522841Y498996D01*
X522853Y498966D01*
X522861Y498934D01*
X522969Y498673D01*
X523074Y498409D01*
X523089Y498380D01*
X523102Y498350D01*
X523242Y498104D01*
X523379Y497855D01*
X523398Y497829D01*
X523414Y497800D01*
X523584Y497574D01*
X523751Y497344D01*
X523774Y497321D01*
X523793Y497294D01*
X523991Y497091D01*
X524185Y496885D01*
X524210Y496864D01*
X524233Y496840D01*
X524454Y496664D01*
X524674Y496484D01*
X524701Y496466D01*
X524727Y496446D01*
X524970Y496298D01*
X525209Y496147D01*
X525241Y496132D01*
X525267Y496116D01*
X525383Y496064D01*
X525683Y495921D01*
X528087Y494925D01*
X531755Y491257D01*
X533741Y486464D01*
X533741Y481276D01*
X531755Y476483D01*
X528087Y472815D01*
X523294Y470829D01*
X518106Y470829D01*
X513313Y472815D01*
X511535Y474593D01*
X511396Y474715D01*
X511264Y474844D01*
X511159Y474924D01*
X511061Y475010D01*
X510907Y475114D01*
X510760Y475226D01*
X510646Y475291D01*
X510537Y475365D01*
X510372Y475449D01*
X510212Y475541D01*
X510091Y475591D01*
X509974Y475651D01*
X509799Y475713D01*
X509629Y475784D01*
X509502Y475819D01*
X509378Y475863D01*
X509198Y475903D01*
X509019Y475952D01*
X508889Y475970D01*
X508761Y475999D01*
X508577Y476015D01*
X508394Y476041D01*
X508262Y476043D01*
X508131Y476055D01*
X507946Y476048D01*
X507761Y476051D01*
X507631Y476037D01*
X507500Y476032D01*
X507317Y476002D01*
X507133Y475981D01*
X507005Y475950D01*
X506876Y475929D01*
X506699Y475876D01*
X506519Y475832D01*
X506396Y475786D01*
X506270Y475748D01*
X506101Y475673D01*
X505928Y475607D01*
X505812Y475545D01*
X505692Y475492D01*
X505534Y475397D01*
X505371Y475310D01*
X505264Y475234D01*
X505151Y475166D01*
X505006Y475051D01*
X504855Y474944D01*
X504741Y474841D01*
X504655Y474773D01*
X504579Y474695D01*
X504465Y474593D01*
X502687Y472815D01*
X497894Y470829D01*
X492706Y470829D01*
X487913Y472815D01*
X483688Y477039D01*
X483550Y477161D01*
X483417Y477291D01*
X483313Y477370D01*
X483214Y477457D01*
X483061Y477561D01*
X482913Y477672D01*
X482800Y477738D01*
X482691Y477812D01*
X482526Y477895D01*
X482365Y477987D01*
X482244Y478038D01*
X482127Y478097D01*
X481953Y478160D01*
X481782Y478231D01*
X481655Y478266D01*
X481532Y478310D01*
X481351Y478349D01*
X481173Y478398D01*
X481043Y478417D01*
X480914Y478445D01*
X480730Y478462D01*
X480547Y478488D01*
X480415Y478490D01*
X480285Y478502D01*
X480100Y478495D01*
X479915Y478498D01*
X479784Y478483D01*
X479653Y478478D01*
X479470Y478448D01*
X479287Y478428D01*
X479159Y478397D01*
X479029Y478375D01*
X478852Y478323D01*
X478672Y478279D01*
X478549Y478232D01*
X478424Y478195D01*
X478255Y478120D01*
X478082Y478054D01*
X477966Y477992D01*
X477846Y477939D01*
X477687Y477843D01*
X477524Y477756D01*
X477417Y477680D01*
X477304Y477612D01*
X477159Y477497D01*
X477009Y477390D01*
X476894Y477288D01*
X476809Y477220D01*
X476733Y477142D01*
X476618Y477039D01*
X476141Y476562D01*
X474922Y475676D01*
X474899Y475665D01*
X474899Y482030D01*
X474896Y482083D01*
X474898Y482136D01*
X474876Y482399D01*
X474859Y482660D01*
X474849Y482713D01*
X474845Y482766D01*
X474790Y483023D01*
X474740Y483281D01*
X474724Y483332D01*
X474712Y483384D01*
X474625Y483632D01*
X474544Y483882D01*
X474521Y483930D01*
X474503Y483980D01*
X474386Y484215D01*
X474273Y484453D01*
X474244Y484498D01*
X474220Y484546D01*
X474074Y484763D01*
X473932Y484985D01*
X473898Y485027D01*
X473868Y485071D01*
X473696Y485268D01*
X473527Y485471D01*
X473488Y485507D01*
X473453Y485547D01*
X473256Y485722D01*
X473064Y485901D01*
X473020Y485932D01*
X472980Y485967D01*
X472763Y486116D01*
X472550Y486269D01*
X472503Y486294D01*
X472459Y486324D01*
X472225Y486445D01*
X471994Y486569D01*
X471944Y486589D01*
X471896Y486613D01*
X471650Y486702D01*
X471404Y486797D01*
X471352Y486810D01*
X471302Y486828D01*
X471045Y486886D01*
X470791Y486949D01*
X470738Y486955D01*
X470685Y486967D01*
X470423Y486992D01*
X470163Y487022D01*
X470109Y487021D01*
X470056Y487026D01*
X469793Y487018D01*
X469531Y487015D01*
X469478Y487008D01*
X469424Y487006D01*
X469165Y486965D01*
X468904Y486929D01*
X468853Y486915D01*
X468800Y486906D01*
X468548Y486832D01*
X468294Y486764D01*
X468245Y486744D01*
X468194Y486729D01*
X467952Y486623D01*
X467710Y486523D01*
X467663Y486497D01*
X467614Y486476D01*
X467389Y486341D01*
X467160Y486211D01*
X467117Y486179D01*
X467072Y486152D01*
X466865Y485990D01*
X466654Y485832D01*
X466616Y485795D01*
X466574Y485762D01*
X466201Y485393D01*
X466201Y485392D01*
X466200Y485392D01*
X466017Y485163D01*
X465806Y484899D01*
X465806Y484898D01*
X465612Y484581D01*
X465477Y484359D01*
X465476Y484359D01*
X465476Y484358D01*
X465299Y483962D01*
X465218Y483782D01*
X465101Y483397D01*
X465034Y483177D01*
X464950Y482684D01*
X464928Y482554D01*
X464901Y482029D01*
X464901Y475665D01*
X464879Y475676D01*
X464202Y476167D01*
X464110Y476226D01*
X464024Y476291D01*
X463844Y476395D01*
X463668Y476506D01*
X463570Y476552D01*
X463476Y476606D01*
X463284Y476686D01*
X463096Y476774D01*
X462992Y476808D01*
X462892Y476849D01*
X462692Y476905D01*
X462494Y476968D01*
X462388Y476988D01*
X462283Y477017D01*
X462077Y477047D01*
X461873Y477085D01*
X461765Y477091D01*
X461657Y477107D01*
X461449Y477110D01*
X461242Y477122D01*
X461134Y477115D01*
X461025Y477117D01*
X460819Y477094D01*
X460612Y477080D01*
X460505Y477059D01*
X460397Y477047D01*
X460195Y476998D01*
X459991Y476958D01*
X459888Y476923D01*
X459782Y476898D01*
X459588Y476824D01*
X459391Y476758D01*
X459293Y476711D01*
X459192Y476673D01*
X459009Y476575D01*
X458821Y476485D01*
X458730Y476426D01*
X458634Y476375D01*
X458465Y476255D01*
X458291Y476142D01*
X458207Y476072D01*
X458119Y476009D01*
X457914Y475825D01*
X457807Y475735D01*
X457774Y475699D01*
X457728Y475658D01*
X453088Y471017D01*
X447516Y468709D01*
X441484Y468709D01*
X435912Y471017D01*
X433836Y473094D01*
X433697Y473216D01*
X433565Y473345D01*
X433460Y473425D01*
X433362Y473511D01*
X433208Y473615D01*
X433061Y473727D01*
X432947Y473792D01*
X432838Y473866D01*
X432673Y473950D01*
X432513Y474042D01*
X432392Y474092D01*
X432275Y474152D01*
X432100Y474214D01*
X431930Y474285D01*
X431803Y474320D01*
X431679Y474364D01*
X431499Y474404D01*
X431320Y474453D01*
X431190Y474471D01*
X431062Y474500D01*
X430878Y474516D01*
X430694Y474542D01*
X430563Y474544D01*
X430432Y474556D01*
X430247Y474549D01*
X430062Y474552D01*
X429932Y474538D01*
X429801Y474533D01*
X429618Y474503D01*
X429434Y474482D01*
X429307Y474451D01*
X429177Y474430D01*
X429000Y474377D01*
X428820Y474333D01*
X428697Y474287D01*
X428571Y474249D01*
X428402Y474174D01*
X428229Y474108D01*
X428113Y474046D01*
X427993Y473993D01*
X427835Y473898D01*
X427672Y473811D01*
X427565Y473735D01*
X427452Y473667D01*
X427307Y473552D01*
X427156Y473445D01*
X427042Y473342D01*
X426956Y473274D01*
X426880Y473196D01*
X426766Y473093D01*
X426487Y472815D01*
X421694Y470829D01*
X416506Y470829D01*
X415773Y471133D01*
X415567Y471203D01*
X415364Y471282D01*
X415268Y471305D01*
X415175Y471337D01*
X414961Y471381D01*
X414750Y471433D01*
X414653Y471445D01*
X414556Y471465D01*
X414339Y471481D01*
X414123Y471507D01*
X414024Y471505D01*
X413926Y471513D01*
X413708Y471502D01*
X413490Y471500D01*
X413393Y471486D01*
X413294Y471481D01*
X413080Y471443D01*
X412864Y471413D01*
X412769Y471388D01*
X412672Y471370D01*
X412464Y471305D01*
X412254Y471248D01*
X412163Y471211D01*
X412069Y471182D01*
X411871Y471091D01*
X411670Y471008D01*
X411584Y470959D01*
X411494Y470918D01*
X411310Y470803D01*
X411120Y470696D01*
X411041Y470636D01*
X410957Y470585D01*
X410789Y470447D01*
X410614Y470316D01*
X410543Y470248D01*
X410467Y470186D01*
X410317Y470028D01*
X410160Y469877D01*
X410099Y469800D01*
X410031Y469728D01*
X409902Y469553D01*
X409766Y469383D01*
X409714Y469299D01*
X409656Y469219D01*
X409550Y469029D01*
X409436Y468843D01*
X409396Y468753D01*
X409348Y468667D01*
X409267Y468465D01*
X409178Y468266D01*
X409149Y468172D01*
X409113Y468081D01*
X409057Y467870D01*
X408994Y467662D01*
X408978Y467565D01*
X408953Y467469D01*
X408925Y467253D01*
X408888Y467038D01*
X408882Y466926D01*
X408872Y466842D01*
X408871Y466713D01*
X408861Y466514D01*
X408861Y441484D01*
X406553Y435912D01*
X389588Y418947D01*
X384016Y416639D01*
X338551Y416639D01*
X338432Y416632D01*
X338312Y416634D01*
X338116Y416612D01*
X337920Y416599D01*
X337803Y416577D01*
X337684Y416564D01*
X337492Y416517D01*
X337299Y416480D01*
X337185Y416443D01*
X337070Y416415D01*
X336886Y416345D01*
X336698Y416283D01*
X336590Y416232D01*
X336479Y416190D01*
X336305Y416097D01*
X336127Y416013D01*
X336026Y415948D01*
X335921Y415892D01*
X335761Y415778D01*
X335595Y415672D01*
X335503Y415595D01*
X335406Y415526D01*
X335217Y415356D01*
X335110Y415267D01*
X335070Y415224D01*
X335016Y415175D01*
X329776Y409935D01*
X329653Y409796D01*
X329524Y409664D01*
X329444Y409559D01*
X329358Y409461D01*
X329254Y409308D01*
X329142Y409160D01*
X329077Y409046D01*
X329003Y408937D01*
X328919Y408772D01*
X328827Y408612D01*
X328777Y408491D01*
X328717Y408374D01*
X328655Y408199D01*
X328584Y408029D01*
X328549Y407902D01*
X328505Y407778D01*
X328465Y407597D01*
X328416Y407419D01*
X328398Y407289D01*
X328370Y407161D01*
X328353Y406977D01*
X328327Y406793D01*
X328325Y406662D01*
X328313Y406531D01*
X328320Y406346D01*
X328317Y406161D01*
X328332Y406031D01*
X328336Y405900D01*
X328366Y405717D01*
X328387Y405533D01*
X328418Y405406D01*
X328439Y405276D01*
X328492Y405099D01*
X328536Y404919D01*
X328583Y404796D01*
X328620Y404670D01*
X328695Y404501D01*
X328761Y404328D01*
X328823Y404212D01*
X328876Y404092D01*
X328971Y403934D01*
X329059Y403771D01*
X329134Y403664D01*
X329202Y403551D01*
X329317Y403406D01*
X329424Y403255D01*
X329527Y403141D01*
X329595Y403055D01*
X329673Y402979D01*
X329776Y402865D01*
X330465Y402176D01*
X330465Y402175D01*
X335433Y397208D01*
X337741Y391636D01*
X337741Y127160D01*
X337748Y127041D01*
X337746Y126922D01*
X337768Y126726D01*
X337781Y126529D01*
X337803Y126412D01*
X337816Y126293D01*
X337863Y126102D01*
X337900Y125908D01*
X337937Y125795D01*
X337965Y125679D01*
X338035Y125495D01*
X338097Y125308D01*
X338148Y125200D01*
X338190Y125088D01*
X338283Y124915D01*
X338367Y124737D01*
X338432Y124636D01*
X338488Y124531D01*
X338602Y124370D01*
X338708Y124204D01*
X338785Y124112D01*
X338854Y124015D01*
X339024Y123827D01*
X339113Y123719D01*
X339156Y123680D01*
X339205Y123625D01*
X390165Y72665D01*
X390254Y72586D01*
X390338Y72500D01*
X390492Y72377D01*
X390639Y72247D01*
X390738Y72180D01*
X390831Y72106D01*
X390999Y72003D01*
X391163Y71893D01*
X391269Y71839D01*
X391371Y71776D01*
X391551Y71696D01*
X391726Y71607D01*
X391839Y71567D01*
X391948Y71518D01*
X392136Y71461D01*
X392322Y71394D01*
X392438Y71369D01*
X392553Y71334D01*
X392747Y71301D01*
X392939Y71259D01*
X393058Y71248D01*
X393176Y71228D01*
X393429Y71215D01*
X393569Y71202D01*
X393627Y71205D01*
X393700Y71201D01*
X495999Y71201D01*
X496118Y71208D01*
G37*
G36*
X296568Y421568D02*
X296568Y421568D01*
X296688Y421566D01*
X296884Y421588D01*
X297080Y421601D01*
X297197Y421623D01*
X297316Y421636D01*
X297508Y421683D01*
X297701Y421720D01*
X297815Y421757D01*
X297930Y421785D01*
X298114Y421855D01*
X298302Y421917D01*
X298410Y421968D01*
X298521Y422010D01*
X298695Y422103D01*
X298873Y422187D01*
X298974Y422252D01*
X299079Y422308D01*
X299239Y422422D01*
X299405Y422528D01*
X299497Y422605D01*
X299594Y422674D01*
X299783Y422844D01*
X299890Y422933D01*
X299930Y422976D01*
X299984Y423025D01*
X321612Y444653D01*
X327184Y446961D01*
X372649Y446961D01*
X372768Y446968D01*
X372888Y446966D01*
X373084Y446988D01*
X373280Y447001D01*
X373397Y447023D01*
X373516Y447036D01*
X373708Y447083D01*
X373901Y447120D01*
X374015Y447157D01*
X374130Y447185D01*
X374314Y447255D01*
X374502Y447317D01*
X374610Y447368D01*
X374721Y447410D01*
X374895Y447503D01*
X375073Y447587D01*
X375174Y447652D01*
X375279Y447708D01*
X375439Y447822D01*
X375605Y447928D01*
X375697Y448005D01*
X375794Y448074D01*
X375983Y448244D01*
X376090Y448333D01*
X376130Y448376D01*
X376184Y448425D01*
X377075Y449316D01*
X377154Y449405D01*
X377240Y449488D01*
X377363Y449642D01*
X377493Y449790D01*
X377560Y449889D01*
X377634Y449982D01*
X377737Y450150D01*
X377847Y450313D01*
X377901Y450420D01*
X377964Y450521D01*
X378044Y450701D01*
X378133Y450877D01*
X378173Y450989D01*
X378222Y451098D01*
X378279Y451287D01*
X378346Y451472D01*
X378371Y451589D01*
X378406Y451703D01*
X378439Y451898D01*
X378481Y452090D01*
X378492Y452208D01*
X378512Y452326D01*
X378525Y452580D01*
X378538Y452719D01*
X378535Y452777D01*
X378539Y452851D01*
X378539Y466514D01*
X378525Y466731D01*
X378520Y466949D01*
X378506Y467047D01*
X378499Y467145D01*
X378458Y467359D01*
X378426Y467574D01*
X378399Y467669D01*
X378380Y467766D01*
X378312Y467972D01*
X378253Y468182D01*
X378214Y468273D01*
X378183Y468366D01*
X378090Y468563D01*
X378005Y468764D01*
X377955Y468848D01*
X377913Y468938D01*
X377795Y469121D01*
X377685Y469309D01*
X377625Y469387D01*
X377572Y469470D01*
X377432Y469637D01*
X377299Y469810D01*
X377230Y469880D01*
X377167Y469955D01*
X377007Y470103D01*
X376853Y470258D01*
X376776Y470318D01*
X376703Y470385D01*
X376527Y470512D01*
X376355Y470646D01*
X376270Y470696D01*
X376190Y470753D01*
X375998Y470857D01*
X375811Y470968D01*
X375720Y471007D01*
X375634Y471054D01*
X375430Y471132D01*
X375231Y471219D01*
X375136Y471246D01*
X375044Y471282D01*
X374832Y471334D01*
X374623Y471395D01*
X374526Y471410D01*
X374430Y471433D01*
X374214Y471459D01*
X373999Y471492D01*
X373900Y471495D01*
X373803Y471507D01*
X373585Y471504D01*
X373367Y471510D01*
X373269Y471501D01*
X373170Y471500D01*
X372955Y471470D01*
X372738Y471449D01*
X372642Y471427D01*
X372544Y471413D01*
X372334Y471356D01*
X372122Y471308D01*
X372016Y471271D01*
X371934Y471248D01*
X371815Y471199D01*
X371627Y471133D01*
X370894Y470829D01*
X365706Y470829D01*
X360913Y472815D01*
X359135Y474593D01*
X358996Y474715D01*
X358864Y474844D01*
X358759Y474924D01*
X358661Y475010D01*
X358508Y475114D01*
X358360Y475226D01*
X358246Y475291D01*
X358137Y475365D01*
X357973Y475449D01*
X357812Y475541D01*
X357691Y475591D01*
X357574Y475651D01*
X357400Y475713D01*
X357229Y475784D01*
X357102Y475819D01*
X356978Y475863D01*
X356798Y475903D01*
X356619Y475952D01*
X356489Y475970D01*
X356361Y475999D01*
X356177Y476015D01*
X355994Y476041D01*
X355862Y476043D01*
X355731Y476055D01*
X355547Y476048D01*
X355362Y476051D01*
X355231Y476037D01*
X355100Y476032D01*
X354917Y476002D01*
X354733Y475981D01*
X354605Y475950D01*
X354476Y475929D01*
X354299Y475876D01*
X354119Y475832D01*
X353996Y475786D01*
X353870Y475748D01*
X353701Y475673D01*
X353528Y475607D01*
X353413Y475546D01*
X353292Y475492D01*
X353134Y475397D01*
X352971Y475310D01*
X352864Y475234D01*
X352751Y475166D01*
X352606Y475051D01*
X352455Y474944D01*
X352341Y474841D01*
X352256Y474773D01*
X352179Y474695D01*
X352065Y474593D01*
X350287Y472815D01*
X345494Y470829D01*
X340306Y470829D01*
X335513Y472815D01*
X331845Y476483D01*
X329859Y481276D01*
X329859Y486464D01*
X331845Y491257D01*
X335513Y494925D01*
X337917Y495921D01*
X338171Y496046D01*
X338428Y496167D01*
X338455Y496185D01*
X338485Y496200D01*
X338721Y496355D01*
X338960Y496508D01*
X338985Y496529D01*
X339013Y496547D01*
X339228Y496732D01*
X339445Y496913D01*
X339468Y496937D01*
X339493Y496959D01*
X339683Y497170D01*
X339875Y497377D01*
X339894Y497403D01*
X339917Y497428D01*
X340079Y497661D01*
X340244Y497890D01*
X340259Y497919D01*
X340278Y497946D01*
X340410Y498198D01*
X340544Y498446D01*
X340556Y498477D01*
X340571Y498506D01*
X340670Y498771D01*
X340772Y499036D01*
X340780Y499068D01*
X340791Y499099D01*
X340856Y499375D01*
X340924Y499650D01*
X340927Y499682D01*
X340935Y499714D01*
X340964Y499997D01*
X340997Y500277D01*
X340996Y500310D01*
X341000Y500343D01*
X340993Y500625D01*
X340990Y500910D01*
X340985Y500942D01*
X340985Y500975D01*
X340942Y501255D01*
X340903Y501536D01*
X340895Y501567D01*
X340890Y501600D01*
X340812Y501873D01*
X340739Y502146D01*
X340726Y502176D01*
X340717Y502208D01*
X340606Y502468D01*
X340498Y502730D01*
X340482Y502759D01*
X340469Y502789D01*
X340326Y503033D01*
X340186Y503280D01*
X340166Y503306D01*
X340149Y503335D01*
X339977Y503559D01*
X339807Y503786D01*
X339784Y503809D01*
X339764Y503835D01*
X339565Y504035D01*
X339367Y504240D01*
X339341Y504260D01*
X339318Y504283D01*
X339095Y504456D01*
X338873Y504634D01*
X338845Y504652D01*
X338819Y504672D01*
X338576Y504815D01*
X338333Y504964D01*
X338303Y504977D01*
X338275Y504994D01*
X338015Y505106D01*
X337757Y505222D01*
X337725Y505232D01*
X337695Y505245D01*
X337423Y505323D01*
X337152Y505406D01*
X337119Y505411D01*
X337088Y505420D01*
X336809Y505464D01*
X336529Y505512D01*
X336492Y505514D01*
X336463Y505518D01*
X336337Y505522D01*
X336004Y505539D01*
X286972Y505539D01*
X286722Y505523D01*
X286471Y505514D01*
X286407Y505503D01*
X286342Y505499D01*
X286095Y505452D01*
X285848Y505411D01*
X285785Y505392D01*
X285721Y505380D01*
X285482Y505302D01*
X285242Y505230D01*
X285182Y505204D01*
X285120Y505183D01*
X284893Y505076D01*
X284664Y504974D01*
X284608Y504941D01*
X284549Y504913D01*
X284337Y504777D01*
X284123Y504648D01*
X284072Y504607D01*
X284017Y504572D01*
X283823Y504411D01*
X283627Y504255D01*
X283582Y504209D01*
X283531Y504167D01*
X283361Y503983D01*
X283185Y503803D01*
X283146Y503751D01*
X283101Y503703D01*
X282955Y503499D01*
X282804Y503299D01*
X282771Y503243D01*
X282733Y503190D01*
X282614Y502969D01*
X282489Y502751D01*
X282464Y502691D01*
X282433Y502634D01*
X282342Y502399D01*
X282246Y502168D01*
X282228Y502105D01*
X282205Y502044D01*
X282145Y501801D01*
X282078Y501559D01*
X282069Y501494D01*
X282053Y501430D01*
X282024Y501181D01*
X281989Y500933D01*
X281988Y500867D01*
X281980Y500803D01*
X281983Y500552D01*
X281979Y500301D01*
X281986Y500236D01*
X281987Y500170D01*
X282021Y499922D01*
X282049Y499673D01*
X282064Y499609D01*
X282073Y499544D01*
X282139Y499302D01*
X282198Y499058D01*
X282221Y498997D01*
X282238Y498934D01*
X282333Y498702D01*
X282423Y498468D01*
X282454Y498410D01*
X282479Y498350D01*
X282603Y498131D01*
X282672Y498001D01*
X284821Y492814D01*
X284821Y487626D01*
X282835Y482833D01*
X279167Y479165D01*
X274374Y477179D01*
X269186Y477179D01*
X264393Y479165D01*
X260168Y483389D01*
X260030Y483511D01*
X259897Y483641D01*
X259793Y483720D01*
X259694Y483807D01*
X259541Y483911D01*
X259394Y484022D01*
X259279Y484088D01*
X259171Y484162D01*
X259006Y484245D01*
X258846Y484337D01*
X258724Y484388D01*
X258607Y484447D01*
X258433Y484510D01*
X258262Y484581D01*
X258135Y484616D01*
X258012Y484660D01*
X257831Y484699D01*
X257653Y484748D01*
X257522Y484767D01*
X257394Y484795D01*
X257210Y484812D01*
X257027Y484838D01*
X256895Y484840D01*
X256765Y484852D01*
X256580Y484845D01*
X256395Y484848D01*
X256264Y484833D01*
X256133Y484828D01*
X255951Y484798D01*
X255767Y484778D01*
X255639Y484747D01*
X255509Y484725D01*
X255332Y484673D01*
X255152Y484629D01*
X255030Y484582D01*
X254904Y484545D01*
X254734Y484470D01*
X254562Y484404D01*
X254446Y484342D01*
X254326Y484289D01*
X254167Y484193D01*
X254004Y484106D01*
X253897Y484030D01*
X253785Y483962D01*
X253639Y483847D01*
X253489Y483740D01*
X253375Y483638D01*
X253289Y483570D01*
X253212Y483492D01*
X253098Y483389D01*
X252621Y482912D01*
X251402Y482026D01*
X251379Y482015D01*
X251379Y490220D01*
X251368Y490404D01*
X251366Y490589D01*
X251348Y490719D01*
X251339Y490850D01*
X251305Y491032D01*
X251279Y491215D01*
X251245Y491342D01*
X251220Y491471D01*
X251163Y491647D01*
X251114Y491826D01*
X251065Y491947D01*
X251024Y492072D01*
X250944Y492239D01*
X250874Y492410D01*
X250809Y492524D01*
X250753Y492643D01*
X250653Y492799D01*
X250562Y492960D01*
X250483Y493065D01*
X250412Y493175D01*
X250293Y493318D01*
X250182Y493465D01*
X250091Y493560D01*
X250007Y493661D01*
X249871Y493786D01*
X249743Y493919D01*
X249640Y494001D01*
X249544Y494091D01*
X249393Y494198D01*
X249249Y494314D01*
X249136Y494383D01*
X249030Y494459D01*
X248867Y494547D01*
X248709Y494643D01*
X248589Y494697D01*
X248474Y494759D01*
X248301Y494826D01*
X248132Y494902D01*
X248007Y494940D01*
X247884Y494987D01*
X247705Y495032D01*
X247528Y495085D01*
X247398Y495107D01*
X247271Y495139D01*
X247087Y495160D01*
X246904Y495191D01*
X246751Y495199D01*
X246643Y495212D01*
X246642Y495212D01*
X246534Y495211D01*
X246380Y495219D01*
X246195Y495207D01*
X246010Y495205D01*
X245880Y495187D01*
X245749Y495179D01*
X245567Y495144D01*
X245384Y495119D01*
X245257Y495085D01*
X245128Y495060D01*
X244952Y495002D01*
X244774Y494954D01*
X244653Y494904D01*
X244528Y494863D01*
X244360Y494784D01*
X244189Y494713D01*
X244075Y494649D01*
X243956Y494592D01*
X243800Y494492D01*
X243640Y494401D01*
X243535Y494322D01*
X243424Y494252D01*
X243282Y494133D01*
X243134Y494022D01*
X243040Y493931D01*
X242939Y493846D01*
X242813Y493711D01*
X242680Y493582D01*
X242598Y493479D01*
X242509Y493383D01*
X242401Y493233D01*
X242286Y493088D01*
X242217Y492976D01*
X242141Y492869D01*
X242053Y492707D01*
X241956Y492549D01*
X241902Y492429D01*
X241840Y492313D01*
X241773Y492141D01*
X241698Y491972D01*
X241660Y491846D01*
X241612Y491724D01*
X241568Y491544D01*
X241514Y491367D01*
X241492Y491237D01*
X241461Y491110D01*
X241439Y490927D01*
X241408Y490744D01*
X241400Y490590D01*
X241387Y490482D01*
X241389Y490373D01*
X241381Y490220D01*
X241381Y482015D01*
X241359Y482026D01*
X240682Y482517D01*
X240590Y482576D01*
X240504Y482641D01*
X240324Y482745D01*
X240148Y482856D01*
X240050Y482902D01*
X239956Y482956D01*
X239764Y483036D01*
X239576Y483124D01*
X239473Y483158D01*
X239372Y483199D01*
X239172Y483255D01*
X238974Y483318D01*
X238868Y483338D01*
X238763Y483367D01*
X238557Y483397D01*
X238353Y483435D01*
X238245Y483441D01*
X238137Y483457D01*
X237929Y483460D01*
X237722Y483472D01*
X237614Y483465D01*
X237505Y483467D01*
X237298Y483443D01*
X237091Y483429D01*
X236985Y483409D01*
X236877Y483397D01*
X236675Y483348D01*
X236471Y483308D01*
X236368Y483273D01*
X236262Y483248D01*
X236069Y483174D01*
X235871Y483108D01*
X235773Y483061D01*
X235672Y483023D01*
X235489Y482925D01*
X235301Y482835D01*
X235210Y482776D01*
X235114Y482725D01*
X234945Y482605D01*
X234770Y482492D01*
X234687Y482422D01*
X234599Y482359D01*
X234394Y482175D01*
X234287Y482085D01*
X234254Y482049D01*
X234208Y482008D01*
X229568Y477367D01*
X223996Y475059D01*
X217964Y475059D01*
X217653Y475188D01*
X217447Y475259D01*
X217244Y475337D01*
X217148Y475361D01*
X217055Y475393D01*
X216842Y475437D01*
X216630Y475489D01*
X216532Y475500D01*
X216436Y475520D01*
X216219Y475537D01*
X216003Y475562D01*
X215904Y475561D01*
X215806Y475568D01*
X215588Y475557D01*
X215370Y475555D01*
X215273Y475542D01*
X215174Y475537D01*
X214960Y475498D01*
X214744Y475469D01*
X214649Y475443D01*
X214552Y475426D01*
X214344Y475360D01*
X214134Y475304D01*
X214043Y475266D01*
X213949Y475237D01*
X213751Y475146D01*
X213550Y475063D01*
X213464Y475015D01*
X213374Y474974D01*
X213189Y474859D01*
X213000Y474751D01*
X212921Y474692D01*
X212837Y474640D01*
X212668Y474502D01*
X212494Y474372D01*
X212423Y474303D01*
X212347Y474241D01*
X212197Y474084D01*
X212040Y473932D01*
X211979Y473855D01*
X211911Y473784D01*
X211782Y473608D01*
X211646Y473438D01*
X211594Y473354D01*
X211536Y473275D01*
X211430Y473085D01*
X211316Y472899D01*
X211276Y472808D01*
X211228Y472723D01*
X211147Y472521D01*
X211058Y472322D01*
X211029Y472227D01*
X210993Y472136D01*
X210938Y471925D01*
X210874Y471717D01*
X210858Y471620D01*
X210833Y471524D01*
X210805Y471309D01*
X210768Y471094D01*
X210762Y470981D01*
X210752Y470898D01*
X210751Y470769D01*
X210741Y470569D01*
X210741Y435071D01*
X210748Y434952D01*
X210746Y434832D01*
X210754Y434764D01*
X210754Y434727D01*
X210769Y434620D01*
X210781Y434440D01*
X210803Y434323D01*
X210816Y434204D01*
X210840Y434105D01*
X210841Y434101D01*
X210844Y434088D01*
X210863Y434012D01*
X210900Y433819D01*
X210937Y433705D01*
X210965Y433590D01*
X211035Y433406D01*
X211097Y433218D01*
X211148Y433110D01*
X211190Y432999D01*
X211283Y432825D01*
X211367Y432647D01*
X211432Y432546D01*
X211488Y432441D01*
X211602Y432281D01*
X211708Y432115D01*
X211785Y432023D01*
X211854Y431926D01*
X212024Y431737D01*
X212113Y431630D01*
X212156Y431590D01*
X212205Y431536D01*
X220716Y423025D01*
X220805Y422946D01*
X220888Y422860D01*
X221042Y422737D01*
X221190Y422607D01*
X221289Y422540D01*
X221382Y422466D01*
X221550Y422363D01*
X221713Y422253D01*
X221820Y422199D01*
X221921Y422136D01*
X222101Y422056D01*
X222277Y421967D01*
X222389Y421927D01*
X222498Y421878D01*
X222687Y421821D01*
X222872Y421754D01*
X222989Y421729D01*
X223103Y421694D01*
X223298Y421661D01*
X223490Y421619D01*
X223608Y421608D01*
X223726Y421588D01*
X223980Y421575D01*
X224119Y421562D01*
X224177Y421565D01*
X224251Y421561D01*
X296449Y421561D01*
X296568Y421568D01*
G37*
G36*
X449925Y212162D02*
X449925Y212162D01*
X450110Y212164D01*
X450240Y212182D01*
X450371Y212191D01*
X450552Y212226D01*
X450736Y212251D01*
X450862Y212285D01*
X450992Y212310D01*
X451168Y212368D01*
X451346Y212416D01*
X451467Y212466D01*
X451592Y212507D01*
X451760Y212586D01*
X451930Y212656D01*
X452045Y212721D01*
X452163Y212777D01*
X452319Y212877D01*
X452480Y212968D01*
X452585Y213047D01*
X452696Y213118D01*
X452838Y213237D01*
X452986Y213348D01*
X453080Y213439D01*
X453181Y213523D01*
X453307Y213659D01*
X453440Y213788D01*
X453522Y213890D01*
X453611Y213987D01*
X453719Y214137D01*
X453834Y214281D01*
X453903Y214394D01*
X453979Y214500D01*
X454067Y214663D01*
X454164Y214821D01*
X454217Y214941D01*
X454280Y215056D01*
X454346Y215229D01*
X454422Y215398D01*
X454460Y215523D01*
X454508Y215646D01*
X454552Y215826D01*
X454606Y216003D01*
X454628Y216132D01*
X454659Y216260D01*
X454681Y216443D01*
X454712Y216626D01*
X454720Y216779D01*
X454732Y216887D01*
X454731Y216996D01*
X454739Y217150D01*
X454739Y320516D01*
X457047Y326088D01*
X462015Y331056D01*
X475565Y344605D01*
X475730Y344793D01*
X475901Y344977D01*
X475939Y345030D01*
X475982Y345079D01*
X476123Y345287D01*
X476269Y345490D01*
X476300Y345548D01*
X476337Y345603D01*
X476450Y345827D01*
X476569Y346046D01*
X476593Y346108D01*
X476623Y346166D01*
X476707Y346402D01*
X476797Y346636D01*
X476813Y346700D01*
X476835Y346762D01*
X476889Y347006D01*
X476949Y347250D01*
X476956Y347315D01*
X476971Y347379D01*
X476993Y347629D01*
X477022Y347877D01*
X477021Y347943D01*
X477027Y348009D01*
X477018Y348260D01*
X477015Y348510D01*
X477006Y348574D01*
X477004Y348640D01*
X476963Y348888D01*
X476929Y349136D01*
X476911Y349199D01*
X476901Y349264D01*
X476829Y349504D01*
X476764Y349746D01*
X476739Y349807D01*
X476720Y349870D01*
X476619Y350099D01*
X476523Y350330D01*
X476491Y350388D01*
X476464Y350448D01*
X476335Y350662D01*
X476211Y350880D01*
X476172Y350933D01*
X476138Y350989D01*
X475982Y351185D01*
X475832Y351386D01*
X475786Y351433D01*
X475745Y351485D01*
X475566Y351660D01*
X475392Y351840D01*
X475340Y351881D01*
X475294Y351927D01*
X475094Y352077D01*
X474898Y352234D01*
X474842Y352269D01*
X474790Y352308D01*
X474573Y352433D01*
X474359Y352564D01*
X474298Y352591D01*
X474242Y352623D01*
X474011Y352719D01*
X473782Y352822D01*
X473719Y352841D01*
X473658Y352867D01*
X473416Y352933D01*
X473177Y353006D01*
X473112Y353017D01*
X473049Y353034D01*
X472801Y353070D01*
X472554Y353112D01*
X472480Y353116D01*
X472423Y353124D01*
X472283Y353126D01*
X472030Y353139D01*
X440151Y353139D01*
X440032Y353132D01*
X439912Y353134D01*
X439716Y353112D01*
X439520Y353099D01*
X439403Y353077D01*
X439284Y353064D01*
X439092Y353017D01*
X438899Y352980D01*
X438785Y352943D01*
X438670Y352915D01*
X438486Y352845D01*
X438298Y352783D01*
X438190Y352732D01*
X438079Y352690D01*
X437905Y352597D01*
X437727Y352513D01*
X437626Y352448D01*
X437521Y352392D01*
X437361Y352278D01*
X437195Y352172D01*
X437103Y352095D01*
X437006Y352026D01*
X436817Y351856D01*
X436710Y351767D01*
X436670Y351724D01*
X436616Y351675D01*
X397625Y312684D01*
X397546Y312595D01*
X397460Y312512D01*
X397337Y312358D01*
X397207Y312210D01*
X397140Y312111D01*
X397066Y312018D01*
X396963Y311850D01*
X396853Y311687D01*
X396799Y311580D01*
X396736Y311479D01*
X396656Y311299D01*
X396567Y311123D01*
X396527Y311011D01*
X396478Y310902D01*
X396421Y310713D01*
X396354Y310528D01*
X396329Y310411D01*
X396294Y310297D01*
X396261Y310103D01*
X396219Y309910D01*
X396208Y309792D01*
X396188Y309674D01*
X396175Y309420D01*
X396162Y309281D01*
X396165Y309223D01*
X396161Y309149D01*
X396161Y260303D01*
X396177Y260042D01*
X396188Y259780D01*
X396197Y259726D01*
X396201Y259672D01*
X396250Y259415D01*
X396294Y259157D01*
X396310Y259105D01*
X396320Y259051D01*
X396402Y258801D01*
X396477Y258552D01*
X396500Y258502D01*
X396517Y258450D01*
X396629Y258213D01*
X396736Y257975D01*
X396764Y257929D01*
X396787Y257879D01*
X396929Y257658D01*
X397065Y257436D01*
X397099Y257393D01*
X397128Y257347D01*
X397296Y257146D01*
X397459Y256942D01*
X397498Y256904D01*
X397533Y256862D01*
X397725Y256684D01*
X397913Y256502D01*
X397956Y256469D01*
X397997Y256432D01*
X398209Y256280D01*
X398418Y256122D01*
X398466Y256095D01*
X398510Y256063D01*
X398740Y255939D01*
X398968Y255810D01*
X399018Y255789D01*
X399066Y255763D01*
X399311Y255668D01*
X399552Y255569D01*
X399605Y255555D01*
X399656Y255535D01*
X399910Y255472D01*
X400162Y255404D01*
X400217Y255396D01*
X400270Y255383D01*
X400529Y255353D01*
X400788Y255317D01*
X400843Y255317D01*
X400897Y255310D01*
X401158Y255313D01*
X401421Y255310D01*
X401475Y255316D01*
X401530Y255317D01*
X401788Y255353D01*
X402048Y255383D01*
X402102Y255396D01*
X402156Y255403D01*
X402408Y255472D01*
X402662Y255534D01*
X402713Y255554D01*
X402766Y255568D01*
X403007Y255668D01*
X403252Y255762D01*
X403300Y255788D01*
X403350Y255809D01*
X403578Y255938D01*
X403808Y256062D01*
X403852Y256094D01*
X403900Y256121D01*
X404110Y256278D01*
X404322Y256430D01*
X404362Y256467D01*
X404406Y256500D01*
X404594Y256683D01*
X404785Y256860D01*
X404825Y256906D01*
X404860Y256940D01*
X404947Y257049D01*
X405126Y257259D01*
X405320Y257511D01*
X406459Y258651D01*
X407737Y259631D01*
X409132Y260437D01*
X409581Y260623D01*
X409581Y249390D01*
X409592Y249206D01*
X409594Y249021D01*
X409612Y248891D01*
X409621Y248760D01*
X409655Y248578D01*
X409681Y248395D01*
X409715Y248268D01*
X409740Y248139D01*
X409797Y247963D01*
X409846Y247784D01*
X409895Y247663D01*
X409936Y247538D01*
X410016Y247371D01*
X410086Y247200D01*
X410151Y247086D01*
X410207Y246967D01*
X410307Y246811D01*
X410398Y246650D01*
X410477Y246545D01*
X410548Y246435D01*
X410667Y246292D01*
X410778Y246145D01*
X410869Y246050D01*
X410953Y245949D01*
X410954Y245949D01*
X411089Y245823D01*
X411217Y245691D01*
X411218Y245690D01*
X411321Y245608D01*
X411417Y245519D01*
X411567Y245411D01*
X411712Y245296D01*
X411824Y245227D01*
X411931Y245151D01*
X412093Y245063D01*
X412251Y244966D01*
X412371Y244912D01*
X412487Y244850D01*
X412659Y244783D01*
X412828Y244708D01*
X412954Y244670D01*
X413076Y244622D01*
X413256Y244578D01*
X413433Y244524D01*
X413563Y244502D01*
X413690Y244471D01*
X413873Y244449D01*
X414056Y244418D01*
X414210Y244410D01*
X414318Y244397D01*
X414427Y244399D01*
X414580Y244391D01*
X425813Y244391D01*
X425627Y243942D01*
X424821Y242547D01*
X424311Y241882D01*
X424214Y241737D01*
X424109Y241598D01*
X424038Y241475D01*
X423958Y241357D01*
X423880Y241201D01*
X423794Y241050D01*
X423739Y240919D01*
X423675Y240792D01*
X423617Y240627D01*
X423550Y240467D01*
X423513Y240330D01*
X423465Y240195D01*
X423429Y240025D01*
X423383Y239857D01*
X423362Y239717D01*
X423332Y239578D01*
X423318Y239404D01*
X423293Y239232D01*
X423291Y239089D01*
X423279Y238948D01*
X423286Y238774D01*
X423283Y238600D01*
X423299Y238458D01*
X423305Y238316D01*
X423334Y238145D01*
X423353Y237971D01*
X423387Y237833D01*
X423410Y237693D01*
X423461Y237527D01*
X423502Y237357D01*
X423553Y237224D01*
X423594Y237088D01*
X423665Y236929D01*
X423727Y236766D01*
X423794Y236641D01*
X423852Y236511D01*
X423943Y236362D01*
X424025Y236209D01*
X424107Y236093D01*
X424181Y235971D01*
X424290Y235835D01*
X424391Y235693D01*
X424503Y235568D01*
X424576Y235478D01*
X424648Y235407D01*
X424742Y235303D01*
X427933Y232112D01*
X430331Y226323D01*
X430331Y220057D01*
X429919Y219063D01*
X429849Y218857D01*
X429770Y218654D01*
X429746Y218558D01*
X429715Y218465D01*
X429671Y218252D01*
X429618Y218040D01*
X429607Y217943D01*
X429587Y217846D01*
X429571Y217629D01*
X429545Y217413D01*
X429546Y217314D01*
X429539Y217216D01*
X429550Y216998D01*
X429552Y216780D01*
X429566Y216683D01*
X429571Y216584D01*
X429609Y216370D01*
X429639Y216154D01*
X429664Y216059D01*
X429682Y215962D01*
X429747Y215754D01*
X429803Y215544D01*
X429841Y215453D01*
X429870Y215359D01*
X429961Y215161D01*
X430044Y214960D01*
X430093Y214874D01*
X430134Y214784D01*
X430249Y214599D01*
X430356Y214410D01*
X430415Y214331D01*
X430467Y214247D01*
X430605Y214078D01*
X430735Y213904D01*
X430804Y213833D01*
X430866Y213757D01*
X431024Y213607D01*
X431175Y213450D01*
X431252Y213389D01*
X431324Y213321D01*
X431499Y213192D01*
X431669Y213056D01*
X431753Y213004D01*
X431833Y212946D01*
X432023Y212840D01*
X432209Y212726D01*
X432299Y212686D01*
X432385Y212638D01*
X432587Y212557D01*
X432785Y212468D01*
X432880Y212439D01*
X432971Y212403D01*
X433182Y212347D01*
X433390Y212284D01*
X433487Y212268D01*
X433583Y212243D01*
X433799Y212215D01*
X434013Y212178D01*
X434126Y212172D01*
X434210Y212162D01*
X434339Y212161D01*
X434538Y212151D01*
X449740Y212151D01*
X449925Y212162D01*
G37*
%LPC*%
G36*
X637399Y407109D02*
X637399Y407109D01*
X631058Y409736D01*
X625668Y415125D01*
X625530Y415248D01*
X625397Y415377D01*
X625293Y415456D01*
X625194Y415543D01*
X625041Y415647D01*
X624893Y415759D01*
X624779Y415824D01*
X624671Y415898D01*
X624506Y415981D01*
X624345Y416074D01*
X624224Y416124D01*
X624107Y416184D01*
X623933Y416246D01*
X623762Y416317D01*
X623635Y416352D01*
X623512Y416396D01*
X623331Y416436D01*
X623153Y416485D01*
X623022Y416503D01*
X622894Y416531D01*
X622710Y416548D01*
X622527Y416574D01*
X622395Y416576D01*
X622265Y416588D01*
X622080Y416581D01*
X621895Y416584D01*
X621764Y416569D01*
X621633Y416565D01*
X621450Y416534D01*
X621267Y416514D01*
X621139Y416483D01*
X621009Y416462D01*
X620832Y416409D01*
X620652Y416365D01*
X620530Y416319D01*
X620404Y416281D01*
X620235Y416206D01*
X620062Y416140D01*
X619945Y416078D01*
X619826Y416025D01*
X619667Y415930D01*
X619504Y415842D01*
X619397Y415766D01*
X619285Y415698D01*
X619139Y415584D01*
X618989Y415477D01*
X618874Y415374D01*
X618789Y415306D01*
X618713Y415228D01*
X618598Y415125D01*
X617442Y413969D01*
X616008Y412869D01*
X614443Y411965D01*
X613329Y411504D01*
X613329Y435610D01*
X613329Y459716D01*
X614443Y459255D01*
X616008Y458351D01*
X617442Y457251D01*
X618598Y456095D01*
X618737Y455973D01*
X618869Y455843D01*
X618974Y455764D01*
X619073Y455677D01*
X619226Y455573D01*
X619373Y455461D01*
X619487Y455396D01*
X619596Y455322D01*
X619761Y455239D01*
X619921Y455146D01*
X620043Y455096D01*
X620160Y455036D01*
X620334Y454974D01*
X620505Y454903D01*
X620631Y454868D01*
X620755Y454824D01*
X620936Y454784D01*
X621114Y454735D01*
X621244Y454717D01*
X621372Y454689D01*
X621557Y454672D01*
X621740Y454646D01*
X621871Y454644D01*
X622002Y454632D01*
X622187Y454639D01*
X622372Y454636D01*
X622502Y454651D01*
X622634Y454655D01*
X622816Y454686D01*
X623000Y454706D01*
X623128Y454737D01*
X623257Y454758D01*
X623434Y454811D01*
X623614Y454855D01*
X623737Y454902D01*
X623863Y454939D01*
X624032Y455014D01*
X624205Y455080D01*
X624321Y455142D01*
X624441Y455195D01*
X624600Y455290D01*
X624763Y455378D01*
X624870Y455454D01*
X624982Y455521D01*
X625127Y455636D01*
X625278Y455743D01*
X625392Y455846D01*
X625478Y455914D01*
X625554Y455992D01*
X625668Y456095D01*
X631058Y461484D01*
X637399Y464111D01*
X644261Y464111D01*
X650602Y461484D01*
X653545Y458541D01*
X653684Y458419D01*
X653816Y458290D01*
X653921Y458210D01*
X654019Y458123D01*
X654172Y458020D01*
X654320Y457908D01*
X654434Y457842D01*
X654543Y457769D01*
X654707Y457685D01*
X654868Y457593D01*
X654989Y457542D01*
X655106Y457483D01*
X655280Y457421D01*
X655451Y457350D01*
X655578Y457315D01*
X655702Y457271D01*
X655882Y457231D01*
X656061Y457182D01*
X656191Y457163D01*
X656319Y457135D01*
X656503Y457119D01*
X656686Y457092D01*
X656818Y457090D01*
X656949Y457079D01*
X657134Y457086D01*
X657318Y457083D01*
X657449Y457097D01*
X657580Y457102D01*
X657763Y457132D01*
X657947Y457153D01*
X658074Y457184D01*
X658204Y457205D01*
X658381Y457258D01*
X658561Y457301D01*
X658684Y457348D01*
X658810Y457386D01*
X658979Y457461D01*
X659152Y457526D01*
X659267Y457588D01*
X659388Y457641D01*
X659546Y457737D01*
X659709Y457824D01*
X659816Y457900D01*
X659929Y457968D01*
X660074Y458083D01*
X660225Y458190D01*
X660339Y458293D01*
X660424Y458360D01*
X660501Y458439D01*
X660615Y458541D01*
X663558Y461484D01*
X669899Y464111D01*
X676761Y464111D01*
X683102Y461484D01*
X687954Y456632D01*
X690581Y450291D01*
X690581Y420929D01*
X687954Y414588D01*
X683102Y409736D01*
X676761Y407109D01*
X669899Y407109D01*
X663558Y409736D01*
X660615Y412679D01*
X660476Y412801D01*
X660344Y412930D01*
X660239Y413010D01*
X660141Y413097D01*
X659988Y413200D01*
X659840Y413312D01*
X659726Y413377D01*
X659617Y413451D01*
X659452Y413535D01*
X659292Y413627D01*
X659171Y413678D01*
X659054Y413737D01*
X658879Y413799D01*
X658709Y413870D01*
X658582Y413905D01*
X658458Y413949D01*
X658278Y413989D01*
X658099Y414038D01*
X657969Y414057D01*
X657841Y414085D01*
X657657Y414101D01*
X657474Y414128D01*
X657342Y414130D01*
X657211Y414141D01*
X657026Y414134D01*
X656842Y414137D01*
X656711Y414123D01*
X656580Y414118D01*
X656397Y414088D01*
X656213Y414067D01*
X656085Y414036D01*
X655956Y414015D01*
X655779Y413962D01*
X655599Y413919D01*
X655476Y413872D01*
X655350Y413834D01*
X655181Y413759D01*
X655008Y413694D01*
X654892Y413632D01*
X654772Y413578D01*
X654614Y413483D01*
X654451Y413396D01*
X654344Y413320D01*
X654231Y413252D01*
X654086Y413137D01*
X653935Y413030D01*
X653821Y412927D01*
X653735Y412860D01*
X653659Y412782D01*
X653545Y412679D01*
X650602Y409736D01*
X644261Y407109D01*
X637399Y407109D01*
G37*
%LPD*%
G36*
X1112377Y120107D02*
X1112377Y120107D01*
X1112638Y120118D01*
X1112692Y120127D01*
X1112747Y120131D01*
X1113004Y120180D01*
X1113261Y120224D01*
X1113314Y120240D01*
X1113368Y120250D01*
X1113617Y120331D01*
X1113866Y120407D01*
X1113916Y120429D01*
X1113969Y120447D01*
X1114205Y120559D01*
X1114443Y120665D01*
X1114490Y120694D01*
X1114540Y120717D01*
X1114760Y120859D01*
X1114983Y120994D01*
X1115026Y121028D01*
X1115072Y121058D01*
X1115273Y121226D01*
X1115477Y121389D01*
X1115515Y121428D01*
X1115557Y121463D01*
X1115735Y121655D01*
X1115917Y121842D01*
X1115950Y121886D01*
X1115987Y121927D01*
X1116139Y122139D01*
X1116296Y122348D01*
X1116324Y122396D01*
X1116356Y122440D01*
X1116410Y122541D01*
X1126490Y122541D01*
X1136574Y122541D01*
X1136682Y122350D01*
X1136715Y122306D01*
X1136743Y122259D01*
X1136905Y122053D01*
X1137061Y121844D01*
X1137100Y121805D01*
X1137134Y121761D01*
X1137319Y121578D01*
X1137501Y121390D01*
X1137544Y121356D01*
X1137583Y121317D01*
X1137791Y121159D01*
X1137995Y120996D01*
X1138042Y120967D01*
X1138086Y120934D01*
X1138312Y120803D01*
X1138535Y120666D01*
X1138585Y120644D01*
X1138632Y120616D01*
X1138873Y120515D01*
X1139111Y120408D01*
X1139164Y120392D01*
X1139215Y120371D01*
X1139466Y120300D01*
X1139716Y120224D01*
X1139770Y120215D01*
X1139823Y120200D01*
X1140082Y120162D01*
X1140339Y120118D01*
X1140401Y120115D01*
X1140449Y120108D01*
X1140588Y120105D01*
X1140864Y120091D01*
X1145759Y120091D01*
X1145878Y120098D01*
X1145998Y120096D01*
X1146194Y120118D01*
X1146390Y120131D01*
X1146507Y120153D01*
X1146626Y120166D01*
X1146818Y120213D01*
X1147011Y120250D01*
X1147125Y120287D01*
X1147240Y120315D01*
X1147424Y120385D01*
X1147612Y120447D01*
X1147720Y120498D01*
X1147831Y120540D01*
X1148005Y120633D01*
X1148183Y120717D01*
X1148284Y120782D01*
X1148389Y120838D01*
X1148549Y120952D01*
X1148715Y121058D01*
X1148807Y121135D01*
X1148904Y121204D01*
X1149093Y121374D01*
X1149200Y121463D01*
X1149237Y121503D01*
X1149254Y121517D01*
X1149263Y121527D01*
X1149294Y121555D01*
X1150665Y122926D01*
X1150744Y123015D01*
X1150830Y123098D01*
X1150953Y123252D01*
X1151083Y123400D01*
X1151150Y123499D01*
X1151224Y123592D01*
X1151327Y123760D01*
X1151437Y123923D01*
X1151491Y124030D01*
X1151554Y124131D01*
X1151634Y124311D01*
X1151723Y124487D01*
X1151763Y124599D01*
X1151812Y124708D01*
X1151869Y124897D01*
X1151936Y125082D01*
X1151961Y125199D01*
X1151996Y125313D01*
X1152029Y125508D01*
X1152071Y125700D01*
X1152082Y125818D01*
X1152102Y125936D01*
X1152115Y126190D01*
X1152128Y126329D01*
X1152125Y126387D01*
X1152129Y126461D01*
X1152129Y157859D01*
X1152122Y157978D01*
X1152124Y158098D01*
X1152102Y158294D01*
X1152089Y158490D01*
X1152067Y158607D01*
X1152054Y158726D01*
X1152007Y158918D01*
X1151970Y159111D01*
X1151933Y159225D01*
X1151905Y159340D01*
X1151835Y159524D01*
X1151773Y159712D01*
X1151722Y159820D01*
X1151680Y159931D01*
X1151587Y160105D01*
X1151503Y160283D01*
X1151438Y160384D01*
X1151382Y160489D01*
X1151268Y160649D01*
X1151162Y160815D01*
X1151085Y160907D01*
X1151016Y161004D01*
X1150846Y161193D01*
X1150757Y161300D01*
X1150714Y161340D01*
X1150665Y161394D01*
X1150344Y161715D01*
X1150255Y161794D01*
X1150172Y161880D01*
X1150018Y162003D01*
X1149870Y162133D01*
X1149771Y162200D01*
X1149678Y162274D01*
X1149510Y162377D01*
X1149347Y162487D01*
X1149240Y162541D01*
X1149139Y162604D01*
X1148959Y162684D01*
X1148783Y162773D01*
X1148671Y162813D01*
X1148562Y162862D01*
X1148373Y162919D01*
X1148188Y162986D01*
X1148071Y163011D01*
X1147957Y163046D01*
X1147762Y163079D01*
X1147570Y163121D01*
X1147452Y163132D01*
X1147334Y163152D01*
X1147080Y163165D01*
X1146941Y163178D01*
X1146883Y163175D01*
X1146809Y163179D01*
X1146140Y163179D01*
X1145923Y163166D01*
X1145705Y163160D01*
X1145608Y163146D01*
X1145510Y163139D01*
X1145296Y163098D01*
X1145080Y163066D01*
X1144986Y163039D01*
X1144889Y163020D01*
X1144682Y162952D01*
X1144472Y162893D01*
X1144382Y162854D01*
X1144288Y162823D01*
X1144091Y162730D01*
X1143891Y162645D01*
X1143806Y162595D01*
X1143717Y162553D01*
X1143533Y162435D01*
X1143346Y162325D01*
X1143268Y162265D01*
X1143185Y162212D01*
X1143017Y162072D01*
X1142845Y161939D01*
X1142775Y161870D01*
X1142700Y161807D01*
X1142551Y161647D01*
X1142397Y161493D01*
X1142336Y161416D01*
X1142269Y161343D01*
X1142143Y161167D01*
X1142009Y160995D01*
X1141958Y160910D01*
X1141901Y160830D01*
X1141798Y160638D01*
X1141687Y160451D01*
X1141647Y160360D01*
X1141601Y160274D01*
X1141522Y160070D01*
X1141436Y159871D01*
X1141408Y159776D01*
X1141373Y159684D01*
X1141321Y159473D01*
X1141260Y159263D01*
X1141245Y159166D01*
X1141221Y159070D01*
X1141196Y158854D01*
X1141162Y158639D01*
X1141160Y158540D01*
X1141148Y158443D01*
X1141150Y158225D01*
X1141144Y158007D01*
X1141154Y157909D01*
X1141155Y157810D01*
X1141185Y157595D01*
X1141206Y157378D01*
X1141228Y157282D01*
X1141241Y157184D01*
X1141298Y156974D01*
X1141347Y156762D01*
X1141384Y156656D01*
X1141406Y156574D01*
X1141455Y156455D01*
X1141522Y156267D01*
X1141651Y155956D01*
X1141651Y149924D01*
X1139343Y144352D01*
X1134702Y139712D01*
X1134630Y139630D01*
X1134552Y139555D01*
X1134422Y139393D01*
X1134284Y139237D01*
X1134223Y139147D01*
X1134155Y139063D01*
X1134046Y138886D01*
X1133930Y138714D01*
X1133880Y138617D01*
X1133824Y138525D01*
X1133738Y138336D01*
X1133644Y138150D01*
X1133607Y138048D01*
X1133563Y137949D01*
X1133501Y137751D01*
X1133432Y137555D01*
X1133408Y137449D01*
X1133376Y137345D01*
X1133341Y137140D01*
X1133296Y136937D01*
X1133286Y136829D01*
X1133268Y136722D01*
X1133258Y136515D01*
X1133240Y136308D01*
X1133244Y136199D01*
X1133239Y136091D01*
X1133255Y135884D01*
X1133263Y135676D01*
X1133281Y135569D01*
X1133289Y135461D01*
X1133332Y135258D01*
X1133366Y135053D01*
X1133397Y134948D01*
X1133419Y134842D01*
X1133487Y134646D01*
X1133547Y134447D01*
X1133591Y134347D01*
X1133626Y134245D01*
X1133718Y134059D01*
X1133802Y133869D01*
X1133858Y133776D01*
X1133907Y133678D01*
X1134057Y133447D01*
X1134129Y133328D01*
X1134159Y133289D01*
X1134193Y133238D01*
X1134684Y132561D01*
X1134695Y132539D01*
X1126490Y132539D01*
X1117727Y132539D01*
X1117726Y132723D01*
X1117723Y132744D01*
X1117723Y132766D01*
X1117683Y133058D01*
X1117645Y133350D01*
X1117640Y133370D01*
X1117637Y133392D01*
X1117561Y133673D01*
X1117486Y133961D01*
X1117477Y133981D01*
X1117472Y134002D01*
X1117360Y134273D01*
X1117250Y134548D01*
X1117240Y134567D01*
X1117231Y134587D01*
X1117086Y134843D01*
X1116942Y135100D01*
X1116930Y135117D01*
X1116919Y135136D01*
X1116742Y135372D01*
X1116568Y135609D01*
X1116553Y135625D01*
X1116540Y135642D01*
X1116334Y135854D01*
X1116132Y136067D01*
X1116115Y136080D01*
X1116100Y136096D01*
X1115869Y136280D01*
X1115641Y136466D01*
X1115623Y136477D01*
X1115606Y136490D01*
X1115354Y136645D01*
X1115105Y136799D01*
X1115085Y136808D01*
X1115067Y136820D01*
X1114797Y136941D01*
X1114530Y137063D01*
X1114510Y137069D01*
X1114490Y137078D01*
X1114207Y137164D01*
X1113927Y137252D01*
X1113906Y137256D01*
X1113885Y137262D01*
X1113593Y137312D01*
X1113305Y137363D01*
X1113283Y137364D01*
X1113262Y137368D01*
X1112738Y137395D01*
X1085624Y137395D01*
X1085375Y137380D01*
X1085124Y137370D01*
X1085059Y137360D01*
X1084994Y137355D01*
X1084748Y137308D01*
X1084500Y137267D01*
X1084437Y137249D01*
X1084373Y137236D01*
X1084134Y137158D01*
X1083895Y137087D01*
X1083835Y137060D01*
X1083772Y137040D01*
X1083545Y136932D01*
X1083317Y136831D01*
X1083260Y136797D01*
X1083201Y136769D01*
X1082989Y136633D01*
X1082775Y136504D01*
X1082724Y136463D01*
X1082669Y136428D01*
X1082476Y136267D01*
X1082280Y136112D01*
X1082234Y136065D01*
X1082183Y136023D01*
X1082013Y135840D01*
X1081838Y135660D01*
X1081798Y135608D01*
X1081753Y135560D01*
X1081608Y135357D01*
X1081456Y135156D01*
X1081423Y135099D01*
X1081385Y135046D01*
X1081266Y134826D01*
X1081141Y134608D01*
X1081116Y134547D01*
X1081085Y134490D01*
X1080994Y134256D01*
X1080898Y134025D01*
X1080880Y133962D01*
X1080857Y133900D01*
X1080797Y133657D01*
X1080730Y133415D01*
X1080721Y133350D01*
X1080705Y133287D01*
X1080676Y133038D01*
X1080641Y132790D01*
X1080640Y132724D01*
X1080632Y132659D01*
X1080635Y132409D01*
X1080631Y132158D01*
X1080638Y132092D01*
X1080639Y132027D01*
X1080673Y131779D01*
X1080701Y131529D01*
X1080716Y131465D01*
X1080725Y131400D01*
X1080790Y131159D01*
X1080850Y130915D01*
X1080873Y130854D01*
X1080890Y130790D01*
X1080985Y130559D01*
X1081075Y130324D01*
X1081106Y130267D01*
X1081131Y130206D01*
X1081254Y129988D01*
X1081372Y129767D01*
X1081410Y129713D01*
X1081443Y129656D01*
X1081593Y129456D01*
X1081738Y129251D01*
X1081787Y129197D01*
X1081822Y129150D01*
X1081919Y129050D01*
X1082089Y128861D01*
X1089396Y121555D01*
X1089474Y121486D01*
X1089515Y121444D01*
X1089522Y121438D01*
X1089568Y121390D01*
X1089722Y121267D01*
X1089870Y121137D01*
X1089969Y121070D01*
X1090062Y120996D01*
X1090230Y120893D01*
X1090393Y120783D01*
X1090500Y120729D01*
X1090601Y120666D01*
X1090781Y120586D01*
X1090957Y120497D01*
X1091069Y120457D01*
X1091178Y120408D01*
X1091367Y120351D01*
X1091552Y120284D01*
X1091669Y120259D01*
X1091783Y120224D01*
X1091978Y120191D01*
X1092170Y120149D01*
X1092288Y120138D01*
X1092406Y120118D01*
X1092660Y120105D01*
X1092799Y120092D01*
X1092857Y120095D01*
X1092931Y120091D01*
X1112116Y120091D01*
X1112377Y120107D01*
G37*
%LPC*%
G36*
X594539Y440609D02*
X594539Y440609D01*
X594539Y447764D01*
X594775Y449556D01*
X595243Y451302D01*
X595935Y452973D01*
X596839Y454538D01*
X597939Y455972D01*
X599218Y457251D01*
X600652Y458351D01*
X602217Y459255D01*
X603331Y459716D01*
X603331Y440609D01*
X594539Y440609D01*
G37*
%LPD*%
%LPC*%
G36*
X602217Y411965D02*
X602217Y411965D01*
X600652Y412869D01*
X599218Y413969D01*
X597939Y415248D01*
X596839Y416682D01*
X595935Y418247D01*
X595243Y419918D01*
X594775Y421664D01*
X594539Y423456D01*
X594539Y430611D01*
X603331Y430611D01*
X603331Y411504D01*
X602217Y411965D01*
G37*
%LPD*%
%LPC*%
G36*
X1437559Y627299D02*
X1437559Y627299D01*
X1437559Y632381D01*
X1440350Y632381D01*
X1440841Y632283D01*
X1441304Y632092D01*
X1441720Y631814D01*
X1442074Y631460D01*
X1442352Y631044D01*
X1442543Y630581D01*
X1442641Y630090D01*
X1442641Y627299D01*
X1437559Y627299D01*
G37*
%LPD*%
%LPC*%
G36*
X1422479Y627299D02*
X1422479Y627299D01*
X1422479Y630090D01*
X1422577Y630581D01*
X1422768Y631044D01*
X1423046Y631460D01*
X1423400Y631814D01*
X1423816Y632092D01*
X1424279Y632283D01*
X1424770Y632381D01*
X1427561Y632381D01*
X1427561Y627299D01*
X1422479Y627299D01*
G37*
%LPD*%
%LPC*%
G36*
X419579Y254389D02*
X419579Y254389D01*
X419579Y260623D01*
X420028Y260437D01*
X421423Y259631D01*
X422701Y258651D01*
X423841Y257511D01*
X424821Y256233D01*
X425627Y254838D01*
X425813Y254389D01*
X419579Y254389D01*
G37*
%LPD*%
%LPC*%
G36*
X1304209Y350601D02*
X1304209Y350601D01*
X1307415Y350601D01*
X1307404Y350578D01*
X1306518Y349359D01*
X1305451Y348292D01*
X1304232Y347406D01*
X1304209Y347395D01*
X1304209Y350601D01*
G37*
%LPD*%
D10*
X990700Y317010D03*
X965300Y317010D03*
X939900Y317010D03*
X914500Y317010D03*
X889100Y317010D03*
X863700Y317010D03*
X838300Y317010D03*
X812900Y317010D03*
X787500Y317010D03*
X762100Y317010D03*
X736700Y317010D03*
X711300Y317010D03*
X685900Y317010D03*
X660500Y317010D03*
X635100Y317010D03*
X990700Y69310D03*
X965300Y69310D03*
X939900Y69310D03*
X914500Y69310D03*
X889100Y69310D03*
X863700Y69310D03*
X838300Y69310D03*
X812900Y69310D03*
X787500Y69310D03*
X762100Y69310D03*
X736700Y69310D03*
X711300Y69310D03*
X685900Y69310D03*
X660500Y69310D03*
X635100Y69310D03*
D11*
X1372080Y354150D03*
X1402080Y354150D03*
X1432080Y354150D03*
D12*
X1342080Y354330D03*
X1462080Y354330D03*
D13*
X1273810Y355600D03*
X1299210Y355600D03*
D14*
X1432560Y546100D03*
X1432560Y520700D03*
X1432560Y495300D03*
X1432560Y469900D03*
X1432560Y571500D03*
X1432560Y596900D03*
X1432560Y622300D03*
D13*
X1126490Y127540D03*
X1126490Y152940D03*
X1126490Y178340D03*
X1126490Y203740D03*
D15*
X414580Y249390D03*
X414580Y223190D03*
X414580Y196990D03*
X414580Y170790D03*
X414580Y144590D03*
X414580Y118390D03*
D13*
X1176020Y355600D03*
X1201420Y355600D03*
X1092200Y355600D03*
X1117600Y355600D03*
D16*
X608330Y424360D02*
X608330Y446860D01*
X640830Y446860D02*
X640830Y424360D01*
X673330Y424360D02*
X673330Y446860D01*
D13*
X271780Y490220D03*
X246380Y490220D03*
X220980Y490220D03*
X195580Y490220D03*
X170180Y490220D03*
X144780Y490220D03*
X119380Y490220D03*
X93980Y490220D03*
X68580Y490220D03*
X43180Y490220D03*
X469900Y483870D03*
X495300Y483870D03*
X444500Y483870D03*
X419100Y483870D03*
X393700Y483870D03*
X368300Y483870D03*
X342900Y483870D03*
X520700Y483870D03*
D17*
X1143000Y127000D03*
X1270000Y127000D03*
X1092200Y127000D03*
X1092200Y177800D03*
X419100Y304800D03*
X350520Y304800D03*
X228600Y431800D03*
X228600Y368300D03*
X977900Y495300D03*
X977900Y393700D03*
X350520Y271780D03*
X254000Y271780D03*
D18*
X1036420Y23590D02*
X1306290Y23590D01*
X1036420Y23590D02*
X990700Y69310D01*
X1306290Y23590D02*
X1409700Y127000D01*
X1409700Y331770D01*
X1432080Y354150D01*
X1432080Y377980D01*
X1460500Y406400D02*
X1460500Y584200D01*
X1447800Y596900D01*
X1432560Y596900D01*
X1460500Y406400D02*
X1432080Y377980D01*
X1346200Y457200D02*
X934169Y457200D01*
X1358900Y469900D02*
X1358900Y495300D01*
X1371600Y508000D01*
D17*
X1371600Y508000D03*
D18*
X1358900Y469900D02*
X1346200Y457200D01*
X838300Y361331D02*
X838300Y317010D01*
X838300Y361331D02*
X934169Y457200D01*
X937279Y431800D02*
X862340Y356860D01*
X1397000Y457200D02*
X1397000Y520700D01*
X1422400Y546100D01*
X1432560Y546100D01*
X1371600Y431800D02*
X937279Y431800D01*
X1371600Y431800D02*
X1397000Y457200D01*
X863700Y317010D02*
X862340Y318370D01*
X862340Y356860D01*
X558800Y190500D02*
X558800Y110490D01*
X504350Y56040D02*
X385349Y56040D01*
X504350Y56040D02*
X558800Y110490D01*
X558800Y190500D02*
X635000Y266700D01*
X711200Y266700D01*
X736700Y292200D02*
X736700Y317010D01*
X736700Y292200D02*
X711200Y266700D01*
X322580Y388620D02*
X304800Y406400D01*
X322580Y388620D02*
X322580Y118809D01*
X385349Y56040D01*
X304800Y406400D02*
X215900Y406400D01*
X195580Y426720D02*
X195580Y490220D01*
X195580Y426720D02*
X215900Y406400D01*
X381000Y431800D02*
X393700Y444500D01*
X393700Y483870D01*
X330200Y431800D02*
X304800Y406400D01*
X330200Y431800D02*
X381000Y431800D01*
X247650Y520700D02*
X220980Y494030D01*
X220980Y490220D01*
X411480Y520700D02*
X444500Y487680D01*
X444500Y483870D01*
X411480Y520700D02*
X247650Y520700D01*
X444500Y485140D02*
X480060Y520700D01*
X444500Y485140D02*
X444500Y483870D01*
D17*
X749300Y406400D03*
D18*
X749300Y482600D01*
X711200Y520700D01*
X480060Y520700D01*
X1117600Y355600D02*
X1117600Y304800D01*
X1054100Y266700D02*
X1041400Y279400D01*
X1054100Y292100D01*
X1104900Y292100D01*
X1114330Y215900D02*
X1126490Y203740D01*
X1104900Y292100D02*
X1117600Y304800D01*
X1054100Y266700D02*
X1054100Y228600D01*
X1066800Y215900D01*
X1114330Y215900D01*
X1041400Y279400D02*
X1003300Y279400D01*
D17*
X1003300Y279400D03*
D18*
X762100Y317010D02*
X762100Y339689D01*
X753649Y348140D01*
X500540Y348140D01*
X469900Y317500D01*
X469900Y203200D01*
X463690Y196990D02*
X414580Y196990D01*
X463690Y196990D02*
X469900Y203200D01*
X381000Y317500D02*
X431800Y368300D01*
X774700Y368300D01*
X787500Y355500D02*
X787500Y317010D01*
X787500Y355500D02*
X774700Y368300D01*
X389890Y143510D02*
X381000Y152400D01*
X389890Y143510D02*
X413500Y143510D01*
X414580Y144590D01*
X381000Y152400D02*
X381000Y317500D01*
X635100Y317010D02*
X635100Y304900D01*
X415030Y170340D02*
X414580Y170790D01*
X415030Y170340D02*
X500540Y170340D01*
X635100Y304900D01*
X812900Y317010D02*
X812900Y292200D01*
X774700Y254000D01*
D17*
X774700Y254000D03*
X914400Y254000D03*
D18*
X1176020Y365760D02*
X1191260Y381000D01*
X1176020Y365760D02*
X1176020Y355600D01*
X1212850Y44450D02*
X1053660Y44450D01*
X1212850Y44450D02*
X1231900Y63500D01*
X1231900Y355600D01*
X1007210Y90900D02*
X1053660Y44450D01*
X1231900Y355600D02*
X1206500Y381000D01*
X1191260Y381000D01*
X939900Y85789D02*
X939900Y69310D01*
X945011Y90900D02*
X1007210Y90900D01*
X945011Y90900D02*
X939900Y85789D01*
X914500Y88900D02*
X914500Y69310D01*
X1019240Y112170D02*
X1066800Y64610D01*
X1196180Y64610D02*
X1207770Y76200D01*
X1196180Y64610D02*
X1066800Y64610D01*
X1207770Y349250D02*
X1201420Y355600D01*
X1207770Y349250D02*
X1207770Y76200D01*
X937770Y112170D02*
X914500Y88900D01*
X937770Y112170D02*
X1019240Y112170D01*
X889100Y114300D02*
X889100Y69310D01*
X1104900Y381000D02*
X1130300Y381000D01*
X1104900Y381000D02*
X1092200Y368300D01*
X1092200Y355600D01*
X1143000Y342900D02*
X1143000Y368300D01*
X1143000Y342900D02*
X1187450Y298450D01*
X1187450Y97470D02*
X1174750Y84770D01*
X1187450Y97470D02*
X1187450Y298450D01*
X1143000Y368300D02*
X1130300Y381000D01*
X1028669Y132330D02*
X1076229Y84770D01*
X907130Y132330D02*
X889100Y114300D01*
X907130Y132330D02*
X1028669Y132330D01*
X1076229Y84770D02*
X1174750Y84770D01*
X1273810Y355600D02*
X1273810Y372110D01*
X1282700Y381000D02*
X1397000Y381000D01*
X1402080Y375920D02*
X1402080Y354150D01*
X1402080Y375920D02*
X1397000Y381000D01*
X1282700Y381000D02*
X1273810Y372110D01*
X838300Y69310D02*
X838300Y50900D01*
X823280Y35880D01*
X376999Y35880D02*
X301689Y111189D01*
X376999Y35880D02*
X823280Y35880D01*
D17*
X301689Y352489D03*
D18*
X301689Y111189D01*
X1046862Y172650D02*
X1066956Y152556D01*
X1126106Y152556D01*
X1126490Y152940D01*
X1046862Y172650D02*
X962660Y172650D01*
X939900Y195410D01*
X939900Y317010D01*
X889100Y162550D02*
X899160Y152490D01*
X1037020Y152490D01*
X889100Y162550D02*
X889100Y317010D01*
X1154110Y104930D02*
X1167290Y118110D01*
X1167290Y166210D01*
X1155160Y178340D02*
X1126490Y178340D01*
X1154110Y104930D02*
X1084580Y104930D01*
X1155160Y178340D02*
X1167290Y166210D01*
X1084580Y104930D02*
X1037020Y152490D01*
M02*
