G04 EAGLE Gerber RS-274X export*
G75*
%MOMM*%
%FSLAX34Y34*%
%LPD*%
%INSilkscreen Bottom*%
%IPPOS*%
%AMOC8*
5,1,8,0,0,1.08239X$1,22.5*%
G01*
%ADD10C,0.127000*%
%ADD11C,0.101600*%


D10*
X1113790Y40640D02*
X1113790Y290640D01*
X1463790Y290640D01*
X1463790Y40640D01*
X1113790Y40640D01*
X1440533Y110800D02*
X1440533Y113383D01*
X1431925Y113383D01*
X1431925Y108218D01*
X1431927Y108103D01*
X1431933Y107988D01*
X1431942Y107873D01*
X1431956Y107759D01*
X1431973Y107645D01*
X1431994Y107532D01*
X1432019Y107420D01*
X1432047Y107308D01*
X1432080Y107198D01*
X1432116Y107089D01*
X1432155Y106981D01*
X1432198Y106874D01*
X1432245Y106769D01*
X1432295Y106665D01*
X1432349Y106563D01*
X1432406Y106463D01*
X1432466Y106365D01*
X1432529Y106269D01*
X1432596Y106176D01*
X1432666Y106084D01*
X1432739Y105995D01*
X1432814Y105908D01*
X1432893Y105824D01*
X1432974Y105743D01*
X1433058Y105664D01*
X1433145Y105589D01*
X1433234Y105516D01*
X1433326Y105446D01*
X1433419Y105379D01*
X1433515Y105316D01*
X1433613Y105256D01*
X1433713Y105199D01*
X1433815Y105145D01*
X1433919Y105095D01*
X1434024Y105048D01*
X1434131Y105005D01*
X1434239Y104966D01*
X1434348Y104930D01*
X1434458Y104897D01*
X1434570Y104869D01*
X1434682Y104844D01*
X1434795Y104823D01*
X1434909Y104806D01*
X1435023Y104792D01*
X1435138Y104783D01*
X1435253Y104777D01*
X1435368Y104775D01*
X1443976Y104775D01*
X1444091Y104777D01*
X1444206Y104783D01*
X1444321Y104792D01*
X1444435Y104806D01*
X1444549Y104823D01*
X1444662Y104844D01*
X1444774Y104869D01*
X1444886Y104897D01*
X1444996Y104930D01*
X1445105Y104966D01*
X1445213Y105005D01*
X1445320Y105048D01*
X1445425Y105095D01*
X1445529Y105145D01*
X1445631Y105199D01*
X1445731Y105256D01*
X1445829Y105316D01*
X1445925Y105379D01*
X1446018Y105446D01*
X1446110Y105516D01*
X1446199Y105589D01*
X1446286Y105664D01*
X1446370Y105743D01*
X1446451Y105824D01*
X1446529Y105908D01*
X1446605Y105995D01*
X1446678Y106084D01*
X1446748Y106176D01*
X1446815Y106269D01*
X1446878Y106365D01*
X1446938Y106463D01*
X1446995Y106563D01*
X1447049Y106665D01*
X1447099Y106769D01*
X1447146Y106874D01*
X1447189Y106981D01*
X1447228Y107089D01*
X1447264Y107198D01*
X1447297Y107308D01*
X1447325Y107420D01*
X1447350Y107532D01*
X1447371Y107645D01*
X1447388Y107759D01*
X1447402Y107873D01*
X1447411Y107988D01*
X1447417Y108103D01*
X1447419Y108218D01*
X1447419Y113383D01*
X1447419Y120829D02*
X1431925Y120829D01*
X1447419Y120829D02*
X1447419Y125133D01*
X1447417Y125263D01*
X1447411Y125393D01*
X1447401Y125523D01*
X1447388Y125652D01*
X1447370Y125781D01*
X1447349Y125909D01*
X1447323Y126036D01*
X1447294Y126163D01*
X1447261Y126289D01*
X1447224Y126413D01*
X1447184Y126537D01*
X1447139Y126659D01*
X1447091Y126780D01*
X1447040Y126899D01*
X1446985Y127017D01*
X1446926Y127133D01*
X1446864Y127247D01*
X1446798Y127360D01*
X1446729Y127470D01*
X1446657Y127578D01*
X1446582Y127684D01*
X1446503Y127787D01*
X1446421Y127888D01*
X1446337Y127987D01*
X1446249Y128083D01*
X1446158Y128176D01*
X1446065Y128267D01*
X1445969Y128355D01*
X1445870Y128439D01*
X1445769Y128521D01*
X1445666Y128600D01*
X1445560Y128675D01*
X1445452Y128747D01*
X1445342Y128816D01*
X1445229Y128882D01*
X1445115Y128944D01*
X1444999Y129003D01*
X1444881Y129058D01*
X1444762Y129109D01*
X1444641Y129157D01*
X1444519Y129202D01*
X1444395Y129242D01*
X1444271Y129279D01*
X1444145Y129312D01*
X1444018Y129341D01*
X1443891Y129367D01*
X1443763Y129388D01*
X1443634Y129406D01*
X1443505Y129419D01*
X1443375Y129429D01*
X1443245Y129435D01*
X1443115Y129437D01*
X1442985Y129435D01*
X1442855Y129429D01*
X1442725Y129419D01*
X1442596Y129406D01*
X1442467Y129388D01*
X1442339Y129367D01*
X1442212Y129341D01*
X1442085Y129312D01*
X1441959Y129279D01*
X1441835Y129242D01*
X1441711Y129202D01*
X1441589Y129157D01*
X1441468Y129109D01*
X1441349Y129058D01*
X1441231Y129003D01*
X1441115Y128944D01*
X1441001Y128882D01*
X1440888Y128816D01*
X1440778Y128747D01*
X1440670Y128675D01*
X1440564Y128600D01*
X1440461Y128521D01*
X1440360Y128439D01*
X1440261Y128355D01*
X1440165Y128267D01*
X1440072Y128176D01*
X1439981Y128083D01*
X1439893Y127987D01*
X1439809Y127888D01*
X1439727Y127787D01*
X1439648Y127684D01*
X1439573Y127578D01*
X1439501Y127470D01*
X1439432Y127360D01*
X1439366Y127247D01*
X1439304Y127133D01*
X1439245Y127017D01*
X1439190Y126899D01*
X1439139Y126780D01*
X1439091Y126659D01*
X1439046Y126537D01*
X1439006Y126413D01*
X1438969Y126289D01*
X1438936Y126163D01*
X1438907Y126036D01*
X1438881Y125909D01*
X1438860Y125781D01*
X1438842Y125652D01*
X1438829Y125523D01*
X1438819Y125393D01*
X1438813Y125263D01*
X1438811Y125133D01*
X1438811Y120829D01*
X1431925Y139671D02*
X1431927Y139786D01*
X1431933Y139901D01*
X1431942Y140016D01*
X1431956Y140130D01*
X1431973Y140244D01*
X1431994Y140357D01*
X1432019Y140469D01*
X1432047Y140581D01*
X1432080Y140691D01*
X1432116Y140800D01*
X1432155Y140908D01*
X1432198Y141015D01*
X1432245Y141120D01*
X1432295Y141224D01*
X1432349Y141326D01*
X1432406Y141426D01*
X1432466Y141524D01*
X1432529Y141620D01*
X1432596Y141713D01*
X1432666Y141805D01*
X1432739Y141894D01*
X1432815Y141981D01*
X1432893Y142065D01*
X1432974Y142146D01*
X1433058Y142225D01*
X1433145Y142300D01*
X1433234Y142373D01*
X1433326Y142443D01*
X1433419Y142510D01*
X1433515Y142573D01*
X1433613Y142633D01*
X1433713Y142690D01*
X1433815Y142744D01*
X1433919Y142794D01*
X1434024Y142841D01*
X1434131Y142884D01*
X1434239Y142923D01*
X1434348Y142959D01*
X1434458Y142992D01*
X1434570Y143020D01*
X1434682Y143045D01*
X1434795Y143066D01*
X1434909Y143083D01*
X1435023Y143097D01*
X1435138Y143106D01*
X1435253Y143112D01*
X1435368Y143114D01*
X1431925Y139671D02*
X1431927Y139497D01*
X1431933Y139323D01*
X1431944Y139149D01*
X1431958Y138976D01*
X1431977Y138803D01*
X1432000Y138631D01*
X1432027Y138459D01*
X1432058Y138287D01*
X1432093Y138117D01*
X1432132Y137947D01*
X1432175Y137779D01*
X1432223Y137611D01*
X1432274Y137445D01*
X1432329Y137280D01*
X1432388Y137116D01*
X1432451Y136954D01*
X1432518Y136794D01*
X1432589Y136635D01*
X1432664Y136477D01*
X1432742Y136322D01*
X1432824Y136168D01*
X1432910Y136017D01*
X1432999Y135868D01*
X1433092Y135720D01*
X1433188Y135575D01*
X1433288Y135433D01*
X1433391Y135293D01*
X1433497Y135155D01*
X1433607Y135020D01*
X1433720Y134887D01*
X1433836Y134758D01*
X1433955Y134631D01*
X1434077Y134507D01*
X1443976Y134937D02*
X1444091Y134939D01*
X1444206Y134945D01*
X1444321Y134954D01*
X1444435Y134968D01*
X1444549Y134985D01*
X1444662Y135006D01*
X1444774Y135031D01*
X1444886Y135059D01*
X1444996Y135092D01*
X1445105Y135128D01*
X1445213Y135167D01*
X1445320Y135210D01*
X1445425Y135257D01*
X1445529Y135307D01*
X1445631Y135361D01*
X1445731Y135418D01*
X1445829Y135478D01*
X1445925Y135541D01*
X1446018Y135608D01*
X1446110Y135678D01*
X1446199Y135751D01*
X1446286Y135826D01*
X1446370Y135905D01*
X1446451Y135986D01*
X1446530Y136070D01*
X1446605Y136157D01*
X1446678Y136246D01*
X1446748Y136338D01*
X1446815Y136431D01*
X1446878Y136527D01*
X1446938Y136625D01*
X1446995Y136725D01*
X1447049Y136827D01*
X1447099Y136931D01*
X1447146Y137036D01*
X1447189Y137143D01*
X1447228Y137251D01*
X1447264Y137360D01*
X1447297Y137470D01*
X1447325Y137582D01*
X1447350Y137694D01*
X1447371Y137807D01*
X1447388Y137921D01*
X1447402Y138035D01*
X1447411Y138150D01*
X1447417Y138265D01*
X1447419Y138380D01*
X1447417Y138540D01*
X1447411Y138699D01*
X1447401Y138859D01*
X1447387Y139018D01*
X1447370Y139177D01*
X1447348Y139335D01*
X1447322Y139493D01*
X1447293Y139650D01*
X1447259Y139806D01*
X1447222Y139962D01*
X1447181Y140116D01*
X1447136Y140269D01*
X1447088Y140422D01*
X1447035Y140573D01*
X1446979Y140722D01*
X1446919Y140870D01*
X1446856Y141017D01*
X1446789Y141162D01*
X1446718Y141305D01*
X1446644Y141447D01*
X1446566Y141587D01*
X1446485Y141724D01*
X1446401Y141860D01*
X1446313Y141993D01*
X1446222Y142125D01*
X1446128Y142254D01*
X1440963Y136659D02*
X1441024Y136559D01*
X1441089Y136461D01*
X1441156Y136365D01*
X1441227Y136272D01*
X1441301Y136181D01*
X1441378Y136093D01*
X1441458Y136007D01*
X1441541Y135924D01*
X1441626Y135844D01*
X1441714Y135767D01*
X1441805Y135693D01*
X1441898Y135622D01*
X1441993Y135553D01*
X1442091Y135489D01*
X1442190Y135427D01*
X1442292Y135369D01*
X1442396Y135314D01*
X1442501Y135263D01*
X1442608Y135216D01*
X1442717Y135172D01*
X1442827Y135131D01*
X1442938Y135095D01*
X1443050Y135062D01*
X1443164Y135033D01*
X1443278Y135007D01*
X1443393Y134986D01*
X1443509Y134968D01*
X1443625Y134955D01*
X1443742Y134945D01*
X1443859Y134939D01*
X1443976Y134937D01*
X1438381Y141392D02*
X1438320Y141492D01*
X1438255Y141590D01*
X1438188Y141686D01*
X1438117Y141779D01*
X1438043Y141870D01*
X1437966Y141958D01*
X1437886Y142044D01*
X1437803Y142127D01*
X1437718Y142207D01*
X1437630Y142284D01*
X1437539Y142358D01*
X1437446Y142429D01*
X1437351Y142498D01*
X1437253Y142562D01*
X1437154Y142624D01*
X1437052Y142682D01*
X1436948Y142737D01*
X1436843Y142788D01*
X1436736Y142835D01*
X1436627Y142879D01*
X1436517Y142920D01*
X1436406Y142956D01*
X1436294Y142989D01*
X1436180Y143018D01*
X1436066Y143044D01*
X1435951Y143065D01*
X1435835Y143083D01*
X1435719Y143096D01*
X1435602Y143106D01*
X1435485Y143112D01*
X1435368Y143114D01*
X1438381Y141393D02*
X1440963Y136659D01*
X1442254Y157431D02*
X1431925Y157431D01*
X1442254Y157431D02*
X1442254Y165178D01*
X1442252Y165277D01*
X1442246Y165376D01*
X1442237Y165474D01*
X1442224Y165572D01*
X1442207Y165670D01*
X1442186Y165766D01*
X1442162Y165862D01*
X1442134Y165957D01*
X1442102Y166051D01*
X1442067Y166143D01*
X1442028Y166234D01*
X1441986Y166324D01*
X1441940Y166411D01*
X1441891Y166497D01*
X1441839Y166581D01*
X1441784Y166663D01*
X1441725Y166743D01*
X1441664Y166821D01*
X1441600Y166896D01*
X1441532Y166968D01*
X1441462Y167038D01*
X1441390Y167106D01*
X1441315Y167170D01*
X1441237Y167231D01*
X1441157Y167290D01*
X1441075Y167345D01*
X1440991Y167397D01*
X1440905Y167446D01*
X1440818Y167492D01*
X1440728Y167534D01*
X1440637Y167573D01*
X1440545Y167608D01*
X1440451Y167640D01*
X1440356Y167668D01*
X1440260Y167692D01*
X1440164Y167713D01*
X1440066Y167730D01*
X1439968Y167743D01*
X1439870Y167752D01*
X1439771Y167758D01*
X1439672Y167760D01*
X1431925Y167760D01*
X1431925Y162596D02*
X1442254Y162596D01*
X1438811Y174514D02*
X1435368Y174514D01*
X1438811Y174514D02*
X1438927Y174516D01*
X1439043Y174522D01*
X1439159Y174532D01*
X1439275Y174545D01*
X1439390Y174563D01*
X1439504Y174584D01*
X1439618Y174610D01*
X1439730Y174639D01*
X1439842Y174672D01*
X1439952Y174709D01*
X1440061Y174749D01*
X1440169Y174793D01*
X1440275Y174841D01*
X1440379Y174892D01*
X1440482Y174947D01*
X1440583Y175005D01*
X1440681Y175066D01*
X1440778Y175131D01*
X1440872Y175199D01*
X1440964Y175270D01*
X1441054Y175345D01*
X1441141Y175422D01*
X1441225Y175502D01*
X1441306Y175585D01*
X1441385Y175671D01*
X1441461Y175759D01*
X1441534Y175850D01*
X1441603Y175943D01*
X1441670Y176038D01*
X1441733Y176136D01*
X1441793Y176235D01*
X1441849Y176337D01*
X1441902Y176441D01*
X1441952Y176546D01*
X1441997Y176653D01*
X1442040Y176761D01*
X1442078Y176871D01*
X1442113Y176982D01*
X1442144Y177094D01*
X1442171Y177207D01*
X1442195Y177321D01*
X1442214Y177436D01*
X1442230Y177551D01*
X1442242Y177667D01*
X1442250Y177783D01*
X1442254Y177899D01*
X1442254Y178015D01*
X1442250Y178131D01*
X1442242Y178247D01*
X1442230Y178363D01*
X1442214Y178478D01*
X1442195Y178593D01*
X1442171Y178707D01*
X1442144Y178820D01*
X1442113Y178932D01*
X1442078Y179043D01*
X1442040Y179153D01*
X1441997Y179261D01*
X1441952Y179368D01*
X1441902Y179473D01*
X1441849Y179577D01*
X1441793Y179678D01*
X1441733Y179778D01*
X1441670Y179876D01*
X1441603Y179971D01*
X1441534Y180064D01*
X1441461Y180155D01*
X1441385Y180243D01*
X1441306Y180329D01*
X1441225Y180412D01*
X1441141Y180492D01*
X1441054Y180569D01*
X1440964Y180644D01*
X1440872Y180715D01*
X1440778Y180783D01*
X1440681Y180848D01*
X1440583Y180909D01*
X1440482Y180967D01*
X1440379Y181022D01*
X1440275Y181073D01*
X1440169Y181121D01*
X1440061Y181165D01*
X1439952Y181205D01*
X1439842Y181242D01*
X1439730Y181275D01*
X1439618Y181304D01*
X1439504Y181330D01*
X1439390Y181351D01*
X1439275Y181369D01*
X1439159Y181382D01*
X1439043Y181392D01*
X1438927Y181398D01*
X1438811Y181400D01*
X1435368Y181400D01*
X1435252Y181398D01*
X1435136Y181392D01*
X1435020Y181382D01*
X1434904Y181369D01*
X1434789Y181351D01*
X1434675Y181330D01*
X1434561Y181304D01*
X1434449Y181275D01*
X1434337Y181242D01*
X1434227Y181205D01*
X1434118Y181165D01*
X1434010Y181121D01*
X1433904Y181073D01*
X1433800Y181022D01*
X1433697Y180967D01*
X1433596Y180909D01*
X1433498Y180848D01*
X1433401Y180783D01*
X1433307Y180715D01*
X1433215Y180644D01*
X1433125Y180569D01*
X1433038Y180492D01*
X1432954Y180412D01*
X1432873Y180329D01*
X1432794Y180243D01*
X1432718Y180155D01*
X1432645Y180064D01*
X1432576Y179971D01*
X1432509Y179876D01*
X1432446Y179778D01*
X1432386Y179679D01*
X1432330Y179577D01*
X1432277Y179473D01*
X1432227Y179368D01*
X1432182Y179261D01*
X1432139Y179153D01*
X1432101Y179043D01*
X1432066Y178932D01*
X1432035Y178820D01*
X1432008Y178707D01*
X1431984Y178593D01*
X1431965Y178478D01*
X1431949Y178363D01*
X1431937Y178247D01*
X1431929Y178131D01*
X1431925Y178015D01*
X1431925Y177899D01*
X1431929Y177783D01*
X1431937Y177667D01*
X1431949Y177551D01*
X1431965Y177436D01*
X1431984Y177321D01*
X1432008Y177207D01*
X1432035Y177094D01*
X1432066Y176982D01*
X1432101Y176871D01*
X1432139Y176761D01*
X1432182Y176653D01*
X1432227Y176546D01*
X1432277Y176441D01*
X1432330Y176337D01*
X1432386Y176236D01*
X1432446Y176136D01*
X1432509Y176038D01*
X1432576Y175943D01*
X1432645Y175850D01*
X1432718Y175759D01*
X1432794Y175671D01*
X1432873Y175585D01*
X1432954Y175502D01*
X1433038Y175422D01*
X1433125Y175345D01*
X1433215Y175270D01*
X1433307Y175199D01*
X1433401Y175131D01*
X1433498Y175066D01*
X1433596Y175005D01*
X1433697Y174947D01*
X1433800Y174892D01*
X1433904Y174841D01*
X1434010Y174793D01*
X1434118Y174749D01*
X1434227Y174709D01*
X1434337Y174672D01*
X1434449Y174639D01*
X1434561Y174610D01*
X1434675Y174584D01*
X1434789Y174563D01*
X1434904Y174545D01*
X1435020Y174532D01*
X1435136Y174522D01*
X1435252Y174516D01*
X1435368Y174514D01*
X1431925Y194215D02*
X1447419Y194215D01*
X1431925Y194215D02*
X1431925Y189911D01*
X1431927Y189812D01*
X1431933Y189713D01*
X1431942Y189615D01*
X1431955Y189517D01*
X1431972Y189419D01*
X1431993Y189323D01*
X1432017Y189227D01*
X1432045Y189132D01*
X1432077Y189038D01*
X1432112Y188946D01*
X1432151Y188855D01*
X1432193Y188765D01*
X1432239Y188678D01*
X1432288Y188592D01*
X1432340Y188508D01*
X1432395Y188426D01*
X1432454Y188346D01*
X1432515Y188268D01*
X1432579Y188193D01*
X1432647Y188121D01*
X1432717Y188051D01*
X1432789Y187983D01*
X1432864Y187919D01*
X1432942Y187858D01*
X1433022Y187799D01*
X1433104Y187744D01*
X1433188Y187692D01*
X1433274Y187643D01*
X1433361Y187597D01*
X1433451Y187555D01*
X1433542Y187516D01*
X1433634Y187481D01*
X1433728Y187449D01*
X1433823Y187421D01*
X1433919Y187397D01*
X1434015Y187376D01*
X1434113Y187359D01*
X1434211Y187346D01*
X1434309Y187337D01*
X1434408Y187331D01*
X1434507Y187329D01*
X1439672Y187329D01*
X1439771Y187331D01*
X1439870Y187337D01*
X1439968Y187346D01*
X1440066Y187359D01*
X1440164Y187376D01*
X1440260Y187397D01*
X1440356Y187421D01*
X1440451Y187449D01*
X1440545Y187481D01*
X1440637Y187516D01*
X1440728Y187555D01*
X1440818Y187597D01*
X1440905Y187643D01*
X1440991Y187692D01*
X1441075Y187744D01*
X1441157Y187799D01*
X1441237Y187858D01*
X1441315Y187919D01*
X1441390Y187983D01*
X1441462Y188051D01*
X1441532Y188121D01*
X1441600Y188193D01*
X1441664Y188268D01*
X1441725Y188346D01*
X1441784Y188426D01*
X1441839Y188508D01*
X1441891Y188592D01*
X1441940Y188678D01*
X1441986Y188765D01*
X1442028Y188855D01*
X1442067Y188946D01*
X1442102Y189038D01*
X1442134Y189132D01*
X1442162Y189227D01*
X1442186Y189323D01*
X1442207Y189419D01*
X1442224Y189517D01*
X1442237Y189615D01*
X1442246Y189713D01*
X1442252Y189812D01*
X1442254Y189911D01*
X1442254Y194215D01*
X1442254Y201272D02*
X1434507Y201272D01*
X1434507Y201273D02*
X1434408Y201275D01*
X1434309Y201281D01*
X1434211Y201290D01*
X1434113Y201303D01*
X1434015Y201320D01*
X1433919Y201341D01*
X1433823Y201365D01*
X1433728Y201393D01*
X1433634Y201425D01*
X1433542Y201460D01*
X1433451Y201499D01*
X1433361Y201541D01*
X1433274Y201587D01*
X1433188Y201636D01*
X1433104Y201688D01*
X1433022Y201743D01*
X1432942Y201802D01*
X1432864Y201863D01*
X1432789Y201927D01*
X1432717Y201995D01*
X1432647Y202065D01*
X1432579Y202137D01*
X1432515Y202212D01*
X1432454Y202290D01*
X1432395Y202370D01*
X1432340Y202452D01*
X1432288Y202536D01*
X1432239Y202622D01*
X1432193Y202709D01*
X1432151Y202799D01*
X1432112Y202890D01*
X1432077Y202982D01*
X1432045Y203076D01*
X1432017Y203171D01*
X1431993Y203267D01*
X1431972Y203363D01*
X1431955Y203461D01*
X1431942Y203559D01*
X1431933Y203657D01*
X1431927Y203756D01*
X1431925Y203855D01*
X1431925Y208159D01*
X1442254Y208159D01*
X1447419Y214880D02*
X1434507Y214880D01*
X1434507Y214881D02*
X1434408Y214883D01*
X1434309Y214889D01*
X1434211Y214898D01*
X1434113Y214911D01*
X1434015Y214928D01*
X1433919Y214949D01*
X1433823Y214973D01*
X1433728Y215001D01*
X1433634Y215033D01*
X1433542Y215068D01*
X1433451Y215107D01*
X1433361Y215149D01*
X1433274Y215195D01*
X1433188Y215244D01*
X1433104Y215296D01*
X1433022Y215351D01*
X1432942Y215410D01*
X1432864Y215471D01*
X1432789Y215535D01*
X1432717Y215603D01*
X1432647Y215673D01*
X1432579Y215745D01*
X1432515Y215820D01*
X1432454Y215898D01*
X1432395Y215978D01*
X1432340Y216060D01*
X1432288Y216144D01*
X1432239Y216230D01*
X1432193Y216317D01*
X1432151Y216407D01*
X1432112Y216498D01*
X1432077Y216590D01*
X1432045Y216684D01*
X1432017Y216779D01*
X1431993Y216875D01*
X1431972Y216971D01*
X1431955Y217069D01*
X1431942Y217167D01*
X1431933Y217265D01*
X1431927Y217364D01*
X1431925Y217463D01*
X1431925Y225162D02*
X1431925Y229466D01*
X1431925Y225162D02*
X1431927Y225063D01*
X1431933Y224964D01*
X1431942Y224866D01*
X1431955Y224768D01*
X1431972Y224670D01*
X1431993Y224574D01*
X1432017Y224478D01*
X1432045Y224383D01*
X1432077Y224289D01*
X1432112Y224197D01*
X1432151Y224106D01*
X1432193Y224016D01*
X1432239Y223929D01*
X1432288Y223843D01*
X1432340Y223759D01*
X1432395Y223677D01*
X1432454Y223597D01*
X1432515Y223519D01*
X1432579Y223444D01*
X1432647Y223372D01*
X1432717Y223302D01*
X1432789Y223234D01*
X1432864Y223170D01*
X1432942Y223109D01*
X1433022Y223050D01*
X1433104Y222995D01*
X1433188Y222943D01*
X1433274Y222894D01*
X1433361Y222848D01*
X1433451Y222806D01*
X1433542Y222767D01*
X1433634Y222732D01*
X1433728Y222700D01*
X1433823Y222672D01*
X1433919Y222648D01*
X1434015Y222627D01*
X1434113Y222610D01*
X1434211Y222597D01*
X1434309Y222588D01*
X1434408Y222582D01*
X1434507Y222580D01*
X1438811Y222580D01*
X1438927Y222582D01*
X1439043Y222588D01*
X1439159Y222598D01*
X1439275Y222611D01*
X1439390Y222629D01*
X1439504Y222650D01*
X1439618Y222676D01*
X1439730Y222705D01*
X1439842Y222738D01*
X1439952Y222775D01*
X1440061Y222815D01*
X1440169Y222859D01*
X1440275Y222907D01*
X1440379Y222958D01*
X1440482Y223013D01*
X1440583Y223071D01*
X1440681Y223132D01*
X1440778Y223197D01*
X1440872Y223265D01*
X1440964Y223336D01*
X1441054Y223411D01*
X1441141Y223488D01*
X1441225Y223568D01*
X1441306Y223651D01*
X1441385Y223737D01*
X1441461Y223825D01*
X1441534Y223916D01*
X1441603Y224009D01*
X1441670Y224104D01*
X1441733Y224202D01*
X1441793Y224301D01*
X1441849Y224403D01*
X1441902Y224507D01*
X1441952Y224612D01*
X1441997Y224719D01*
X1442040Y224827D01*
X1442078Y224937D01*
X1442113Y225048D01*
X1442144Y225160D01*
X1442171Y225273D01*
X1442195Y225387D01*
X1442214Y225502D01*
X1442230Y225617D01*
X1442242Y225733D01*
X1442250Y225849D01*
X1442254Y225965D01*
X1442254Y226081D01*
X1442250Y226197D01*
X1442242Y226313D01*
X1442230Y226429D01*
X1442214Y226544D01*
X1442195Y226659D01*
X1442171Y226773D01*
X1442144Y226886D01*
X1442113Y226998D01*
X1442078Y227109D01*
X1442040Y227219D01*
X1441997Y227327D01*
X1441952Y227434D01*
X1441902Y227539D01*
X1441849Y227643D01*
X1441793Y227744D01*
X1441733Y227844D01*
X1441670Y227942D01*
X1441603Y228037D01*
X1441534Y228130D01*
X1441461Y228221D01*
X1441385Y228309D01*
X1441306Y228395D01*
X1441225Y228478D01*
X1441141Y228558D01*
X1441054Y228635D01*
X1440964Y228710D01*
X1440872Y228781D01*
X1440778Y228849D01*
X1440681Y228914D01*
X1440583Y228975D01*
X1440482Y229033D01*
X1440379Y229088D01*
X1440275Y229139D01*
X1440169Y229187D01*
X1440061Y229231D01*
X1439952Y229271D01*
X1439842Y229308D01*
X1439730Y229341D01*
X1439618Y229370D01*
X1439504Y229396D01*
X1439390Y229417D01*
X1439275Y229435D01*
X1439159Y229448D01*
X1439043Y229458D01*
X1438927Y229464D01*
X1438811Y229466D01*
X1437090Y229466D01*
X1437090Y222580D01*
X449580Y60990D02*
X29580Y60990D01*
X29580Y300990D01*
X449580Y300990D01*
X449580Y60990D01*
X59580Y100990D02*
X59580Y260990D01*
X59580Y100990D02*
X219580Y100990D01*
X219580Y260990D01*
X59580Y260990D01*
X39580Y280990D02*
X39583Y281235D01*
X39592Y281481D01*
X39607Y281726D01*
X39628Y281970D01*
X39655Y282214D01*
X39688Y282457D01*
X39727Y282700D01*
X39772Y282941D01*
X39823Y283181D01*
X39880Y283420D01*
X39942Y283657D01*
X40011Y283893D01*
X40085Y284127D01*
X40165Y284359D01*
X40250Y284589D01*
X40341Y284817D01*
X40438Y285042D01*
X40540Y285266D01*
X40648Y285486D01*
X40761Y285704D01*
X40879Y285919D01*
X41003Y286131D01*
X41131Y286340D01*
X41265Y286546D01*
X41404Y286748D01*
X41548Y286947D01*
X41697Y287142D01*
X41850Y287334D01*
X42008Y287522D01*
X42170Y287706D01*
X42338Y287885D01*
X42509Y288061D01*
X42685Y288232D01*
X42864Y288400D01*
X43048Y288562D01*
X43236Y288720D01*
X43428Y288873D01*
X43623Y289022D01*
X43822Y289166D01*
X44024Y289305D01*
X44230Y289439D01*
X44439Y289567D01*
X44651Y289691D01*
X44866Y289809D01*
X45084Y289922D01*
X45304Y290030D01*
X45528Y290132D01*
X45753Y290229D01*
X45981Y290320D01*
X46211Y290405D01*
X46443Y290485D01*
X46677Y290559D01*
X46913Y290628D01*
X47150Y290690D01*
X47389Y290747D01*
X47629Y290798D01*
X47870Y290843D01*
X48113Y290882D01*
X48356Y290915D01*
X48600Y290942D01*
X48844Y290963D01*
X49089Y290978D01*
X49335Y290987D01*
X49580Y290990D01*
X49825Y290987D01*
X50071Y290978D01*
X50316Y290963D01*
X50560Y290942D01*
X50804Y290915D01*
X51047Y290882D01*
X51290Y290843D01*
X51531Y290798D01*
X51771Y290747D01*
X52010Y290690D01*
X52247Y290628D01*
X52483Y290559D01*
X52717Y290485D01*
X52949Y290405D01*
X53179Y290320D01*
X53407Y290229D01*
X53632Y290132D01*
X53856Y290030D01*
X54076Y289922D01*
X54294Y289809D01*
X54509Y289691D01*
X54721Y289567D01*
X54930Y289439D01*
X55136Y289305D01*
X55338Y289166D01*
X55537Y289022D01*
X55732Y288873D01*
X55924Y288720D01*
X56112Y288562D01*
X56296Y288400D01*
X56475Y288232D01*
X56651Y288061D01*
X56822Y287885D01*
X56990Y287706D01*
X57152Y287522D01*
X57310Y287334D01*
X57463Y287142D01*
X57612Y286947D01*
X57756Y286748D01*
X57895Y286546D01*
X58029Y286340D01*
X58157Y286131D01*
X58281Y285919D01*
X58399Y285704D01*
X58512Y285486D01*
X58620Y285266D01*
X58722Y285042D01*
X58819Y284817D01*
X58910Y284589D01*
X58995Y284359D01*
X59075Y284127D01*
X59149Y283893D01*
X59218Y283657D01*
X59280Y283420D01*
X59337Y283181D01*
X59388Y282941D01*
X59433Y282700D01*
X59472Y282457D01*
X59505Y282214D01*
X59532Y281970D01*
X59553Y281726D01*
X59568Y281481D01*
X59577Y281235D01*
X59580Y280990D01*
X59577Y280745D01*
X59568Y280499D01*
X59553Y280254D01*
X59532Y280010D01*
X59505Y279766D01*
X59472Y279523D01*
X59433Y279280D01*
X59388Y279039D01*
X59337Y278799D01*
X59280Y278560D01*
X59218Y278323D01*
X59149Y278087D01*
X59075Y277853D01*
X58995Y277621D01*
X58910Y277391D01*
X58819Y277163D01*
X58722Y276938D01*
X58620Y276714D01*
X58512Y276494D01*
X58399Y276276D01*
X58281Y276061D01*
X58157Y275849D01*
X58029Y275640D01*
X57895Y275434D01*
X57756Y275232D01*
X57612Y275033D01*
X57463Y274838D01*
X57310Y274646D01*
X57152Y274458D01*
X56990Y274274D01*
X56822Y274095D01*
X56651Y273919D01*
X56475Y273748D01*
X56296Y273580D01*
X56112Y273418D01*
X55924Y273260D01*
X55732Y273107D01*
X55537Y272958D01*
X55338Y272814D01*
X55136Y272675D01*
X54930Y272541D01*
X54721Y272413D01*
X54509Y272289D01*
X54294Y272171D01*
X54076Y272058D01*
X53856Y271950D01*
X53632Y271848D01*
X53407Y271751D01*
X53179Y271660D01*
X52949Y271575D01*
X52717Y271495D01*
X52483Y271421D01*
X52247Y271352D01*
X52010Y271290D01*
X51771Y271233D01*
X51531Y271182D01*
X51290Y271137D01*
X51047Y271098D01*
X50804Y271065D01*
X50560Y271038D01*
X50316Y271017D01*
X50071Y271002D01*
X49825Y270993D01*
X49580Y270990D01*
X49335Y270993D01*
X49089Y271002D01*
X48844Y271017D01*
X48600Y271038D01*
X48356Y271065D01*
X48113Y271098D01*
X47870Y271137D01*
X47629Y271182D01*
X47389Y271233D01*
X47150Y271290D01*
X46913Y271352D01*
X46677Y271421D01*
X46443Y271495D01*
X46211Y271575D01*
X45981Y271660D01*
X45753Y271751D01*
X45528Y271848D01*
X45304Y271950D01*
X45084Y272058D01*
X44866Y272171D01*
X44651Y272289D01*
X44439Y272413D01*
X44230Y272541D01*
X44024Y272675D01*
X43822Y272814D01*
X43623Y272958D01*
X43428Y273107D01*
X43236Y273260D01*
X43048Y273418D01*
X42864Y273580D01*
X42685Y273748D01*
X42509Y273919D01*
X42338Y274095D01*
X42170Y274274D01*
X42008Y274458D01*
X41850Y274646D01*
X41697Y274838D01*
X41548Y275033D01*
X41404Y275232D01*
X41265Y275434D01*
X41131Y275640D01*
X41003Y275849D01*
X40879Y276061D01*
X40761Y276276D01*
X40648Y276494D01*
X40540Y276714D01*
X40438Y276938D01*
X40341Y277163D01*
X40250Y277391D01*
X40165Y277621D01*
X40085Y277853D01*
X40011Y278087D01*
X39942Y278323D01*
X39880Y278560D01*
X39823Y278799D01*
X39772Y279039D01*
X39727Y279280D01*
X39688Y279523D01*
X39655Y279766D01*
X39628Y280010D01*
X39607Y280254D01*
X39592Y280499D01*
X39583Y280745D01*
X39580Y280990D01*
X39580Y80990D02*
X39583Y81235D01*
X39592Y81481D01*
X39607Y81726D01*
X39628Y81970D01*
X39655Y82214D01*
X39688Y82457D01*
X39727Y82700D01*
X39772Y82941D01*
X39823Y83181D01*
X39880Y83420D01*
X39942Y83657D01*
X40011Y83893D01*
X40085Y84127D01*
X40165Y84359D01*
X40250Y84589D01*
X40341Y84817D01*
X40438Y85042D01*
X40540Y85266D01*
X40648Y85486D01*
X40761Y85704D01*
X40879Y85919D01*
X41003Y86131D01*
X41131Y86340D01*
X41265Y86546D01*
X41404Y86748D01*
X41548Y86947D01*
X41697Y87142D01*
X41850Y87334D01*
X42008Y87522D01*
X42170Y87706D01*
X42338Y87885D01*
X42509Y88061D01*
X42685Y88232D01*
X42864Y88400D01*
X43048Y88562D01*
X43236Y88720D01*
X43428Y88873D01*
X43623Y89022D01*
X43822Y89166D01*
X44024Y89305D01*
X44230Y89439D01*
X44439Y89567D01*
X44651Y89691D01*
X44866Y89809D01*
X45084Y89922D01*
X45304Y90030D01*
X45528Y90132D01*
X45753Y90229D01*
X45981Y90320D01*
X46211Y90405D01*
X46443Y90485D01*
X46677Y90559D01*
X46913Y90628D01*
X47150Y90690D01*
X47389Y90747D01*
X47629Y90798D01*
X47870Y90843D01*
X48113Y90882D01*
X48356Y90915D01*
X48600Y90942D01*
X48844Y90963D01*
X49089Y90978D01*
X49335Y90987D01*
X49580Y90990D01*
X49825Y90987D01*
X50071Y90978D01*
X50316Y90963D01*
X50560Y90942D01*
X50804Y90915D01*
X51047Y90882D01*
X51290Y90843D01*
X51531Y90798D01*
X51771Y90747D01*
X52010Y90690D01*
X52247Y90628D01*
X52483Y90559D01*
X52717Y90485D01*
X52949Y90405D01*
X53179Y90320D01*
X53407Y90229D01*
X53632Y90132D01*
X53856Y90030D01*
X54076Y89922D01*
X54294Y89809D01*
X54509Y89691D01*
X54721Y89567D01*
X54930Y89439D01*
X55136Y89305D01*
X55338Y89166D01*
X55537Y89022D01*
X55732Y88873D01*
X55924Y88720D01*
X56112Y88562D01*
X56296Y88400D01*
X56475Y88232D01*
X56651Y88061D01*
X56822Y87885D01*
X56990Y87706D01*
X57152Y87522D01*
X57310Y87334D01*
X57463Y87142D01*
X57612Y86947D01*
X57756Y86748D01*
X57895Y86546D01*
X58029Y86340D01*
X58157Y86131D01*
X58281Y85919D01*
X58399Y85704D01*
X58512Y85486D01*
X58620Y85266D01*
X58722Y85042D01*
X58819Y84817D01*
X58910Y84589D01*
X58995Y84359D01*
X59075Y84127D01*
X59149Y83893D01*
X59218Y83657D01*
X59280Y83420D01*
X59337Y83181D01*
X59388Y82941D01*
X59433Y82700D01*
X59472Y82457D01*
X59505Y82214D01*
X59532Y81970D01*
X59553Y81726D01*
X59568Y81481D01*
X59577Y81235D01*
X59580Y80990D01*
X59577Y80745D01*
X59568Y80499D01*
X59553Y80254D01*
X59532Y80010D01*
X59505Y79766D01*
X59472Y79523D01*
X59433Y79280D01*
X59388Y79039D01*
X59337Y78799D01*
X59280Y78560D01*
X59218Y78323D01*
X59149Y78087D01*
X59075Y77853D01*
X58995Y77621D01*
X58910Y77391D01*
X58819Y77163D01*
X58722Y76938D01*
X58620Y76714D01*
X58512Y76494D01*
X58399Y76276D01*
X58281Y76061D01*
X58157Y75849D01*
X58029Y75640D01*
X57895Y75434D01*
X57756Y75232D01*
X57612Y75033D01*
X57463Y74838D01*
X57310Y74646D01*
X57152Y74458D01*
X56990Y74274D01*
X56822Y74095D01*
X56651Y73919D01*
X56475Y73748D01*
X56296Y73580D01*
X56112Y73418D01*
X55924Y73260D01*
X55732Y73107D01*
X55537Y72958D01*
X55338Y72814D01*
X55136Y72675D01*
X54930Y72541D01*
X54721Y72413D01*
X54509Y72289D01*
X54294Y72171D01*
X54076Y72058D01*
X53856Y71950D01*
X53632Y71848D01*
X53407Y71751D01*
X53179Y71660D01*
X52949Y71575D01*
X52717Y71495D01*
X52483Y71421D01*
X52247Y71352D01*
X52010Y71290D01*
X51771Y71233D01*
X51531Y71182D01*
X51290Y71137D01*
X51047Y71098D01*
X50804Y71065D01*
X50560Y71038D01*
X50316Y71017D01*
X50071Y71002D01*
X49825Y70993D01*
X49580Y70990D01*
X49335Y70993D01*
X49089Y71002D01*
X48844Y71017D01*
X48600Y71038D01*
X48356Y71065D01*
X48113Y71098D01*
X47870Y71137D01*
X47629Y71182D01*
X47389Y71233D01*
X47150Y71290D01*
X46913Y71352D01*
X46677Y71421D01*
X46443Y71495D01*
X46211Y71575D01*
X45981Y71660D01*
X45753Y71751D01*
X45528Y71848D01*
X45304Y71950D01*
X45084Y72058D01*
X44866Y72171D01*
X44651Y72289D01*
X44439Y72413D01*
X44230Y72541D01*
X44024Y72675D01*
X43822Y72814D01*
X43623Y72958D01*
X43428Y73107D01*
X43236Y73260D01*
X43048Y73418D01*
X42864Y73580D01*
X42685Y73748D01*
X42509Y73919D01*
X42338Y74095D01*
X42170Y74274D01*
X42008Y74458D01*
X41850Y74646D01*
X41697Y74838D01*
X41548Y75033D01*
X41404Y75232D01*
X41265Y75434D01*
X41131Y75640D01*
X41003Y75849D01*
X40879Y76061D01*
X40761Y76276D01*
X40648Y76494D01*
X40540Y76714D01*
X40438Y76938D01*
X40341Y77163D01*
X40250Y77391D01*
X40165Y77621D01*
X40085Y77853D01*
X40011Y78087D01*
X39942Y78323D01*
X39880Y78560D01*
X39823Y78799D01*
X39772Y79039D01*
X39727Y79280D01*
X39688Y79523D01*
X39655Y79766D01*
X39628Y80010D01*
X39607Y80254D01*
X39592Y80499D01*
X39583Y80745D01*
X39580Y80990D01*
X419580Y80990D02*
X419583Y81235D01*
X419592Y81481D01*
X419607Y81726D01*
X419628Y81970D01*
X419655Y82214D01*
X419688Y82457D01*
X419727Y82700D01*
X419772Y82941D01*
X419823Y83181D01*
X419880Y83420D01*
X419942Y83657D01*
X420011Y83893D01*
X420085Y84127D01*
X420165Y84359D01*
X420250Y84589D01*
X420341Y84817D01*
X420438Y85042D01*
X420540Y85266D01*
X420648Y85486D01*
X420761Y85704D01*
X420879Y85919D01*
X421003Y86131D01*
X421131Y86340D01*
X421265Y86546D01*
X421404Y86748D01*
X421548Y86947D01*
X421697Y87142D01*
X421850Y87334D01*
X422008Y87522D01*
X422170Y87706D01*
X422338Y87885D01*
X422509Y88061D01*
X422685Y88232D01*
X422864Y88400D01*
X423048Y88562D01*
X423236Y88720D01*
X423428Y88873D01*
X423623Y89022D01*
X423822Y89166D01*
X424024Y89305D01*
X424230Y89439D01*
X424439Y89567D01*
X424651Y89691D01*
X424866Y89809D01*
X425084Y89922D01*
X425304Y90030D01*
X425528Y90132D01*
X425753Y90229D01*
X425981Y90320D01*
X426211Y90405D01*
X426443Y90485D01*
X426677Y90559D01*
X426913Y90628D01*
X427150Y90690D01*
X427389Y90747D01*
X427629Y90798D01*
X427870Y90843D01*
X428113Y90882D01*
X428356Y90915D01*
X428600Y90942D01*
X428844Y90963D01*
X429089Y90978D01*
X429335Y90987D01*
X429580Y90990D01*
X429825Y90987D01*
X430071Y90978D01*
X430316Y90963D01*
X430560Y90942D01*
X430804Y90915D01*
X431047Y90882D01*
X431290Y90843D01*
X431531Y90798D01*
X431771Y90747D01*
X432010Y90690D01*
X432247Y90628D01*
X432483Y90559D01*
X432717Y90485D01*
X432949Y90405D01*
X433179Y90320D01*
X433407Y90229D01*
X433632Y90132D01*
X433856Y90030D01*
X434076Y89922D01*
X434294Y89809D01*
X434509Y89691D01*
X434721Y89567D01*
X434930Y89439D01*
X435136Y89305D01*
X435338Y89166D01*
X435537Y89022D01*
X435732Y88873D01*
X435924Y88720D01*
X436112Y88562D01*
X436296Y88400D01*
X436475Y88232D01*
X436651Y88061D01*
X436822Y87885D01*
X436990Y87706D01*
X437152Y87522D01*
X437310Y87334D01*
X437463Y87142D01*
X437612Y86947D01*
X437756Y86748D01*
X437895Y86546D01*
X438029Y86340D01*
X438157Y86131D01*
X438281Y85919D01*
X438399Y85704D01*
X438512Y85486D01*
X438620Y85266D01*
X438722Y85042D01*
X438819Y84817D01*
X438910Y84589D01*
X438995Y84359D01*
X439075Y84127D01*
X439149Y83893D01*
X439218Y83657D01*
X439280Y83420D01*
X439337Y83181D01*
X439388Y82941D01*
X439433Y82700D01*
X439472Y82457D01*
X439505Y82214D01*
X439532Y81970D01*
X439553Y81726D01*
X439568Y81481D01*
X439577Y81235D01*
X439580Y80990D01*
X439577Y80745D01*
X439568Y80499D01*
X439553Y80254D01*
X439532Y80010D01*
X439505Y79766D01*
X439472Y79523D01*
X439433Y79280D01*
X439388Y79039D01*
X439337Y78799D01*
X439280Y78560D01*
X439218Y78323D01*
X439149Y78087D01*
X439075Y77853D01*
X438995Y77621D01*
X438910Y77391D01*
X438819Y77163D01*
X438722Y76938D01*
X438620Y76714D01*
X438512Y76494D01*
X438399Y76276D01*
X438281Y76061D01*
X438157Y75849D01*
X438029Y75640D01*
X437895Y75434D01*
X437756Y75232D01*
X437612Y75033D01*
X437463Y74838D01*
X437310Y74646D01*
X437152Y74458D01*
X436990Y74274D01*
X436822Y74095D01*
X436651Y73919D01*
X436475Y73748D01*
X436296Y73580D01*
X436112Y73418D01*
X435924Y73260D01*
X435732Y73107D01*
X435537Y72958D01*
X435338Y72814D01*
X435136Y72675D01*
X434930Y72541D01*
X434721Y72413D01*
X434509Y72289D01*
X434294Y72171D01*
X434076Y72058D01*
X433856Y71950D01*
X433632Y71848D01*
X433407Y71751D01*
X433179Y71660D01*
X432949Y71575D01*
X432717Y71495D01*
X432483Y71421D01*
X432247Y71352D01*
X432010Y71290D01*
X431771Y71233D01*
X431531Y71182D01*
X431290Y71137D01*
X431047Y71098D01*
X430804Y71065D01*
X430560Y71038D01*
X430316Y71017D01*
X430071Y71002D01*
X429825Y70993D01*
X429580Y70990D01*
X429335Y70993D01*
X429089Y71002D01*
X428844Y71017D01*
X428600Y71038D01*
X428356Y71065D01*
X428113Y71098D01*
X427870Y71137D01*
X427629Y71182D01*
X427389Y71233D01*
X427150Y71290D01*
X426913Y71352D01*
X426677Y71421D01*
X426443Y71495D01*
X426211Y71575D01*
X425981Y71660D01*
X425753Y71751D01*
X425528Y71848D01*
X425304Y71950D01*
X425084Y72058D01*
X424866Y72171D01*
X424651Y72289D01*
X424439Y72413D01*
X424230Y72541D01*
X424024Y72675D01*
X423822Y72814D01*
X423623Y72958D01*
X423428Y73107D01*
X423236Y73260D01*
X423048Y73418D01*
X422864Y73580D01*
X422685Y73748D01*
X422509Y73919D01*
X422338Y74095D01*
X422170Y74274D01*
X422008Y74458D01*
X421850Y74646D01*
X421697Y74838D01*
X421548Y75033D01*
X421404Y75232D01*
X421265Y75434D01*
X421131Y75640D01*
X421003Y75849D01*
X420879Y76061D01*
X420761Y76276D01*
X420648Y76494D01*
X420540Y76714D01*
X420438Y76938D01*
X420341Y77163D01*
X420250Y77391D01*
X420165Y77621D01*
X420085Y77853D01*
X420011Y78087D01*
X419942Y78323D01*
X419880Y78560D01*
X419823Y78799D01*
X419772Y79039D01*
X419727Y79280D01*
X419688Y79523D01*
X419655Y79766D01*
X419628Y80010D01*
X419607Y80254D01*
X419592Y80499D01*
X419583Y80745D01*
X419580Y80990D01*
X419580Y280990D02*
X419583Y281235D01*
X419592Y281481D01*
X419607Y281726D01*
X419628Y281970D01*
X419655Y282214D01*
X419688Y282457D01*
X419727Y282700D01*
X419772Y282941D01*
X419823Y283181D01*
X419880Y283420D01*
X419942Y283657D01*
X420011Y283893D01*
X420085Y284127D01*
X420165Y284359D01*
X420250Y284589D01*
X420341Y284817D01*
X420438Y285042D01*
X420540Y285266D01*
X420648Y285486D01*
X420761Y285704D01*
X420879Y285919D01*
X421003Y286131D01*
X421131Y286340D01*
X421265Y286546D01*
X421404Y286748D01*
X421548Y286947D01*
X421697Y287142D01*
X421850Y287334D01*
X422008Y287522D01*
X422170Y287706D01*
X422338Y287885D01*
X422509Y288061D01*
X422685Y288232D01*
X422864Y288400D01*
X423048Y288562D01*
X423236Y288720D01*
X423428Y288873D01*
X423623Y289022D01*
X423822Y289166D01*
X424024Y289305D01*
X424230Y289439D01*
X424439Y289567D01*
X424651Y289691D01*
X424866Y289809D01*
X425084Y289922D01*
X425304Y290030D01*
X425528Y290132D01*
X425753Y290229D01*
X425981Y290320D01*
X426211Y290405D01*
X426443Y290485D01*
X426677Y290559D01*
X426913Y290628D01*
X427150Y290690D01*
X427389Y290747D01*
X427629Y290798D01*
X427870Y290843D01*
X428113Y290882D01*
X428356Y290915D01*
X428600Y290942D01*
X428844Y290963D01*
X429089Y290978D01*
X429335Y290987D01*
X429580Y290990D01*
X429825Y290987D01*
X430071Y290978D01*
X430316Y290963D01*
X430560Y290942D01*
X430804Y290915D01*
X431047Y290882D01*
X431290Y290843D01*
X431531Y290798D01*
X431771Y290747D01*
X432010Y290690D01*
X432247Y290628D01*
X432483Y290559D01*
X432717Y290485D01*
X432949Y290405D01*
X433179Y290320D01*
X433407Y290229D01*
X433632Y290132D01*
X433856Y290030D01*
X434076Y289922D01*
X434294Y289809D01*
X434509Y289691D01*
X434721Y289567D01*
X434930Y289439D01*
X435136Y289305D01*
X435338Y289166D01*
X435537Y289022D01*
X435732Y288873D01*
X435924Y288720D01*
X436112Y288562D01*
X436296Y288400D01*
X436475Y288232D01*
X436651Y288061D01*
X436822Y287885D01*
X436990Y287706D01*
X437152Y287522D01*
X437310Y287334D01*
X437463Y287142D01*
X437612Y286947D01*
X437756Y286748D01*
X437895Y286546D01*
X438029Y286340D01*
X438157Y286131D01*
X438281Y285919D01*
X438399Y285704D01*
X438512Y285486D01*
X438620Y285266D01*
X438722Y285042D01*
X438819Y284817D01*
X438910Y284589D01*
X438995Y284359D01*
X439075Y284127D01*
X439149Y283893D01*
X439218Y283657D01*
X439280Y283420D01*
X439337Y283181D01*
X439388Y282941D01*
X439433Y282700D01*
X439472Y282457D01*
X439505Y282214D01*
X439532Y281970D01*
X439553Y281726D01*
X439568Y281481D01*
X439577Y281235D01*
X439580Y280990D01*
X439577Y280745D01*
X439568Y280499D01*
X439553Y280254D01*
X439532Y280010D01*
X439505Y279766D01*
X439472Y279523D01*
X439433Y279280D01*
X439388Y279039D01*
X439337Y278799D01*
X439280Y278560D01*
X439218Y278323D01*
X439149Y278087D01*
X439075Y277853D01*
X438995Y277621D01*
X438910Y277391D01*
X438819Y277163D01*
X438722Y276938D01*
X438620Y276714D01*
X438512Y276494D01*
X438399Y276276D01*
X438281Y276061D01*
X438157Y275849D01*
X438029Y275640D01*
X437895Y275434D01*
X437756Y275232D01*
X437612Y275033D01*
X437463Y274838D01*
X437310Y274646D01*
X437152Y274458D01*
X436990Y274274D01*
X436822Y274095D01*
X436651Y273919D01*
X436475Y273748D01*
X436296Y273580D01*
X436112Y273418D01*
X435924Y273260D01*
X435732Y273107D01*
X435537Y272958D01*
X435338Y272814D01*
X435136Y272675D01*
X434930Y272541D01*
X434721Y272413D01*
X434509Y272289D01*
X434294Y272171D01*
X434076Y272058D01*
X433856Y271950D01*
X433632Y271848D01*
X433407Y271751D01*
X433179Y271660D01*
X432949Y271575D01*
X432717Y271495D01*
X432483Y271421D01*
X432247Y271352D01*
X432010Y271290D01*
X431771Y271233D01*
X431531Y271182D01*
X431290Y271137D01*
X431047Y271098D01*
X430804Y271065D01*
X430560Y271038D01*
X430316Y271017D01*
X430071Y271002D01*
X429825Y270993D01*
X429580Y270990D01*
X429335Y270993D01*
X429089Y271002D01*
X428844Y271017D01*
X428600Y271038D01*
X428356Y271065D01*
X428113Y271098D01*
X427870Y271137D01*
X427629Y271182D01*
X427389Y271233D01*
X427150Y271290D01*
X426913Y271352D01*
X426677Y271421D01*
X426443Y271495D01*
X426211Y271575D01*
X425981Y271660D01*
X425753Y271751D01*
X425528Y271848D01*
X425304Y271950D01*
X425084Y272058D01*
X424866Y272171D01*
X424651Y272289D01*
X424439Y272413D01*
X424230Y272541D01*
X424024Y272675D01*
X423822Y272814D01*
X423623Y272958D01*
X423428Y273107D01*
X423236Y273260D01*
X423048Y273418D01*
X422864Y273580D01*
X422685Y273748D01*
X422509Y273919D01*
X422338Y274095D01*
X422170Y274274D01*
X422008Y274458D01*
X421850Y274646D01*
X421697Y274838D01*
X421548Y275033D01*
X421404Y275232D01*
X421265Y275434D01*
X421131Y275640D01*
X421003Y275849D01*
X420879Y276061D01*
X420761Y276276D01*
X420648Y276494D01*
X420540Y276714D01*
X420438Y276938D01*
X420341Y277163D01*
X420250Y277391D01*
X420165Y277621D01*
X420085Y277853D01*
X420011Y278087D01*
X419942Y278323D01*
X419880Y278560D01*
X419823Y278799D01*
X419772Y279039D01*
X419727Y279280D01*
X419688Y279523D01*
X419655Y279766D01*
X419628Y280010D01*
X419607Y280254D01*
X419592Y280499D01*
X419583Y280745D01*
X419580Y280990D01*
D11*
X241072Y117446D02*
X229388Y117446D01*
X234581Y121341D02*
X241072Y117446D01*
X234581Y121341D02*
X241072Y125235D01*
X229388Y125235D01*
X229388Y130485D02*
X237177Y130485D01*
X240423Y130160D02*
X241072Y130160D01*
X241072Y130809D01*
X240423Y130809D01*
X240423Y130160D01*
X229388Y137088D02*
X229388Y139684D01*
X229388Y137088D02*
X229390Y137001D01*
X229396Y136913D01*
X229406Y136827D01*
X229419Y136740D01*
X229437Y136655D01*
X229458Y136570D01*
X229483Y136486D01*
X229512Y136404D01*
X229545Y136323D01*
X229581Y136243D01*
X229620Y136165D01*
X229664Y136089D01*
X229710Y136015D01*
X229760Y135944D01*
X229813Y135874D01*
X229869Y135807D01*
X229928Y135743D01*
X229990Y135681D01*
X230054Y135622D01*
X230121Y135566D01*
X230191Y135513D01*
X230262Y135463D01*
X230336Y135417D01*
X230412Y135373D01*
X230490Y135334D01*
X230570Y135298D01*
X230651Y135265D01*
X230733Y135236D01*
X230817Y135211D01*
X230902Y135190D01*
X230987Y135172D01*
X231074Y135159D01*
X231160Y135149D01*
X231248Y135143D01*
X231335Y135141D01*
X231335Y135140D02*
X235230Y135140D01*
X235230Y135141D02*
X235317Y135143D01*
X235405Y135149D01*
X235491Y135159D01*
X235578Y135172D01*
X235663Y135190D01*
X235748Y135211D01*
X235832Y135236D01*
X235914Y135265D01*
X235995Y135298D01*
X236075Y135334D01*
X236153Y135373D01*
X236229Y135417D01*
X236303Y135463D01*
X236374Y135513D01*
X236444Y135566D01*
X236511Y135622D01*
X236575Y135681D01*
X236637Y135743D01*
X236696Y135807D01*
X236752Y135874D01*
X236805Y135944D01*
X236855Y136015D01*
X236901Y136089D01*
X236945Y136165D01*
X236984Y136243D01*
X237020Y136323D01*
X237053Y136404D01*
X237082Y136486D01*
X237107Y136570D01*
X237128Y136655D01*
X237146Y136740D01*
X237159Y136827D01*
X237169Y136913D01*
X237175Y137001D01*
X237177Y137088D01*
X237177Y139684D01*
X237177Y144337D02*
X229388Y144337D01*
X237177Y144337D02*
X237177Y148232D01*
X235879Y148232D01*
X234581Y151891D02*
X231984Y151891D01*
X234581Y151892D02*
X234682Y151894D01*
X234782Y151900D01*
X234882Y151910D01*
X234982Y151923D01*
X235081Y151941D01*
X235180Y151962D01*
X235277Y151987D01*
X235374Y152016D01*
X235469Y152049D01*
X235563Y152085D01*
X235655Y152125D01*
X235746Y152168D01*
X235835Y152215D01*
X235922Y152265D01*
X236008Y152319D01*
X236091Y152376D01*
X236171Y152436D01*
X236250Y152499D01*
X236326Y152566D01*
X236399Y152635D01*
X236469Y152707D01*
X236537Y152781D01*
X236602Y152858D01*
X236663Y152938D01*
X236722Y153020D01*
X236777Y153104D01*
X236829Y153190D01*
X236878Y153278D01*
X236923Y153368D01*
X236965Y153460D01*
X237003Y153553D01*
X237037Y153648D01*
X237068Y153743D01*
X237095Y153840D01*
X237118Y153938D01*
X237138Y154037D01*
X237153Y154137D01*
X237165Y154237D01*
X237173Y154337D01*
X237177Y154438D01*
X237177Y154538D01*
X237173Y154639D01*
X237165Y154739D01*
X237153Y154839D01*
X237138Y154939D01*
X237118Y155038D01*
X237095Y155136D01*
X237068Y155233D01*
X237037Y155328D01*
X237003Y155423D01*
X236965Y155516D01*
X236923Y155608D01*
X236878Y155698D01*
X236829Y155786D01*
X236777Y155872D01*
X236722Y155956D01*
X236663Y156038D01*
X236602Y156118D01*
X236537Y156195D01*
X236469Y156269D01*
X236399Y156341D01*
X236326Y156410D01*
X236250Y156477D01*
X236171Y156540D01*
X236091Y156600D01*
X236008Y156657D01*
X235922Y156711D01*
X235835Y156761D01*
X235746Y156808D01*
X235655Y156851D01*
X235563Y156891D01*
X235469Y156927D01*
X235374Y156960D01*
X235277Y156989D01*
X235180Y157014D01*
X235081Y157035D01*
X234982Y157053D01*
X234882Y157066D01*
X234782Y157076D01*
X234682Y157082D01*
X234581Y157084D01*
X231984Y157084D01*
X231883Y157082D01*
X231783Y157076D01*
X231683Y157066D01*
X231583Y157053D01*
X231484Y157035D01*
X231385Y157014D01*
X231288Y156989D01*
X231191Y156960D01*
X231096Y156927D01*
X231002Y156891D01*
X230910Y156851D01*
X230819Y156808D01*
X230730Y156761D01*
X230643Y156711D01*
X230557Y156657D01*
X230474Y156600D01*
X230394Y156540D01*
X230315Y156477D01*
X230239Y156410D01*
X230166Y156341D01*
X230096Y156269D01*
X230028Y156195D01*
X229963Y156118D01*
X229902Y156038D01*
X229843Y155956D01*
X229788Y155872D01*
X229736Y155786D01*
X229687Y155698D01*
X229642Y155608D01*
X229600Y155516D01*
X229562Y155423D01*
X229528Y155328D01*
X229497Y155233D01*
X229470Y155136D01*
X229447Y155038D01*
X229427Y154939D01*
X229412Y154839D01*
X229400Y154739D01*
X229392Y154639D01*
X229388Y154538D01*
X229388Y154438D01*
X229392Y154337D01*
X229400Y154237D01*
X229412Y154137D01*
X229427Y154037D01*
X229447Y153938D01*
X229470Y153840D01*
X229497Y153743D01*
X229528Y153648D01*
X229562Y153553D01*
X229600Y153460D01*
X229642Y153368D01*
X229687Y153278D01*
X229736Y153190D01*
X229788Y153104D01*
X229843Y153020D01*
X229902Y152938D01*
X229963Y152858D01*
X230028Y152781D01*
X230096Y152707D01*
X230166Y152635D01*
X230239Y152566D01*
X230315Y152499D01*
X230394Y152436D01*
X230474Y152376D01*
X230557Y152319D01*
X230643Y152265D01*
X230730Y152215D01*
X230819Y152168D01*
X230910Y152125D01*
X231002Y152085D01*
X231096Y152049D01*
X231191Y152016D01*
X231288Y151987D01*
X231385Y151962D01*
X231484Y151941D01*
X231583Y151923D01*
X231683Y151910D01*
X231783Y151900D01*
X231883Y151894D01*
X231984Y151892D01*
X229388Y165424D02*
X229390Y165523D01*
X229396Y165623D01*
X229405Y165722D01*
X229418Y165820D01*
X229435Y165918D01*
X229456Y166016D01*
X229481Y166112D01*
X229509Y166207D01*
X229541Y166301D01*
X229576Y166394D01*
X229615Y166486D01*
X229658Y166576D01*
X229703Y166664D01*
X229753Y166751D01*
X229805Y166835D01*
X229861Y166918D01*
X229919Y166998D01*
X229981Y167076D01*
X230046Y167151D01*
X230114Y167224D01*
X230184Y167294D01*
X230257Y167362D01*
X230332Y167427D01*
X230410Y167489D01*
X230490Y167547D01*
X230573Y167603D01*
X230657Y167655D01*
X230744Y167705D01*
X230832Y167750D01*
X230922Y167793D01*
X231014Y167832D01*
X231107Y167867D01*
X231201Y167899D01*
X231296Y167927D01*
X231392Y167952D01*
X231490Y167973D01*
X231588Y167990D01*
X231686Y168003D01*
X231785Y168012D01*
X231885Y168018D01*
X231984Y168020D01*
X229388Y165424D02*
X229390Y165280D01*
X229396Y165135D01*
X229405Y164991D01*
X229418Y164848D01*
X229435Y164704D01*
X229456Y164561D01*
X229481Y164419D01*
X229509Y164278D01*
X229541Y164137D01*
X229577Y163997D01*
X229616Y163858D01*
X229659Y163720D01*
X229706Y163584D01*
X229756Y163448D01*
X229810Y163314D01*
X229867Y163182D01*
X229928Y163051D01*
X229992Y162922D01*
X230060Y162794D01*
X230130Y162668D01*
X230205Y162544D01*
X230282Y162423D01*
X230363Y162303D01*
X230446Y162185D01*
X230533Y162070D01*
X230623Y161957D01*
X230716Y161846D01*
X230811Y161738D01*
X230910Y161632D01*
X231011Y161529D01*
X238476Y161854D02*
X238575Y161856D01*
X238675Y161862D01*
X238774Y161871D01*
X238872Y161884D01*
X238970Y161901D01*
X239068Y161922D01*
X239164Y161947D01*
X239259Y161975D01*
X239353Y162007D01*
X239446Y162042D01*
X239538Y162081D01*
X239628Y162124D01*
X239716Y162169D01*
X239803Y162219D01*
X239887Y162271D01*
X239970Y162327D01*
X240050Y162385D01*
X240128Y162447D01*
X240203Y162512D01*
X240276Y162580D01*
X240346Y162650D01*
X240414Y162723D01*
X240479Y162798D01*
X240541Y162876D01*
X240599Y162956D01*
X240655Y163039D01*
X240707Y163123D01*
X240757Y163210D01*
X240802Y163298D01*
X240845Y163388D01*
X240884Y163480D01*
X240919Y163573D01*
X240951Y163667D01*
X240979Y163762D01*
X241004Y163859D01*
X241025Y163956D01*
X241042Y164054D01*
X241055Y164152D01*
X241064Y164251D01*
X241070Y164351D01*
X241072Y164450D01*
X241070Y164586D01*
X241064Y164722D01*
X241055Y164858D01*
X241042Y164994D01*
X241024Y165129D01*
X241004Y165263D01*
X240979Y165397D01*
X240951Y165531D01*
X240918Y165663D01*
X240883Y165794D01*
X240843Y165925D01*
X240800Y166054D01*
X240754Y166182D01*
X240703Y166308D01*
X240650Y166434D01*
X240592Y166557D01*
X240532Y166679D01*
X240468Y166799D01*
X240400Y166918D01*
X240330Y167034D01*
X240256Y167148D01*
X240179Y167261D01*
X240098Y167371D01*
X236204Y163151D02*
X236257Y163065D01*
X236314Y162981D01*
X236373Y162899D01*
X236436Y162819D01*
X236502Y162742D01*
X236570Y162667D01*
X236642Y162595D01*
X236716Y162526D01*
X236793Y162460D01*
X236872Y162397D01*
X236954Y162337D01*
X237038Y162280D01*
X237124Y162226D01*
X237212Y162176D01*
X237302Y162129D01*
X237393Y162085D01*
X237487Y162046D01*
X237581Y162009D01*
X237677Y161977D01*
X237775Y161948D01*
X237873Y161923D01*
X237972Y161902D01*
X238072Y161884D01*
X238172Y161871D01*
X238273Y161861D01*
X238375Y161855D01*
X238476Y161853D01*
X234256Y166722D02*
X234203Y166808D01*
X234146Y166892D01*
X234087Y166974D01*
X234024Y167054D01*
X233958Y167131D01*
X233890Y167206D01*
X233818Y167278D01*
X233744Y167347D01*
X233667Y167413D01*
X233588Y167476D01*
X233506Y167536D01*
X233422Y167593D01*
X233336Y167647D01*
X233248Y167697D01*
X233158Y167744D01*
X233067Y167788D01*
X232973Y167827D01*
X232879Y167864D01*
X232783Y167896D01*
X232685Y167925D01*
X232587Y167950D01*
X232488Y167971D01*
X232388Y167989D01*
X232288Y168002D01*
X232187Y168012D01*
X232085Y168018D01*
X231984Y168020D01*
X234256Y166722D02*
X236204Y163152D01*
X241072Y172959D02*
X229388Y172959D01*
X241072Y172959D02*
X241072Y176204D01*
X241070Y176317D01*
X241064Y176430D01*
X241054Y176543D01*
X241040Y176656D01*
X241023Y176768D01*
X241001Y176879D01*
X240976Y176989D01*
X240946Y177099D01*
X240913Y177207D01*
X240876Y177314D01*
X240836Y177420D01*
X240791Y177524D01*
X240743Y177627D01*
X240692Y177728D01*
X240637Y177827D01*
X240579Y177924D01*
X240517Y178019D01*
X240452Y178112D01*
X240384Y178202D01*
X240313Y178290D01*
X240238Y178376D01*
X240161Y178459D01*
X240081Y178539D01*
X239998Y178616D01*
X239912Y178691D01*
X239824Y178762D01*
X239734Y178830D01*
X239641Y178895D01*
X239546Y178957D01*
X239449Y179015D01*
X239350Y179070D01*
X239249Y179121D01*
X239146Y179169D01*
X239042Y179214D01*
X238936Y179254D01*
X238829Y179291D01*
X238721Y179324D01*
X238611Y179354D01*
X238501Y179379D01*
X238390Y179401D01*
X238278Y179418D01*
X238165Y179432D01*
X238052Y179442D01*
X237939Y179448D01*
X237826Y179450D01*
X232634Y179450D01*
X232521Y179448D01*
X232408Y179442D01*
X232295Y179432D01*
X232182Y179418D01*
X232070Y179401D01*
X231959Y179379D01*
X231849Y179354D01*
X231739Y179324D01*
X231631Y179291D01*
X231524Y179254D01*
X231418Y179214D01*
X231314Y179169D01*
X231211Y179121D01*
X231110Y179070D01*
X231011Y179015D01*
X230914Y178957D01*
X230819Y178895D01*
X230726Y178830D01*
X230636Y178762D01*
X230548Y178691D01*
X230462Y178616D01*
X230379Y178539D01*
X230299Y178459D01*
X230222Y178376D01*
X230147Y178290D01*
X230076Y178202D01*
X230008Y178112D01*
X229943Y178019D01*
X229881Y177924D01*
X229823Y177827D01*
X229768Y177728D01*
X229717Y177627D01*
X229669Y177524D01*
X229624Y177420D01*
X229584Y177314D01*
X229547Y177207D01*
X229514Y177099D01*
X229484Y176989D01*
X229459Y176879D01*
X229437Y176768D01*
X229420Y176656D01*
X229406Y176543D01*
X229396Y176430D01*
X229390Y176317D01*
X229388Y176204D01*
X229388Y172959D01*
X229388Y191200D02*
X237177Y191200D01*
X237177Y195095D01*
X235879Y195095D01*
X229388Y200701D02*
X229388Y203947D01*
X229388Y200701D02*
X229390Y200614D01*
X229396Y200526D01*
X229406Y200440D01*
X229419Y200353D01*
X229437Y200268D01*
X229458Y200183D01*
X229483Y200099D01*
X229512Y200017D01*
X229545Y199936D01*
X229581Y199856D01*
X229620Y199778D01*
X229664Y199702D01*
X229710Y199628D01*
X229760Y199557D01*
X229813Y199487D01*
X229869Y199420D01*
X229928Y199356D01*
X229990Y199294D01*
X230054Y199235D01*
X230121Y199179D01*
X230191Y199126D01*
X230262Y199076D01*
X230336Y199030D01*
X230412Y198986D01*
X230490Y198947D01*
X230570Y198911D01*
X230651Y198878D01*
X230733Y198849D01*
X230817Y198824D01*
X230902Y198803D01*
X230987Y198785D01*
X231074Y198772D01*
X231160Y198762D01*
X231248Y198756D01*
X231335Y198754D01*
X234581Y198754D01*
X234682Y198756D01*
X234782Y198762D01*
X234882Y198772D01*
X234982Y198785D01*
X235081Y198803D01*
X235180Y198824D01*
X235277Y198849D01*
X235374Y198878D01*
X235469Y198911D01*
X235563Y198947D01*
X235655Y198987D01*
X235746Y199030D01*
X235835Y199077D01*
X235922Y199127D01*
X236008Y199181D01*
X236091Y199238D01*
X236171Y199298D01*
X236250Y199361D01*
X236326Y199428D01*
X236399Y199497D01*
X236469Y199569D01*
X236537Y199643D01*
X236602Y199720D01*
X236663Y199800D01*
X236722Y199882D01*
X236777Y199966D01*
X236829Y200052D01*
X236878Y200140D01*
X236923Y200230D01*
X236965Y200322D01*
X237003Y200415D01*
X237037Y200510D01*
X237068Y200605D01*
X237095Y200702D01*
X237118Y200800D01*
X237138Y200899D01*
X237153Y200999D01*
X237165Y201099D01*
X237173Y201199D01*
X237177Y201300D01*
X237177Y201400D01*
X237173Y201501D01*
X237165Y201601D01*
X237153Y201701D01*
X237138Y201801D01*
X237118Y201900D01*
X237095Y201998D01*
X237068Y202095D01*
X237037Y202190D01*
X237003Y202285D01*
X236965Y202378D01*
X236923Y202470D01*
X236878Y202560D01*
X236829Y202648D01*
X236777Y202734D01*
X236722Y202818D01*
X236663Y202900D01*
X236602Y202980D01*
X236537Y203057D01*
X236469Y203131D01*
X236399Y203203D01*
X236326Y203272D01*
X236250Y203339D01*
X236171Y203402D01*
X236091Y203462D01*
X236008Y203519D01*
X235922Y203573D01*
X235835Y203623D01*
X235746Y203670D01*
X235655Y203713D01*
X235563Y203753D01*
X235469Y203789D01*
X235374Y203822D01*
X235277Y203851D01*
X235180Y203876D01*
X235081Y203897D01*
X234982Y203915D01*
X234882Y203928D01*
X234782Y203938D01*
X234682Y203944D01*
X234581Y203946D01*
X234581Y203947D02*
X233283Y203947D01*
X233283Y198754D01*
X233932Y210873D02*
X233932Y213794D01*
X233932Y210873D02*
X233930Y210779D01*
X233924Y210685D01*
X233915Y210592D01*
X233901Y210499D01*
X233884Y210407D01*
X233862Y210315D01*
X233838Y210225D01*
X233809Y210135D01*
X233777Y210047D01*
X233741Y209960D01*
X233701Y209875D01*
X233658Y209792D01*
X233612Y209710D01*
X233562Y209630D01*
X233509Y209553D01*
X233453Y209478D01*
X233394Y209405D01*
X233332Y209334D01*
X233267Y209266D01*
X233199Y209201D01*
X233128Y209139D01*
X233055Y209080D01*
X232980Y209024D01*
X232903Y208971D01*
X232823Y208921D01*
X232741Y208875D01*
X232658Y208832D01*
X232573Y208792D01*
X232486Y208756D01*
X232398Y208724D01*
X232308Y208695D01*
X232218Y208671D01*
X232126Y208649D01*
X232034Y208632D01*
X231941Y208618D01*
X231848Y208609D01*
X231754Y208603D01*
X231660Y208601D01*
X231566Y208603D01*
X231472Y208609D01*
X231379Y208618D01*
X231286Y208632D01*
X231194Y208649D01*
X231102Y208671D01*
X231012Y208695D01*
X230922Y208724D01*
X230834Y208756D01*
X230747Y208792D01*
X230662Y208832D01*
X230579Y208875D01*
X230497Y208921D01*
X230417Y208971D01*
X230340Y209024D01*
X230265Y209080D01*
X230192Y209139D01*
X230121Y209201D01*
X230053Y209266D01*
X229988Y209334D01*
X229926Y209405D01*
X229867Y209478D01*
X229811Y209553D01*
X229758Y209630D01*
X229708Y209710D01*
X229662Y209792D01*
X229619Y209875D01*
X229579Y209960D01*
X229543Y210047D01*
X229511Y210135D01*
X229482Y210225D01*
X229458Y210315D01*
X229436Y210407D01*
X229419Y210499D01*
X229405Y210592D01*
X229396Y210685D01*
X229390Y210779D01*
X229388Y210873D01*
X229388Y213794D01*
X235230Y213794D01*
X235317Y213792D01*
X235405Y213786D01*
X235491Y213776D01*
X235578Y213763D01*
X235663Y213745D01*
X235748Y213724D01*
X235832Y213699D01*
X235914Y213670D01*
X235995Y213637D01*
X236075Y213601D01*
X236153Y213562D01*
X236229Y213518D01*
X236303Y213472D01*
X236374Y213422D01*
X236444Y213369D01*
X236511Y213313D01*
X236575Y213254D01*
X236637Y213192D01*
X236696Y213128D01*
X236752Y213061D01*
X236805Y212991D01*
X236855Y212920D01*
X236901Y212846D01*
X236945Y212770D01*
X236984Y212692D01*
X237020Y212612D01*
X237053Y212531D01*
X237082Y212449D01*
X237107Y212365D01*
X237128Y212280D01*
X237146Y212195D01*
X237159Y212108D01*
X237169Y212022D01*
X237175Y211934D01*
X237177Y211847D01*
X237177Y209250D01*
X241072Y224081D02*
X229388Y224081D01*
X229388Y220835D01*
X229390Y220748D01*
X229396Y220660D01*
X229406Y220574D01*
X229419Y220487D01*
X229437Y220402D01*
X229458Y220317D01*
X229483Y220233D01*
X229512Y220151D01*
X229545Y220070D01*
X229581Y219990D01*
X229620Y219912D01*
X229664Y219836D01*
X229710Y219762D01*
X229760Y219691D01*
X229813Y219621D01*
X229869Y219554D01*
X229928Y219490D01*
X229990Y219428D01*
X230054Y219369D01*
X230121Y219313D01*
X230191Y219260D01*
X230262Y219210D01*
X230336Y219164D01*
X230412Y219120D01*
X230490Y219081D01*
X230570Y219045D01*
X230651Y219012D01*
X230733Y218983D01*
X230817Y218958D01*
X230902Y218937D01*
X230987Y218919D01*
X231074Y218906D01*
X231160Y218896D01*
X231248Y218890D01*
X231335Y218888D01*
X235230Y218888D01*
X235317Y218890D01*
X235405Y218896D01*
X235491Y218906D01*
X235578Y218919D01*
X235663Y218937D01*
X235748Y218958D01*
X235832Y218983D01*
X235914Y219012D01*
X235995Y219045D01*
X236075Y219081D01*
X236153Y219120D01*
X236229Y219164D01*
X236303Y219210D01*
X236374Y219260D01*
X236444Y219313D01*
X236511Y219369D01*
X236575Y219428D01*
X236637Y219490D01*
X236696Y219554D01*
X236752Y219621D01*
X236805Y219691D01*
X236855Y219762D01*
X236901Y219836D01*
X236945Y219912D01*
X236984Y219990D01*
X237020Y220070D01*
X237053Y220151D01*
X237082Y220233D01*
X237107Y220317D01*
X237128Y220402D01*
X237146Y220487D01*
X237159Y220574D01*
X237169Y220660D01*
X237175Y220748D01*
X237177Y220835D01*
X237177Y224081D01*
X229388Y231181D02*
X229388Y234427D01*
X229388Y231181D02*
X229390Y231094D01*
X229396Y231006D01*
X229406Y230920D01*
X229419Y230833D01*
X229437Y230748D01*
X229458Y230663D01*
X229483Y230579D01*
X229512Y230497D01*
X229545Y230416D01*
X229581Y230336D01*
X229620Y230258D01*
X229664Y230182D01*
X229710Y230108D01*
X229760Y230037D01*
X229813Y229967D01*
X229869Y229900D01*
X229928Y229836D01*
X229990Y229774D01*
X230054Y229715D01*
X230121Y229659D01*
X230191Y229606D01*
X230262Y229556D01*
X230336Y229510D01*
X230412Y229466D01*
X230490Y229427D01*
X230570Y229391D01*
X230651Y229358D01*
X230733Y229329D01*
X230817Y229304D01*
X230902Y229283D01*
X230987Y229265D01*
X231074Y229252D01*
X231160Y229242D01*
X231248Y229236D01*
X231335Y229234D01*
X234581Y229234D01*
X234682Y229236D01*
X234782Y229242D01*
X234882Y229252D01*
X234982Y229265D01*
X235081Y229283D01*
X235180Y229304D01*
X235277Y229329D01*
X235374Y229358D01*
X235469Y229391D01*
X235563Y229427D01*
X235655Y229467D01*
X235746Y229510D01*
X235835Y229557D01*
X235922Y229607D01*
X236008Y229661D01*
X236091Y229718D01*
X236171Y229778D01*
X236250Y229841D01*
X236326Y229908D01*
X236399Y229977D01*
X236469Y230049D01*
X236537Y230123D01*
X236602Y230200D01*
X236663Y230280D01*
X236722Y230362D01*
X236777Y230446D01*
X236829Y230532D01*
X236878Y230620D01*
X236923Y230710D01*
X236965Y230802D01*
X237003Y230895D01*
X237037Y230990D01*
X237068Y231085D01*
X237095Y231182D01*
X237118Y231280D01*
X237138Y231379D01*
X237153Y231479D01*
X237165Y231579D01*
X237173Y231679D01*
X237177Y231780D01*
X237177Y231880D01*
X237173Y231981D01*
X237165Y232081D01*
X237153Y232181D01*
X237138Y232281D01*
X237118Y232380D01*
X237095Y232478D01*
X237068Y232575D01*
X237037Y232670D01*
X237003Y232765D01*
X236965Y232858D01*
X236923Y232950D01*
X236878Y233040D01*
X236829Y233128D01*
X236777Y233214D01*
X236722Y233298D01*
X236663Y233380D01*
X236602Y233460D01*
X236537Y233537D01*
X236469Y233611D01*
X236399Y233683D01*
X236326Y233752D01*
X236250Y233819D01*
X236171Y233882D01*
X236091Y233942D01*
X236008Y233999D01*
X235922Y234053D01*
X235835Y234103D01*
X235746Y234150D01*
X235655Y234193D01*
X235563Y234233D01*
X235469Y234269D01*
X235374Y234302D01*
X235277Y234331D01*
X235180Y234356D01*
X235081Y234377D01*
X234982Y234395D01*
X234882Y234408D01*
X234782Y234418D01*
X234682Y234424D01*
X234581Y234426D01*
X234581Y234427D02*
X233283Y234427D01*
X233283Y229234D01*
X229388Y239587D02*
X237177Y239587D01*
X237177Y243482D01*
X235879Y243482D01*
D10*
X552450Y502920D02*
X557530Y502920D01*
X557530Y313690D01*
X311150Y502920D02*
X306070Y502920D01*
X306070Y313690D01*
X557530Y313690D01*
M02*
