G04 EAGLE Gerber RS-274X export*
G75*
%MOMM*%
%FSLAX34Y34*%
%LPD*%
%INSoldermask Bottom*%
%IPPOS*%
%AMOC8*
5,1,8,0,0,1.08239X$1,22.5*%
G01*
%ADD10C,3.203200*%
%ADD11C,2.133600*%
%ADD12C,1.711200*%
%ADD13C,2.108200*%
%ADD14C,1.611200*%
%ADD15R,1.711200X1.711200*%
%ADD16C,2.153200*%
%ADD17C,2.453200*%
%ADD18C,1.703200*%


D10*
X27940Y680720D03*
X25400Y25400D03*
X1473200Y25400D03*
X1468120Y681990D03*
D11*
X990700Y317010D03*
X965300Y317010D03*
X939900Y317010D03*
X914500Y317010D03*
X889100Y317010D03*
X863700Y317010D03*
X838300Y317010D03*
X812900Y317010D03*
X787500Y317010D03*
X762100Y317010D03*
X736700Y317010D03*
X711300Y317010D03*
X685900Y317010D03*
X660500Y317010D03*
X635100Y317010D03*
X990700Y69310D03*
X965300Y69310D03*
X939900Y69310D03*
X914500Y69310D03*
X889100Y69310D03*
X863700Y69310D03*
X838300Y69310D03*
X812900Y69310D03*
X787500Y69310D03*
X762100Y69310D03*
X736700Y69310D03*
X711300Y69310D03*
X685900Y69310D03*
X660500Y69310D03*
X635100Y69310D03*
D12*
X1372080Y354150D03*
X1402080Y354150D03*
X1432080Y354150D03*
D13*
X1342080Y354330D03*
X1462080Y354330D03*
D14*
X1273810Y355600D03*
X1299210Y355600D03*
D15*
X1432560Y546100D03*
X1432560Y520700D03*
X1432560Y495300D03*
X1432560Y469900D03*
X1432560Y571500D03*
X1432560Y596900D03*
X1432560Y622300D03*
D14*
X1126490Y127540D03*
X1126490Y152940D03*
X1126490Y178340D03*
X1126490Y203740D03*
D16*
X414580Y249390D03*
X414580Y223190D03*
X414580Y196990D03*
X414580Y170790D03*
X414580Y144590D03*
X414580Y118390D03*
D14*
X1176020Y355600D03*
X1201420Y355600D03*
X1092200Y355600D03*
X1117600Y355600D03*
D17*
X608330Y424360D02*
X608330Y446860D01*
X640830Y446860D02*
X640830Y424360D01*
X673330Y424360D02*
X673330Y446860D01*
D14*
X271780Y490220D03*
X246380Y490220D03*
X220980Y490220D03*
X195580Y490220D03*
X170180Y490220D03*
X144780Y490220D03*
X119380Y490220D03*
X93980Y490220D03*
X68580Y490220D03*
X43180Y490220D03*
X469900Y483870D03*
X495300Y483870D03*
X444500Y483870D03*
X419100Y483870D03*
X393700Y483870D03*
X368300Y483870D03*
X342900Y483870D03*
X520700Y483870D03*
D18*
X1143000Y127000D03*
X1270000Y127000D03*
X1092200Y127000D03*
X1092200Y177800D03*
X419100Y304800D03*
X350520Y304800D03*
X228600Y431800D03*
X228600Y368300D03*
X977900Y495300D03*
X977900Y393700D03*
X350520Y271780D03*
X254000Y271780D03*
X1371600Y508000D03*
X749300Y406400D03*
X1003300Y279400D03*
X774700Y254000D03*
X914400Y254000D03*
X301689Y352489D03*
M02*
