M48
;GenerationSoftware,Autodesk,EAGLE,9.6.2*%
;CreationDate,2023-08-16T04:25:33Z*%
FMAT,2
ICI,OFF
METRIC,TZ,000.000
T6C0.900
T5C1.000
T4C1.270
T3C1.300
T2C1.500
T1C3.000
%
G90
M71
T1
X147320Y2540
X146812Y68199
X2794Y68072
X2540Y2540
T2
X60833Y43561
X64083Y43561
X67333Y43561
T3
X41458Y24939
X41458Y22319
X41458Y19699
X41458Y17079
X41458Y14459
X41458Y11839
T4
X134208Y35433
X146208Y35433
T5
X25400Y27178
X137160Y50800
X74930Y40640
X100330Y27940
X77470Y25400
X91440Y25400
X30169Y35249
X99070Y31701
X96530Y31701
X93990Y31701
X91450Y31701
X88910Y31701
X86370Y31701
X83830Y31701
X81290Y31701
X78750Y31701
X76210Y31701
X73670Y31701
X71130Y31701
X68590Y31701
X66050Y31701
X63510Y31701
X99070Y6931
X96530Y6931
X93990Y6931
X91450Y6931
X88910Y6931
X86370Y6931
X83830Y6931
X81290Y6931
X78750Y6931
X76210Y6931
X73670Y6931
X71130Y6931
X68590Y6931
X66050Y6931
X63510Y6931
X137208Y35415
X140208Y35415
X143208Y35415
X114300Y12700
X127000Y12700
X143256Y54610
X143256Y52070
X143256Y49530
X143256Y46990
X143256Y57150
X143256Y59690
X143256Y62230
X109220Y12700
X109220Y17780
X41910Y30480
X35052Y30480
X22860Y43180
X22860Y36830
X97790Y49530
X97790Y39370
X35052Y27178
T6
X112649Y15294
X112649Y17834
X112649Y20374
X117602Y35560
X120142Y35560
X109220Y35560
X111760Y35560
X129921Y35560
X127381Y35560
X112649Y12754
X27178Y49022
X24638Y49022
X22098Y49022
X19558Y49022
X17018Y49022
X14478Y49022
X11938Y49022
X9398Y49022
X6858Y49022
X4318Y49022
X46990Y48387
X49530Y48387
X44450Y48387
X41910Y48387
X39370Y48387
X36830Y48387
X34290Y48387
X52070Y48387
M30